SplineFontDB: 3.0
FontName: Experiment-Latin-Sans
FullName: Experiment-Latin
FamilyName: Experiment-Latin
Weight: Sans
Copyright: Copyright (c) 2015, Pathum Egodawatta
UComments: "2015-9-29: Created with FontForge (http://fontforge.org)"
Version: 0.001
ItalicAngle: 0
UnderlinePosition: 100
UnderlineWidth: 49
Ascent: 1000
Descent: 0
InvalidEm: 0
LayerCount: 2
Layer: 0 0 "Back" 1
Layer: 1 0 "Fore" 0
PreferredKerning: 4
XUID: [1021 779 -1439063335 14876943]
FSType: 0
OS2Version: 0
OS2_WeightWidthSlopeOnly: 0
OS2_UseTypoMetrics: 1
CreationTime: 1443542790
ModificationTime: 1462863784
PfmFamily: 17
TTFWeight: 400
TTFWidth: 5
LineGap: 122
VLineGap: 0
OS2TypoAscent: 129
OS2TypoAOffset: 1
OS2TypoDescent: 0
OS2TypoDOffset: 1
OS2TypoLinegap: 122
OS2WinAscent: 129
OS2WinAOffset: 1
OS2WinDescent: -161
OS2WinDOffset: 1
HheadAscent: 29
HheadAOffset: 1
HheadDescent: 183
HheadDOffset: 1
OS2Vendor: 'PfEd'
Lookup: 1 0 0 "'smcp' Lowercase to Small Capitals in Latin lookup 0" { "'smcp' Lowercase to Small Capitals in Latin lookup 0-1"  } ['smcp' ('DFLT' <'dflt' > 'latn' <'dflt' > ) ]
MarkAttachClasses: 1
DEI: 91125
LangName: 1033
Encoding: Custom
UnicodeInterp: none
NameList: Adobe Glyph List
DisplaySize: -128
AntiAlias: 1
FitToEm: 1
WinInfo: 50 10 6
BeginPrivate: 0
EndPrivate
Grid
-1000 656 m 0
 2000 656 l 1024
  Named: "SC"
-1000 687 m 4
 2000 687 l 1028
-1000 -118 m 0
 2000 -118 l 1024
-1000 734 m 0
 2000 734 l 1024
-1000 822.174682617 m 0
 2000 822.174682617 l 1024
-1000 801 m 0
 2000 801 l 1024
-1000 62 m 0
 2000 62 l 1024
2000 766 m 1024
-1000 1143 m 0
 2000 1143 l 1024
665 1500 m 0
 665 -500 l 1024
149 1500 m 0
 149 -500 l 1024
-1000 499 m 0
 2000 499 l 1024
-1000 612 m 0
 2000 612 l 1024
EndSplineSet
AnchorClass2: "top" "" "bottom" "" "thn_ubufibi" "" 
BeginChars: 264 262

StartChar: a
Encoding: 65 97 1
AltUni2: 0000aa.ffffffff.0
GlifName: uni0061
Width: 595
VWidth: 153
Flags: HMWO
AnchorPoint: "top" 300 611 basechar 0
LayerCount: 2
Back
SplineSet
55 125 m 0
 55 226 125 296 280 331 c 0
 372 352 446 356 446 356 c 1
 446 273 l 1
 446 273 382 299 305 288 c 0
 228 277 183.965820312 218.000976562 182 160 c 0
 180 101 216.875976562 64.376953125 274 63 c 0
 357 61 414 120 420 161 c 1
 448 119 l 1
 448 119 393 -13 218 -13 c 0
 133 -13 55 32 55 125 c 0
95 539 m 1
 144 566 250 611 349 611 c 0
 485 611 529 575 532 443 c 0
 534 365 517 177 534 106 c 4
 543 68 568 50 610 55 c 5
 621 16 l 5
 602 5 540 -23 482 -5 c 4
 438 9 426 55 423 114 c 5
 413 114 l 5
 425 203 428 399 414 457 c 0
 393 546 332 561 287 553 c 0
 229 542 205 507 174 474 c 1
 230 557 l 1
 209 512 192 469 186 401 c 1
 98 392 l 1
 92 459 95 539 95 539 c 1
EndSplineSet
Fore
SplineSet
45 130 m 4
 45 218.662037037 111.028523026 304.926504468 280 341 c 0
 372 362 446 366 446 366 c 1
 446 258 l 1
 446 258 368.678064538 285.907520347 285 285 c 0
 201.787440695 283.98418808 133.391237683 243.068738919 132 173 c 0
 130.190491707 105.070713438 191.544258431 74.7148577589 244 74 c 0
 363.807228916 72 413.638554217 160 420 201 c 1
 448 169 l 1
 448 169 393 -3 218 -3 c 0
 133.889771041 -3 45 33.3671875 45 130 c 4
105 559 m 1
 151.8125 586 224.419642857 611 319 611 c 0
 455 611 528.615622969 574.990704188 532 443 c 0
 535.842258622 293.151913754 520.853515625 84.06640625 544 2 c 1
 507.860761501 0.823079860453 476.235552916 -1.85993833816 425 2 c 1
 421 16 426 95 423 154 c 1
 413 154 l 1
 425 243 436.468759298 398.651649196 424 457 c 0
 403 536.729166667 328.460629729 545.456592659 287 543 c 0
 222.677300347 539.019655918 163.170764096 501.252929688 108 432 c 1
 96.0360348196 498.827878109 102.483746924 556.511317676 105 559 c 1
EndSplineSet
EndChar

StartChar: n
Encoding: 78 110 2
GlifName: uni006E_
Width: 606
VWidth: 79
Flags: HMW
LayerCount: 2
Back
SplineSet
-80 595 m 1
 -65 594 -49 594 -32 594 c 0
 62 594 164 608 164 608 c 1
 164 608 147 496 141 470 c 1
 141 461 143 457 146 457 c 0
 153 457 164 478 164 478 c 1
 162 437 162 395 162 351 c 0
 162 327 162 304 162 279 c 0
 162 193 161 100 151 0 c 1
 36 0 l 1
 47 144 53 286 53 378 c 0
 53 414 52 442 50 459 c 0
 45 504 9 532 -73 534 c 1
 -80 595 l 1
-77 62 m 1
 -65 61 -54 60 -44 60 c 0
 11 60 42 81 45 130 c 1
 160 143 l 1
 160 139 160 135 160 132 c 0
 160 56 208 48 236 48 c 0
 239 48 242 48 244 48 c 1
 254 0 l 1
 -69 0 l 1
 -77 62 l 1
132 454 m 1
 181 522 291 612 398 612 c 0
 474 612 532 575 546 481 c 0
 549 459 550 418 550 373 c 0
 550 254 542 82 538 0 c 1
 415 0 l 1
 433 79 442 202 442 303 c 0
 442 347 440 387 436 417 c 0
 427 480 385 513 326 513 c 0
 225 513 157 417 157 417 c 1
 132 454 l 1
319 62 m 1
 323 62 341 59 355 59 c 0
 394 59 429 69 435 140 c 1
 544 139 l 1
 541 60 599 50 626 50 c 0
 629 50 631 50 633 50 c 1
 643 0 l 1
 329 0 l 1
 319 62 l 1
EndSplineSet
Fore
SplineSet
132 494 m 1
 181 540.163265306 271 611 378 611 c 0
 454 611 543.541992188 576.024414062 542 441 c 0
 542 0 l 1
 435 0 l 1
 436.92578125 149.436961206 433.956558241 273.405303389 435 416 c 0
 435.661132812 512.992425381 394.654249512 568.235865971 326 562 c 0
 224.868164062 552.884101818 157 399 157 399 c 1
 132 494 l 1
45 601 m 5
 103.857421875 619.972656248 171 613 171 613 c 5
 171 613 160 510.333333333 154 480 c 5
 154 471 162 467 159 467 c 4
 157.833333333 467 158 488 158 488 c 5
 158 0 l 5
 45 0 l 5
 44.1796875 201.079101562 55.1796875 473.854492188 45 601 c 5
EndSplineSet
EndChar

StartChar: d
Encoding: 68 100 3
GlifName: uni0064
Width: 632
VWidth: 79
Flags: HMW
LayerCount: 2
Back
SplineSet
24 225 m 0
 23 367 103.280273438 545.5703125 302 596 c 0
 377.931640625 615.26953125 462 604 502 589 c 1
 462 501 l 1
 462 501 383.563476562 559.984375 300 539 c 0
 218.362304688 518.499023438 150 414 148 264 c 0
 147 161 191 76 270 68 c 0
 351 60 427 127 448 181 c 1
 479 140 l 1
 447 66 361 -13 248 -13 c 0
 103 -13 25 64 24 225 c 0
323 830 m 1
 406 828 577 850 577 850 c 1
 545 682 555 219 559 162 c 0
 565 80 593 45 671 57 c 1
 684 13 l 5
 636 -16 575.349609375 -29.7998046875 518 -15 c 4
 456 1 452 67 452 99 c 0
 443 142 l 0
 457 246 451 583 445 707 c 0
 443 754 400 767 328 766 c 1
 323 830 l 1
EndSplineSet
Fore
SplineSet
457 831 m 1
 513.989257812 849.97265625 579 843 579 843 c 1
 546.734049479 467.192382812 557.089518229 467 557 467 c 0
 555.139648438 467 556 88.4697265625 556 0 c 1
 447 0 l 1
 457 278.03125 457 655.196289062 457 831 c 1
24 225 m 0
 22.4862372224 454.157255977 227.77658723 646.072784152 482 619 c 1
 462 501 l 1
 281.627058383 567.618517259 120.770981475 503.371996143 118 294 c 0
 116.007554893 143.453266587 174.538105032 73.0395445689 270 68 c 0
 393.362499807 61.4875500206 451.301416707 190.954887218 453 275 c 1
 484 264 l 1
 481.214642095 143.225590748 381.603964961 -13 238 -13 c 4
 93 -13 24.828598684 81.9802273471 24 225 c 0
EndSplineSet
EndChar

StartChar: h
Encoding: 72 104 4
GlifName: uni0068
Width: 606
VWidth: 79
Flags: HMW
LayerCount: 2
Back
SplineSet
-37 61 m 1
 39 57 72 89 79 137 c 1
 197 146 l 1
 195 51 271 50 289 51 c 1
 299 0 l 1
 -27 0 l 1
 -37 61 l 1
-36 829 m 1
 47 827 221 850 221 850 c 1
 196 637 193 208 197 145 c 0
 200 101 179 49 261 49 c 1
 245 1 l 1
 51 0 l 1
 51 0 70 72 78 136 c 0
 88 271 89 529 84 719 c 0
 79 763 49 766 -29 766 c 1
 -36 829 l 1
158 448 m 1
 206 519 328 604 422 611 c 0
 512 617 572 578 587 477 c 0
 598 399 584 113 579 0 c 1
 452 0 l 1
 469 79 479 202 479 303 c 0
 479 347 477 387 473 417 c 0
 462 493 408 526 329 509 c 0
 248 492 183 417 183 417 c 1
 158 448 l 1
358 58 m 1
 362 58 364 58 367 58 c 0
 436 58 467 94 471 140 c 1
 585 139 l 1
 582 49 655 49 674 50 c 1
 684 0 l 1
 366 0 l 1
 358 58 l 1
EndSplineSet
Fore
SplineSet
49 831 m 5
 105.988932292 849.972656248 171 843 171 843 c 5
 171 843 160 562.789473684 154 480 c 5
 154 471 162 467 159 467 c 4
 157.833333333 467 158 488 158 488 c 5
 158 0 l 5
 49 0 l 5
 48.1796875 278.031170379 59.1796875 655.196477551 49 831 c 5
132 494 m 1
 181 540.163265306 271 611 378 611 c 0
 454 611 543.541992188 576.024414062 542 441 c 0
 542 0 l 1
 435 0 l 1
 436.92578125 149.436961206 433.956558241 273.405303389 435 416 c 0
 435.661132812 512.992425381 394.654249512 568.235865971 326 562 c 0
 224.868164062 552.884101818 157 399 157 399 c 1
 132 494 l 1
EndSplineSet
EndChar

StartChar: e
Encoding: 69 101 5
GlifName: uni0065
Width: 603
VWidth: 153
Flags: HMW
AnchorPoint: "top" 326 611 basechar 0
LayerCount: 2
Back
SplineSet
41 230 m 0
 27.4091796875 479.856445312 175.48163483 608.546423077 324.999991234 610.306322712 c 0
 477.12162573 612.096864124 585.015157048 504.470609105 553 298 c 1
 151 296 l 1
 121 344 l 1
 378 367 l 1
 438 368 l 1
 428.612351016 506.488320884 367.945897225 561.018643125 305.000001521 559.378378732 c 0
 208.904663896 556.874295521 160.025066037 460.88873901 163 329 c 0
 165 228 186 78 324 53 c 0
 427 34 517 102 519 102 c 1
 543 68 l 1
 524 51 449 -19 322 -21 c 0
 195 -23 52 26 41 230 c 0
EndSplineSet
Fore
SplineSet
41 230 m 0
 27.4091796875 479.856445312 175.48163483 608.546423077 324.999991234 610.306322712 c 0
 477.12162573 612.096864124 585.015157048 504.470609105 553 298 c 1
 151 296 l 1
 121 344 l 1
 378 367 l 1
 438 368 l 1
 428.612351016 506.488320884 367.945897225 561.018643125 305.000001521 559.378378732 c 0
 208.904663896 556.874295521 160.025066037 460.88873901 163 329 c 0
 165 228 186 78 324 53 c 0
 427 34 517 102 519 102 c 1
 543 68 l 1
 524 51 449 -19 322 -21 c 0
 195 -23 52 26 41 230 c 0
EndSplineSet
EndChar

StartChar: i
Encoding: 73 105 6
GlifName: uni0069
Width: 412
VWidth: 79
Flags: HMW
LayerCount: 2
Back
Refer: 115 729 N 1 0 0 1 250 614 2
Refer: 201 305 N 1 0 0 1 0 0 3
Fore
SplineSet
157 601 m 5
 215.857421875 619.972656248 283 613 283 613 c 5
 276.813029597 459.044555421 275.626217107 236.606316894 270 0 c 5
 157 0 l 5
 156.1796875 201.079101562 167.1796875 473.854492188 157 601 c 5
144.012695312 751.016601562 m 0
 144.012695312 798.155273438 179.745117188 832.017578125 225.779296875 832.017578125 c 0
 267.102539062 832.017578125 302.987304688 802.513671875 302.987304688 755.474609375 c 0
 302.987304688 706.590820312 267.932617188 674 220.779296875 674 c 0
 174.267578125 674 144.012695312 702.133789062 144.012695312 751.016601562 c 0
EndSplineSet
EndChar

StartChar: s
Encoding: 83 115 7
GlifName: uni0073
Width: 531
VWidth: 153
Flags: HMW
LayerCount: 2
Back
SplineSet
49 7 m 1
 45 42 47 105 56 165 c 1
 139 156 l 1
 142 109 151 65 175 30 c 1
 134 41 122 85 115 128 c 1
 147 94 167 37 253 36 c 0
 313 35 355 72 363 126 c 4
 382.924690426 260.491660379 98 249 74 412 c 0
 58 516 145 609 302 606 c 0
 396 604 458 580 458 580 c 1
 462 542 460 471 455 437 c 1
 375 445 l 1
 374 482 359 543 338 591 c 2
 393 462 l 1
 379 478 358 554 274 555 c 0
 218 555 174 512 184 466 c 0
 209 351 460 349 476 184 c 0
 487 71 389 -25 245 -25 c 0
 132 -25 49 7 49 7 c 1
EndSplineSet
Fore
SplineSet
49 7 m 1
 45 42 47 105 56 165 c 1
 139 156 l 1
 142 109 151 65 175 30 c 1
 134 41 122 85 115 128 c 1
 147 94 167 37 253 36 c 0
 313 35 355 72 363 126 c 4
 382.924690426 260.491660379 98 249 74 412 c 0
 58 516 145 609 302 606 c 0
 396 604 458 580 458 580 c 1
 462 542 460 471 455 437 c 1
 375 445 l 1
 374 482 359 543 338 591 c 2
 393 462 l 1
 379 478 358 554 274 555 c 0
 218 555 174 512 184 466 c 0
 209 351 460 349 476 184 c 0
 487 71 389 -25 245 -25 c 0
 132 -25 49 7 49 7 c 1
EndSplineSet
EndChar

StartChar: o
Encoding: 79 111 8
AltUni2: 0000ba.ffffffff.0
GlifName: o
Width: 662
VWidth: 153
Flags: HMW
AnchorPoint: "top" 359 611 basechar 0
LayerCount: 2
Back
SplineSet
44 246 m 0
 45 90 131 -15 299 -18 c 0
 522.00031949 -21.9821485623 611 148 616 324 c 0
 622 531 516 614 362 615 c 0
 179 616 42 466 44 246 c 0
171 318 m 0
 176 505 267 552 313 556 c 0
 424 566 503 455 498 298 c 0
 494 168 441 55 344 44 c 0
 230 31 166 156 171 318 c 0
EndSplineSet
Fore
SplineSet
44 246 m 0
 45 90 131 -15 299 -18 c 0
 522.00031949 -21.9821485623 611 148 616 324 c 0
 622 531 516 614 362 615 c 0
 179 616 42 466 44 246 c 0
171 318 m 0
 176 505 267 552 313 556 c 0
 424 566 503 455 498 298 c 0
 494 168 441 55 344 44 c 0
 230 31 166 156 171 318 c 0
EndSplineSet
EndChar

StartChar: b
Encoding: 66 98 9
GlifName: b
Width: 692
VWidth: 79
Flags: HMW
LayerCount: 2
Back
SplineSet
-7 830 m 1
 76 828 247 850 247 850 c 1
 215 682 225 219 229 162 c 0
 232.168052495 118.703282572 236.317826685 79.7219149929 239.347491672 66.0000026512 c 0
 113 22 l 1
 126 127 133 572 115 707 c 0
 109 754 70 767 -2 766 c 1
 -7 830 l 1
113 22 m 1
 185 152 l 1
 185 152 250 31 367 52 c 0
 449 67 518 166 519 349 c 0
 520 486 448 535 386 534 c 0
 329 533 259 488 223 404 c 1
 189 445 l 1
 237 558 342 613 427 613 c 0
 572 613 649 515 643 344 c 0
 637 172 554 -10 324 -12 c 0
 226 -13 156 5 113 22 c 1
EndSplineSet
Fore
SplineSet
-7 830 m 1
 76 828 247 850 247 850 c 1
 215 682 225 219 229 162 c 0
 232.168052495 118.703282572 236.317826685 79.7219149929 239.347491672 66.0000026512 c 0
 113 22 l 1
 126 127 133 572 115 707 c 0
 109 754 70 767 -2 766 c 1
 -7 830 l 1
113 22 m 1
 185 152 l 1
 185 152 250 31 367 52 c 0
 449 67 518 166 519 349 c 0
 520 486 448 535 386 534 c 0
 329 533 259 488 223 404 c 1
 189 445 l 1
 237 558 342 613 427 613 c 0
 572 613 649 515 643 344 c 0
 637 172 554 -10 324 -12 c 0
 226 -13 156 5 113 22 c 1
EndSplineSet
EndChar

StartChar: r
Encoding: 82 114 10
GlifName: r
Width: 594
VWidth: 79
Flags: HMW
LayerCount: 2
Back
SplineSet
49 595 m 1
 64 594 80 594 97 594 c 0
 191 594 293 608 293 608 c 1
 293 608 276 486 270 460 c 1
 293 468 l 1
 290 402 286 349 286 279 c 0
 286 193 287 100 300 0 c 1
 165 0 l 1
 176 144 182 286 182 378 c 0
 182 414 181 442 179 459 c 0
 174 504 138 532 56 534 c 1
 49 595 l 1
52 63 m 1
 64 62 75 61 85 61 c 0
 140 61 171 82 174 131 c 1
 288 150 l 1
 288 146 288 142 288 139 c 0
 288 63 357 49 405 49 c 0
 408 49 411 49 413 49 c 1
 423 1 l 1
 60 1 l 1
 52 63 l 1
215 350 m 5
 224 454 352 563 470 601 c 0
 528 620 573 609 573 609 c 1
 575 571 565 461 558 416 c 1
 498 422 l 1
 477 465 448 504 399 538 c 1
 520 475 l 1
 520 475 456 504 384 483 c 0
 318 464 261 416 259 295 c 1
 215 350 l 5
461 429 m 1049
EndSplineSet
Fore
SplineSet
49 595 m 1
 64 594 80 594 97 594 c 0
 191 594 293 608 293 608 c 1
 293 608 276 486 270 460 c 1
 293 468 l 1
 290 402 286 349 286 279 c 0
 286 193 287 100 300 0 c 1
 165 0 l 1
 176 144 182 286 182 378 c 0
 182 414 181 442 179 459 c 0
 174 504 138 532 56 534 c 1
 49 595 l 1
52 63 m 1
 64 62 75 61 85 61 c 0
 140 61 171 82 174 131 c 1
 288 150 l 1
 288 146 288 142 288 139 c 0
 288 63 357 49 405 49 c 0
 408 49 411 49 413 49 c 1
 423 1 l 1
 60 1 l 1
 52 63 l 1
215 350 m 5
 224 454 352 563 470 601 c 0
 528 620 573 609 573 609 c 1
 575 571 565 461 558 416 c 1
 498 422 l 1
 477 465 448 504 399 538 c 1
 520 475 l 1
 520 475 456 504 384 483 c 0
 318 464 261 416 259 295 c 1
 215 350 l 5
461 429 m 1049
EndSplineSet
EndChar

StartChar: period
Encoding: 14 46 11
GlifName: period
Width: 307
VWidth: 79
Flags: HMW
AnchorPoint: "top" 149.158 -40.4551 basechar 0
LayerCount: 2
Back
SplineSet
73.8271484375 48.6171875 m 0
 73.8271484375 95.755859375 109.559570312 129.618164062 155.59375 129.618164062 c 0
 196.916992188 129.618164062 232.801757812 100.114257812 232.801757812 53.0751953125 c 0
 232.801757812 4.19140625 197.747070312 -28.3994140625 150.59375 -28.3994140625 c 0
 104.08203125 -28.3994140625 73.8271484375 -0.265625 73.8271484375 48.6171875 c 0
EndSplineSet
Fore
SplineSet
73.8271484375 48.6171875 m 0
 73.8271484375 95.755859375 109.559570312 129.618164062 155.59375 129.618164062 c 0
 196.916992188 129.618164062 232.801757812 100.114257812 232.801757812 53.0751953125 c 0
 232.801757812 4.19140625 197.747070312 -28.3994140625 150.59375 -28.3994140625 c 0
 104.08203125 -28.3994140625 73.8271484375 -0.265625 73.8271484375 48.6171875 c 0
EndSplineSet
EndChar

StartChar: t
Encoding: 84 116 12
GlifName: t
Width: 475
VWidth: 79
Flags: HMW
LayerCount: 2
Back
SplineSet
20 584 m 1
 54 586 118 583 140 584 c 1
 140 584 139 678 141 767 c 1
 256 792 l 1
 237 563 229 200 260 132 c 0
 289 70 357 54 425 95 c 1
 451 60 l 1
 430 36 359 -12 278 -13 c 0
 194 -14 127 42 131 140 c 0
 133 193 139 340 133 498 c 1
 133 498 103 517 35 517 c 1
 20 584 l 1
142 584 m 1
 164 585 176.980007994 584 202 584 c 2
 397 584 l 1
 409 520 l 1
 232 505 l 1
 207 506 184 465 156 485 c 1
 142 584 l 1
EndSplineSet
Fore
SplineSet
20 584 m 1
 54 586 118 583 140 584 c 1
 140 584 139 678 141 767 c 1
 256 792 l 1
 237 563 229 200 260 132 c 0
 289 70 357 54 425 95 c 1
 451 60 l 1
 430 36 359 -12 278 -13 c 0
 194 -14 127 42 131 140 c 0
 133 193 139 340 133 498 c 1
 133 498 103 517 35 517 c 1
 20 584 l 1
142 584 m 1
 164 585 176.980007994 584 202 584 c 2
 397 584 l 1
 409 520 l 1
 232 505 l 1
 207 506 184 465 156 485 c 1
 142 584 l 1
EndSplineSet
EndChar

StartChar: p
Encoding: 80 112 13
GlifName: p
Width: 761
VWidth: 79
Flags: HMW
LayerCount: 2
Back
SplineSet
40 595 m 1
 55 594 71 594 88 594 c 0
 182 594 284 608 284 608 c 1
 284 608 267 506 261 480 c 1
 284 488 l 1
 281 422 277 349 277 279 c 0
 277 193 278 -117 291 -217 c 1
 156 -217 l 1
 167 -73 173 286 173 378 c 0
 173 414 172 442 170 459 c 0
 165 504 130 536 47 534 c 1
 40 595 l 1
43 -156 m 1
 55 -157 66 -158 76 -158 c 0
 131 -158 160 -150 163 -101 c 5
 282 -82 l 5
 282 -86 282 -90 282 -93 c 4
 282 -169 341 -170 389 -170 c 0
 392 -170 395 -170 397 -170 c 1
 407 -218 l 1
 51 -218 l 1
 43 -156 l 1
227 12 m 1
 267 100 l 1
 267 100 338 43 429 62 c 0
 517 80 576 181 578 331 c 0
 579 434 548 524 459 533 c 0
 378 541 302 474 281 420 c 1
 250 461 l 1
 282 535 378 614 491 614 c 0
 635 614 711 531 712 370 c 0
 713 228 630 50 427 5 c 0
 349 -12 267 -3 227 12 c 1
EndSplineSet
Fore
SplineSet
40 595 m 1
 55 594 71 594 88 594 c 0
 182 594 284 608 284 608 c 1
 284 608 267 506 261 480 c 1
 284 488 l 1
 281 422 277 349 277 279 c 0
 277 193 278 -117 291 -217 c 1
 156 -217 l 1
 167 -73 173 286 173 378 c 0
 173 414 172 442 170 459 c 0
 165 504 130 536 47 534 c 1
 40 595 l 1
43 -156 m 1
 55 -157 66 -158 76 -158 c 0
 131 -158 160 -150 163 -101 c 5
 282 -82 l 5
 282 -86 282 -90 282 -93 c 4
 282 -169 341 -170 389 -170 c 0
 392 -170 395 -170 397 -170 c 1
 407 -218 l 1
 51 -218 l 1
 43 -156 l 1
227 12 m 1
 267 100 l 1
 267 100 338 43 429 62 c 0
 517 80 576 181 578 331 c 0
 579 434 548 524 459 533 c 0
 378 541 302 474 281 420 c 1
 250 461 l 1
 282 535 378 614 491 614 c 0
 635 614 711 531 712 370 c 0
 713 228 630 50 427 5 c 0
 349 -12 267 -3 227 12 c 1
EndSplineSet
EndChar

StartChar: v
Encoding: 86 118 14
GlifName: v
Width: 641
VWidth: 79
Flags: HMW
LayerCount: 2
Back
SplineSet
-14 596 m 1
 100 590.78125 184 592.904296875 298 596 c 5
 312 542 l 5
 236 536 193 525 208 460 c 1
 207.7265625 459.962890625 l 1
 235.463867188 361.939453125 279.292398663 243.315762497 301.678710938 148 c 0
 306.755289288 126.385098434 320.991210938 63 320.991210938 63 c 1
 350.858398438 134.987304688 428.987280837 301.968169616 489.733398438 468.791992188 c 0
 510.490210524 525.795318053 455.559570312 535.975585938 388 533 c 1
 379 596 l 1
 475.666992188 590.463867188 552.333007812 592.002929688 649 596 c 1
 660 538 l 1
 590.022460938 535.735351562 582.594321118 496.991141736 564.810546875 455.861328125 c 4
 487.965836871 278.137041014 404.959960938 87.9033203125 367.661132812 7.6162109375 c 9
 243.399414062 -25.650390625 l 1
 204.270507812 85.927734375 169.610382335 224.994081826 91.4970703125 462.43359375 c 0
 70.454132335 526.397402138 56.650390625 532.875976562 0 532 c 1
 -14 596 l 1
EndSplineSet
Fore
SplineSet
-14 596 m 1
 100 590.78125 184 592.904296875 298 596 c 5
 312 542 l 5
 236 536 193 525 208 460 c 1
 207.7265625 459.962890625 l 1
 235.463867188 361.939453125 279.292398663 243.315762497 301.678710938 148 c 0
 306.755289288 126.385098434 320.991210938 63 320.991210938 63 c 1
 350.858398438 134.987304688 428.987280837 301.968169616 489.733398438 468.791992188 c 0
 510.490210524 525.795318053 455.559570312 535.975585938 388 533 c 1
 379 596 l 1
 475.666992188 590.463867188 552.333007812 592.002929688 649 596 c 1
 660 538 l 1
 590.022460938 535.735351562 582.594321118 496.991141736 564.810546875 455.861328125 c 4
 487.965836871 278.137041014 404.959960938 87.9033203125 367.661132812 7.6162109375 c 9
 243.399414062 -25.650390625 l 1
 204.270507812 85.927734375 169.610382335 224.994081826 91.4970703125 462.43359375 c 0
 70.454132335 526.397402138 56.650390625 532.875976562 0 532 c 1
 -14 596 l 1
EndSplineSet
EndChar

StartChar: m
Encoding: 77 109 15
GlifName: m
Width: 1160
VWidth: 79
Flags: HMW
LayerCount: 2
Back
SplineSet
49 596 m 1
 153 592 283 608 283 608 c 1
 283 608 266 496 260 470 c 1
 260 437 283 478 283 478 c 1
 277 338 288 181 270 0 c 1
 155 0 l 1
 170 200 176 397 169 459 c 0
 164 504 138 526 56 528 c 1
 49 596 l 1
52 62 m 1
 128 63 160 72 164 130 c 1
 279 143 l 1
 274 48 337 47 363 48 c 1
 373 0 l 1
 60 0 l 1
 52 62 l 1
221 454 m 1
 259 515 385 605 489 611 c 0
 588 617 637 578 652 477 c 0
 663 399 651 113 646 0 c 1
 519 0 l 1
 543 114 550 319 540 417 c 0
 532 493 478 530 396 513 c 0
 315 497 246 417 246 417 c 1
 221 454 l 1
443 58 m 1
 519 54 534 92 538 140 c 1
 651 139 l 1
 648 49 712 49 731 50 c 1
 741 0 l 1
 453 0 l 1
 443 58 l 1
611 454 m 1
 649 515 771 605 875 611 c 0
 974 617 1023 578 1038 477 c 0
 1049 399 1037 113 1032 0 c 1
 905 0 l 1
 929 114 936 319 926 417 c 0
 918 493 864 530 782 513 c 0
 701 497 636 417 636 417 c 1
 611 454 l 1
819 58 m 1
 895 54 920 92 924 140 c 1
 1037 139 l 1
 1034 49 1108 49 1127 50 c 1
 1137 0 l 1
 829 0 l 1
 819 58 l 1
EndSplineSet
Fore
SplineSet
49 596 m 1
 153 592 283 608 283 608 c 1
 283 608 266 496 260 470 c 1
 260 437 283 478 283 478 c 1
 277 338 288 181 270 0 c 1
 155 0 l 1
 170 200 176 397 169 459 c 0
 164 504 138 526 56 528 c 1
 49 596 l 1
52 62 m 1
 128 63 160 72 164 130 c 1
 279 143 l 1
 274 48 337 47 363 48 c 1
 373 0 l 1
 60 0 l 1
 52 62 l 1
221 454 m 1
 259 515 385 605 489 611 c 0
 588 617 637 578 652 477 c 0
 663 399 651 113 646 0 c 1
 519 0 l 1
 543 114 550 319 540 417 c 0
 532 493 478 530 396 513 c 0
 315 497 246 417 246 417 c 1
 221 454 l 1
443 58 m 1
 519 54 534 92 538 140 c 1
 651 139 l 1
 648 49 712 49 731 50 c 1
 741 0 l 1
 453 0 l 1
 443 58 l 1
611 454 m 1
 649 515 771 605 875 611 c 0
 974 617 1023 578 1038 477 c 0
 1049 399 1037 113 1032 0 c 1
 905 0 l 1
 929 114 936 319 926 417 c 0
 918 493 864 530 782 513 c 0
 701 497 636 417 636 417 c 1
 611 454 l 1
819 58 m 1
 895 54 920 92 924 140 c 1
 1037 139 l 1
 1034 49 1108 49 1127 50 c 1
 1137 0 l 1
 829 0 l 1
 819 58 l 1
EndSplineSet
EndChar

StartChar: g
Encoding: 71 103 16
GlifName: g
Width: 743
VWidth: 153
Flags: HMW
LayerCount: 2
Back
SplineSet
57.5732421875 -174 m 0
 50.66796875 -77.73828125 162.967773438 21.728515625 268 62 c 1
 368 56 l 17
 279.77734375 37.1123046875 178.629882812 -19.7021484375 175.3671875 -106 c 0
 172.555854386 -180.359382196 242.731445312 -225.168945312 355 -220 c 0
 490.58203125 -213.7578125 552.166503195 -137.814394412 547 -66 c 0
 537 73 344.076044405 50.2674763138 186 57 c 0
 103.936523438 60.4951171875 75.291015625 64.162109375 77 109 c 1
 118.3828125 158.563476562 183 220 250 259 c 1
 265 228 l 1
 214 185 198.924804688 130 259 130 c 0
 476.77734375 130 675.1328125 123.999023438 674 -38 c 0
 673 -181 457.998046875 -292.731445312 266 -294 c 0
 134.434570312 -294.869140625 63.5546875 -257.377929688 57.5732421875 -174 c 0
66 380 m 0
 64.6176787242 520.996770133 201 611 343 611 c 0
 458 611 570 571 570 453 c 0
 570 301 436 227 300 227 c 0
 155 227 67 278 66 380 c 0
187 414 m 0
 187 322 249 283 314 284 c 0
 397.99609375 285.291992188 446 357 446 436 c 0
 446 499 413 558 325 558 c 0
 257 558 187 509 187 414 c 0
516 516 m 17
 546 518 626 547 728 607 c 1
 734 570 735 502 731 472 c 1
 675 474 609 474 558 474 c 9
 516 516 l 17
EndSplineSet
Fore
SplineSet
57.5732421875 -174 m 0
 50.66796875 -77.73828125 162.967773438 21.728515625 268 62 c 1
 368 56 l 17
 279.77734375 37.1123046875 178.629882812 -19.7021484375 175.3671875 -106 c 0
 172.555854386 -180.359382196 242.731445312 -225.168945312 355 -220 c 0
 490.58203125 -213.7578125 552.166503195 -137.814394412 547 -66 c 0
 537 73 344.076044405 50.2674763138 186 57 c 0
 103.936523438 60.4951171875 75.291015625 64.162109375 77 109 c 1
 118.3828125 158.563476562 183 220 250 259 c 1
 265 228 l 1
 214 185 198.924804688 130 259 130 c 0
 476.77734375 130 675.1328125 123.999023438 674 -38 c 0
 673 -181 457.998046875 -292.731445312 266 -294 c 0
 134.434570312 -294.869140625 63.5546875 -257.377929688 57.5732421875 -174 c 0
66 380 m 0
 64.6176787242 520.996770133 201 611 343 611 c 0
 458 611 570 571 570 453 c 0
 570 301 436 227 300 227 c 0
 155 227 67 278 66 380 c 0
187 414 m 0
 187 322 249 283 314 284 c 0
 397.99609375 285.291992188 446 357 446 436 c 0
 446 499 413 558 325 558 c 0
 257 558 187 509 187 414 c 0
516 516 m 17
 546 518 626 547 728 607 c 1
 734 570 735 502 731 472 c 1
 675 474 609 474 558 474 c 9
 516 516 l 17
EndSplineSet
EndChar

StartChar: H
Encoding: 40 72 17
GlifName: H_
Width: 892
VWidth: 79
Flags: HMW
LayerCount: 2
Back
SplineSet
43 61 m 1
 119 57 148 89 155 137 c 1
 274 146 l 1
 272 51 348 50 366 51 c 1
 376 0 l 1
 52 0 l 1
 43 61 l 1
61 800 m 1
 174 792 253 795 361 800 c 1
 371 749 l 1
 353 750 284 749 286 654 c 1
 160 663 l 1
 153 711 143 743 67 739 c 1
 61 800 l 1
127 0 m 1
 127 0 148.315896498 71.7696304231 154 136 c 0
 168.315896498 297.769630423 166 583 156 768 c 1
 299 793 l 1
 274 593 270 208 274 145 c 0
 277 101 256 49 338 49 c 1
 322 1 l 1
 127 0 l 1
194 358 m 1
 194 435 l 1
 543 436 l 1
 747 443 l 1
 747 358 l 1
 194 358 l 1
537 58 m 1
 613 54 648 92 652 140 c 1
 770 139 l 1
 767 49 833 49 852 50 c 1
 862 0 l 1
 547 0 l 1
 537 58 l 1
552 800 m 1
 648 793 780 796 856 800 c 1
 861 749 l 1
 843 750 783 749 779 654 c 1
 655 663 l 1
 648 711 636 743 560 739 c 1
 552 800 l 1
624 0 m 1
 624 0 645.315896498 71.7696304231 651 136 c 0
 665.315896498 297.769630423 660 583 650 768 c 1
 792 793 l 1
 767 593 767 208 770 145 c 0
 772 101 752 49 834 49 c 1
 818 1 l 1
 624 0 l 1
EndSplineSet
Fore
SplineSet
43 61 m 1
 119 57 148 89 155 137 c 1
 274 146 l 1
 272 51 348 50 366 51 c 1
 376 0 l 1
 52 0 l 1
 43 61 l 1
61 800 m 1
 174 792 253 795 361 800 c 1
 371 749 l 1
 353 750 284 749 286 654 c 1
 160 663 l 1
 153 711 143 743 67 739 c 1
 61 800 l 1
127 0 m 1
 127 0 148.315896498 71.7696304231 154 136 c 0
 168.315896498 297.769630423 166 583 156 768 c 1
 299 793 l 1
 274 593 270 208 274 145 c 0
 277 101 256 49 338 49 c 1
 322 1 l 1
 127 0 l 1
194 358 m 1
 194 435 l 1
 543 436 l 1
 747 443 l 1
 747 358 l 1
 194 358 l 1
537 58 m 1
 613 54 648 92 652 140 c 1
 770 139 l 1
 767 49 833 49 852 50 c 1
 862 0 l 1
 547 0 l 1
 537 58 l 1
552 800 m 1
 648 793 780 796 856 800 c 1
 861 749 l 1
 843 750 783 749 779 654 c 1
 655 663 l 1
 648 711 636 743 560 739 c 1
 552 800 l 1
624 0 m 1
 624 0 645.315896498 71.7696304231 651 136 c 0
 665.315896498 297.769630423 660 583 650 768 c 1
 792 793 l 1
 767 593 767 208 770 145 c 0
 772 101 752 49 834 49 c 1
 818 1 l 1
 624 0 l 1
EndSplineSet
Substitution2: "'smcp' Lowercase to Small Capitals in Latin lookup 0-1" H.sc
EndChar

StartChar: A
Encoding: 33 65 18
GlifName: A_
Width: 863
VWidth: 79
Flags: HMW
AnchorPoint: "top" 438 812 basechar 0
LayerCount: 2
Back
SplineSet
49 61 m 1
 120 62 145 86 164 136 c 0
 257 377 326 594 381 779 c 5
 420 785 468 797 507 810 c 5
 568 600 637 418 737 150 c 0
 754 104 775 53 843 55 c 1
 853 0 l 1
 741 0 639 0 527 0 c 1
 517 54 l 1
 588 53 629 65 613 124 c 0
 579 249 505 407 462 552 c 4
 454 591 439 646 431 687 c 5
 371 479 279 210 264 145 c 0
 243 49 312 50 360 51 c 1
 370 0 l 1
 262 0 167 0 59 0 c 1
 49 61 l 1
285 258 m 1
 285 329 l 1
 608 337 l 1
 608 261 l 1
 285 258 l 1
EndSplineSet
Fore
SplineSet
49 61 m 1
 120 62 145 86 164 136 c 0
 257 377 326 594 381 779 c 5
 420 785 468 797 507 810 c 5
 568 600 637 418 737 150 c 0
 754 104 775 53 843 55 c 1
 853 0 l 1
 741 0 639 0 527 0 c 1
 517 54 l 1
 588 53 629 65 613 124 c 0
 579 249 505 407 462 552 c 4
 454 591 439 646 431 687 c 5
 371 479 279 210 264 145 c 0
 243 49 312 50 360 51 c 1
 370 0 l 1
 262 0 167 0 59 0 c 1
 49 61 l 1
285 258 m 1
 285 329 l 1
 608 337 l 1
 608 261 l 1
 285 258 l 1
EndSplineSet
Substitution2: "'smcp' Lowercase to Small Capitals in Latin lookup 0-1" A.sc
EndChar

StartChar: B
Encoding: 34 66 19
GlifName: B_
Width: 736
VWidth: 79
Flags: HMW
LayerCount: 2
Back
SplineSet
26 798 m 1
 184 788 262 803 412 803 c 0
 547 803 648 738 649 618 c 0
 650 524 584 417 477 412 c 1
 509 437 l 1
 629 421 697.197265625 332.998046875 696 230 c 0
 694 58 537 0 376 0 c 0
 307.9921875 0 116 0 42 0 c 1
 32 61 l 1
 111 51 142 77 144 127 c 0
 153 342 156 468 148 628 c 0
 145 686 128 742 36 735 c 1
 26 798 l 1
257 375 m 1
 256 275 259 207 269 133 c 0
 276 75 341 71 394 71 c 0
 507 72 573 119 573 219 c 0
 573 306 501 383 396 386 c 0
 353 387 292 382 257 375 c 1
259 450 m 1
 455 426 524 530 526 587 c 0
 529 677 459 742 381 744 c 0
 335 745 291 739 268 730 c 1
 260 653 260 548 259 450 c 1
EndSplineSet
Fore
SplineSet
26 798 m 1
 184 788 262 803 412 803 c 0
 547 803 648 738 649 618 c 0
 650 524 584 417 477 412 c 1
 509 437 l 1
 629 421 697.197265625 332.998046875 696 230 c 0
 694 58 537 0 376 0 c 0
 307.9921875 0 116 0 42 0 c 1
 32 61 l 1
 111 51 142 77 144 127 c 0
 153 342 156 468 148 628 c 0
 145 686 128 742 36 735 c 1
 26 798 l 1
257 375 m 1
 256 275 259 207 269 133 c 0
 276 75 341 71 394 71 c 0
 507 72 573 119 573 219 c 0
 573 306 501 383 396 386 c 0
 353 387 292 382 257 375 c 1
259 450 m 1
 455 426 524 530 526 587 c 0
 529 677 459 742 381 744 c 0
 335 745 291 739 268 730 c 1
 260 653 260 548 259 450 c 1
EndSplineSet
Substitution2: "'smcp' Lowercase to Small Capitals in Latin lookup 0-1" B.sc
EndChar

StartChar: W
Encoding: 55 87 20
GlifName: W_
Width: 1231
VWidth: 79
Flags: HMW
LayerCount: 2
Back
SplineSet
-15 800 m 1
 101 796 233 793 321 800 c 1
 331 736 l 1
 260 747 209 735 225 676 c 0
 259 551 333 370 376 225 c 0
 384 192 399 135 407 100 c 1
 467 301 559 592 574 655 c 1
 674 664 l 1
 581 430 512 188 457 8 c 1
 418 2 370 -10 331 -23 c 1
 270 181 201 390 101 650 c 0
 84 696 63 748 -5 736 c 1
 -15 800 l 1
459 800 m 1
 571 800 683 800 795 800 c 1
 805 736 l 1
 734 747 683 735 699 676 c 0
 733 551 799 370 842 225 c 0
 850 192 865 135 873 100 c 1
 933 301 1024 592 1039 655 c 0
 1060 751 985 750 937 749 c 1
 927 800 l 1
 1035 800 1143 800 1251 800 c 1
 1261 739 l 1
 1180 748 1158 714 1139 664 c 0
 1046 430 978 188 923 8 c 1
 884 2 836 -10 797 -23 c 1
 736 181 675 390 575 650 c 0
 558 696 537 757 469 745 c 1
 459 800 l 1
EndSplineSet
Fore
SplineSet
-15 800 m 1
 101 796 233 793 321 800 c 1
 331 736 l 1
 260 747 209 735 225 676 c 0
 259 551 333 370 376 225 c 0
 384 192 399 135 407 100 c 1
 467 301 559 592 574 655 c 1
 674 664 l 1
 581 430 512 188 457 8 c 1
 418 2 370 -10 331 -23 c 1
 270 181 201 390 101 650 c 0
 84 696 63 748 -5 736 c 1
 -15 800 l 1
459 800 m 1
 571 800 683 800 795 800 c 1
 805 736 l 1
 734 747 683 735 699 676 c 0
 733 551 799 370 842 225 c 0
 850 192 865 135 873 100 c 1
 933 301 1024 592 1039 655 c 0
 1060 751 985 750 937 749 c 1
 927 800 l 1
 1035 800 1143 800 1251 800 c 1
 1261 739 l 1
 1180 748 1158 714 1139 664 c 0
 1046 430 978 188 923 8 c 1
 884 2 836 -10 797 -23 c 1
 736 181 675 390 575 650 c 0
 558 696 537 757 469 745 c 1
 459 800 l 1
EndSplineSet
Substitution2: "'smcp' Lowercase to Small Capitals in Latin lookup 0-1" W.sc
EndChar

StartChar: c
Encoding: 67 99 21
GlifName: c
Width: 591
VWidth: 79
Flags: HMW
AnchorPoint: "bottom" 322 -21 basechar 0
AnchorPoint: "top" 350 611 basechar 0
LayerCount: 2
Back
SplineSet
349 611 m 1024,20,21
53 230 m 0,0,1
 42.3232421875 394.091796875 137 603 380 610 c 0,2,3
 477.958984375 612.822265625 541 581 541 581 c 1,4,5
 543 543 543 473 536 428 c 1,6,-1
 476 434 l 1,7,8
 455 477 436 516 387 550 c 1,9,-1
 458 497 l 1,10,11
 426 512 383.541992188 561.838867188 312 544 c 0,12,13
 235.0859375 524.821289062 184.849609375 406.001953125 188 274 c 4,14,15
 191.173677407 141.02232636 259 55 373 53 c 0,16,17
 437.998046875 51.859375 497 77 534 112 c 1,18,-1
 558 77 l 1,19,20
 502 14 428 -21 334 -21 c 0,21,22
 185 -21 64.7490234375 49.42578125 53 230 c 0,0,1
EndSplineSet
Fore
SplineSet
349 611 m 1024,20,21
53 230 m 0,0,1
 42.3232421875 394.091796875 137 603 380 610 c 0,2,3
 477.958984375 612.822265625 541 581 541 581 c 1,4,5
 543 543 543 473 536 428 c 1,6,-1
 476 434 l 1,7,8
 455 477 436 516 387 550 c 1,9,-1
 458 497 l 1,10,11
 426 512 383.541992188 561.838867188 312 544 c 0,12,13
 235.0859375 524.821289062 184.849609375 406.001953125 188 274 c 4,14,15
 191.173677407 141.02232636 259 55 373 53 c 0,16,17
 437.998046875 51.859375 497 77 534 112 c 1,18,-1
 558 77 l 1,19,20
 502 14 428 -21 334 -21 c 0,21,22
 185 -21 64.7490234375 49.42578125 53 230 c 0,0,1
EndSplineSet
EndChar

StartChar: w
Encoding: 87 119 22
GlifName: w
Width: 1006
VWidth: 79
Flags: HMW
LayerCount: 2
Back
SplineSet
-7 596 m 1
 113 587 189 589 295 596 c 1
 309 542 l 1
 253 546 196.87761979 538.260363788 220 460 c 0
 248.87761979 362.260363788 273.789067863 291.650588273 300 197 c 0
 309.789067863 161.650588273 325 74 325 74 c 1
 357 146 428 293 492 459 c 1
 573 456 l 1
 504 279 399 71 362 -9 c 9
 258 -26 l 1
 219 86 175.907934602 224.341452022 98 462 c 0
 76.907934602 526.341452022 48 533 1 532 c 1
 -7 596 l 1
378 596 m 1
 489 592 566 594 660 596 c 1
 670 542 l 1
 609 546 586.989621205 524.481203338 604 460 c 0
 629.989621205 361.481203338 651.789067863 291.650588273 678 197 c 4
 687.789067863 161.650588273 702 77 702 77 c 1
 734 149 781.27518447 293.982354823 838 459 c 0
 858.27518447 517.982354823 817 536 749 533 c 1
 740 596 l 1
 837 590 906 590 1000 596 c 1
 1011 538 l 1
 951 536 943 508 923 456 c 0
 854 279 783 71 746 -9 c 9
 642 -26 l 1
 608 86 551.921094974 244.702052747 483 482 c 0
 472.921094974 516.702052747 443 538 396 532 c 1
 378 596 l 1
EndSplineSet
Fore
SplineSet
-7 596 m 1
 113 587 189 589 295 596 c 1
 309 542 l 1
 253 546 196.87761979 538.260363788 220 460 c 0
 248.87761979 362.260363788 273.789067863 291.650588273 300 197 c 0
 309.789067863 161.650588273 325 74 325 74 c 1
 357 146 428 293 492 459 c 1
 573 456 l 1
 504 279 399 71 362 -9 c 9
 258 -26 l 1
 219 86 175.907934602 224.341452022 98 462 c 0
 76.907934602 526.341452022 48 533 1 532 c 1
 -7 596 l 1
378 596 m 1
 489 592 566 594 660 596 c 1
 670 542 l 1
 609 546 586.989621205 524.481203338 604 460 c 0
 629.989621205 361.481203338 651.789067863 291.650588273 678 197 c 4
 687.789067863 161.650588273 702 77 702 77 c 1
 734 149 781.27518447 293.982354823 838 459 c 0
 858.27518447 517.982354823 817 536 749 533 c 1
 740 596 l 1
 837 590 906 590 1000 596 c 1
 1011 538 l 1
 951 536 943 508 923 456 c 0
 854 279 783 71 746 -9 c 9
 642 -26 l 1
 608 86 551.921094974 244.702052747 483 482 c 0
 472.921094974 516.702052747 443 538 396 532 c 1
 378 596 l 1
EndSplineSet
EndChar

StartChar: V
Encoding: 54 86 23
GlifName: V_
Width: 826
VWidth: 79
Flags: HMW
LayerCount: 2
Back
SplineSet
-5 799 m 1
 107 794 249 793 331 799 c 1
 341 735 l 1
 270 746 219 734 235 675 c 0
 269 556 340 384 383 245 c 0
 391 206 409 127 417 86 c 5
 487 277 606 591 621 654 c 0
 642 750 560 749 512 748 c 1
 502 799 l 1
 613 795 723 790 826 799 c 1
 836 738 l 1
 755 747 733 713 714 663 c 0
 621 429 529 188 474 8 c 1
 435 2 387 -10 348 -23 c 1
 287 187 211 401 111 669 c 0
 94 705 73 754 5 744 c 1
 -5 799 l 1
EndSplineSet
Fore
SplineSet
-5 799 m 1
 107 794 249 793 331 799 c 1
 341 735 l 1
 270 746 219 734 235 675 c 0
 269 556 340 384 383 245 c 0
 391 206 409 127 417 86 c 5
 487 277 606 591 621 654 c 0
 642 750 560 749 512 748 c 1
 502 799 l 1
 613 795 723 790 826 799 c 1
 836 738 l 1
 755 747 733 713 714 663 c 0
 621 429 529 188 474 8 c 1
 435 2 387 -10 348 -23 c 1
 287 187 211 401 111 669 c 0
 94 705 73 754 5 744 c 1
 -5 799 l 1
EndSplineSet
Substitution2: "'smcp' Lowercase to Small Capitals in Latin lookup 0-1" V.sc
EndChar

StartChar: C
Encoding: 35 67 24
GlifName: C_
Width: 748
VWidth: 79
Flags: HMW
LayerCount: 2
Back
SplineSet
48 303 m 0
 33.392578125 561.762695312 194.696289062 785.04296875 496 801 c 0
 630.08203125 808.1015625 704 776 704 776 c 1
 707 725 703 595 693 553 c 1
 634 556 l 1
 602 644 531 745 485 752 c 1
 499 773 669 742 616 647 c 1
 599 651 558 720 435 720 c 0
 277 720 185.268554688 571.004882812 189 369 c 0
 192.306640625 190.005859375 269.998046875 70.201171875 454 72 c 0
 553 72.9677734375 630 111 681 159 c 1
 721 116 l 1
 650 28 539 -17 397 -17 c 0
 193 -17 59.6785672251 96.1204042426 48 303 c 0
EndSplineSet
Fore
SplineSet
48 303 m 0
 33.392578125 561.762695312 194.696289062 785.04296875 496 801 c 0
 630.08203125 808.1015625 704 776 704 776 c 1
 707 725 703 595 693 553 c 1
 634 556 l 1
 602 644 531 745 485 752 c 1
 499 773 669 742 616 647 c 1
 599 651 558 720 435 720 c 0
 277 720 185.268554688 571.004882812 189 369 c 0
 192.306640625 190.005859375 269.998046875 70.201171875 454 72 c 0
 553 72.9677734375 630 111 681 159 c 1
 721 116 l 1
 650 28 539 -17 397 -17 c 0
 193 -17 59.6785672251 96.1204042426 48 303 c 0
EndSplineSet
Substitution2: "'smcp' Lowercase to Small Capitals in Latin lookup 0-1" C.sc
EndChar

StartChar: q
Encoding: 81 113 25
GlifName: q
Width: 682
VWidth: 79
Flags: HMW
LayerCount: 2
Back
SplineSet
45 261 m 0
 51 433 134 615 364 617 c 0
 462 618 532 600 575 583 c 1
 503 453 l 1
 503 453 438 574 321 553 c 0
 239 538 170 439 169 256 c 0
 168 119 240 70 302 71 c 0
 359 72 429 117 465 201 c 1
 499 160 l 1
 451 47 346 -8 261 -8 c 0
 116 -8 39 90 45 261 c 0
333 -156 m 1
 345 -157 356 -158 366 -158 c 0
 421 -158 450 -137 453 -88 c 1
 572 -69 l 1
 572 -80 l 2
 572 -156 611 -170 659 -170 c 6
 667 -170 l 5
 677 -218 l 5
 341 -218 l 1
 333 -156 l 1
374 602 m 1
 575 583 l 1
 561 479 567 22 573 -102 c 0
 575 -149 518 -162 590 -161 c 1
 655 -185 l 5
 572 -183 439 -205 439 -205 c 1
 469 -37 463 386 459 443 c 0
 453 525 465 570 387 558 c 1
 374 602 l 1
EndSplineSet
Fore
SplineSet
45 261 m 0
 51 433 134 615 364 617 c 0
 462 618 532 600 575 583 c 1
 503 453 l 1
 503 453 438 574 321 553 c 0
 239 538 170 439 169 256 c 0
 168 119 240 70 302 71 c 0
 359 72 429 117 465 201 c 1
 499 160 l 1
 451 47 346 -8 261 -8 c 0
 116 -8 39 90 45 261 c 0
333 -156 m 1
 345 -157 356 -158 366 -158 c 0
 421 -158 450 -137 453 -88 c 1
 572 -69 l 1
 572 -80 l 2
 572 -156 611 -170 659 -170 c 6
 667 -170 l 5
 677 -218 l 5
 341 -218 l 1
 333 -156 l 1
374 602 m 1
 575 583 l 1
 561 479 567 22 573 -102 c 0
 575 -149 518 -162 590 -161 c 1
 655 -185 l 5
 572 -183 439 -205 439 -205 c 1
 469 -37 463 386 459 443 c 0
 453 525 465 570 387 558 c 1
 374 602 l 1
EndSplineSet
EndChar

StartChar: f
Encoding: 70 102 26
GlifName: f
Width: 478
VWidth: 79
Flags: HMW
LayerCount: 2
Back
SplineSet
11 61 m 1
 87 57 119 78 123 136 c 1
 241 152 l 1
 239 57 331 53 359 54 c 1
 369 0 l 1
 18 0 l 1
 11 61 l 1
29 588 m 1
 170.5078125 583.043945312 252.553710938 582.5 384 588 c 1
 397 522 l 1
 205 503.526367188 l 1
 120 439.640625 l 1
 118.805664062 506.45703125 117.041015625 529.84765625 39 520 c 1
 29 588 l 1
121 623 m 0
 124.348632812 850.875976562 279.700195312 908.90234375 398 908 c 0
 463.017578125 907.50390625 526 886 526 886 c 1
 526.15234375 830.548828125 504.224075266 758.377514403 483 718 c 1
 442.314453125 780.97265625 381.509765625 857.119140625 308 849 c 0
 263.293945312 844.0625 232.89453125 800.879882812 231 671 c 0
 228.411132812 493.54296875 230.344726562 251.282226562 246 112 c 1
 174 126 l 1
 122 117 l 1
 124.468526886 250.300451856 121.765803661 368.466021336 118.300379639 520 c 1
 117.957548713 534.991104657 120.607421875 550.30859375 120.25390625 566 c 1
 119.837890625 584.458007812 120.712411744 603.429489181 121 623 c 0
EndSplineSet
Fore
SplineSet
11 61 m 1
 87 57 119 78 123 136 c 1
 241 152 l 1
 239 57 331 53 359 54 c 1
 369 0 l 1
 18 0 l 1
 11 61 l 1
29 588 m 1
 170.5078125 583.043945312 252.553710938 582.5 384 588 c 1
 397 522 l 1
 205 503.526367188 l 1
 120 439.640625 l 1
 118.805664062 506.45703125 117.041015625 529.84765625 39 520 c 1
 29 588 l 1
121 623 m 0
 124.348632812 850.875976562 279.700195312 908.90234375 398 908 c 0
 463.017578125 907.50390625 526 886 526 886 c 1
 526.15234375 830.548828125 504.224075266 758.377514403 483 718 c 1
 442.314453125 780.97265625 381.509765625 857.119140625 308 849 c 0
 263.293945312 844.0625 232.89453125 800.879882812 231 671 c 0
 228.411132812 493.54296875 230.344726562 251.282226562 246 112 c 1
 174 126 l 1
 122 117 l 1
 124.468526886 250.300451856 121.765803661 368.466021336 118.300379639 520 c 1
 117.957548713 534.991104657 120.607421875 550.30859375 120.25390625 566 c 1
 119.837890625 584.458007812 120.712411744 603.429489181 121 623 c 0
EndSplineSet
EndChar

StartChar: y
Encoding: 89 121 30
GlifName: y
Width: 665
VWidth: 79
Flags: HMW
AnchorPoint: "top" 346 613 basechar 0
LayerCount: 2
Back
SplineSet
-2 596 m 1
 112 591 206 593 320 596 c 1
 334 542 l 1
 258 536 207.989621205 524.481203338 225 460 c 0
 250.989621205 361.481203338 278 297 309 202 c 0
 320 167 338 66 338 66 c 1
 375 138 458 353 492 459 c 0
 510 518 472 536 404 533 c 1
 395 596 l 1
 492 590 568 592 665 596 c 1
 676 538 l 1
 606 536 600 507 578 456 c 0
 502 279 427 96 390 16 c 1
 361 13 297 -4 263 -8 c 1
 224 104 180.907934602 224.341452022 103 462 c 0
 81.907934602 526.341452022 53 539 6 538 c 1
 -2 596 l 1
53 -143 m 5
 246 -167 290 -43 334 52 c 13
 405 50 l 21
 379 -9 343 -106 309 -158 c 4
 256 -240 158 -267 73 -263 c 5
 35 -231 42 -163 53 -143 c 5
EndSplineSet
Fore
SplineSet
-2 596 m 1
 112 591 206 593 320 596 c 1
 334 542 l 1
 258 536 207.989621205 524.481203338 225 460 c 0
 250.989621205 361.481203338 278 297 309 202 c 0
 320 167 338 66 338 66 c 1
 375 138 458 353 492 459 c 0
 510 518 472 536 404 533 c 1
 395 596 l 1
 492 590 568 592 665 596 c 1
 676 538 l 1
 606 536 600 507 578 456 c 0
 502 279 427 96 390 16 c 1
 361 13 297 -4 263 -8 c 1
 224 104 180.907934602 224.341452022 103 462 c 0
 81.907934602 526.341452022 53 539 6 538 c 1
 -2 596 l 1
53 -143 m 5
 246 -167 290 -43 334 52 c 13
 405 50 l 21
 379 -9 343 -106 309 -158 c 4
 256 -240 158 -267 73 -263 c 5
 35 -231 42 -163 53 -143 c 5
EndSplineSet
EndChar

StartChar: l
Encoding: 76 108 31
Width: 412
VWidth: 79
Flags: HMW
LayerCount: 2
Back
SplineSet
38 61 m 1
 114 57 147 89 154 137 c 1
 272 146 l 1
 270 51 346 50 364 51 c 1
 374 0 l 1
 48 0 l 1
 38 61 l 1
39 829 m 1
 122 827 296 850 296 850 c 1
 271 637 268 208 272 145 c 0
 275 101 254 49 336 49 c 1
 320 1 l 1
 125 0 l 1
 125 0 145 72 153 136 c 0
 163 271 164 529 159 719 c 0
 154 763 124 766 46 766 c 1
 39 829 l 1
EndSplineSet
Fore
SplineSet
38 61 m 1
 114 57 147 89 154 137 c 1
 272 146 l 1
 270 51 346 50 364 51 c 1
 374 0 l 1
 48 0 l 1
 38 61 l 1
39 829 m 1
 122 827 296 850 296 850 c 1
 271 637 268 208 272 145 c 0
 275 101 254 49 336 49 c 1
 320 1 l 1
 125 0 l 1
 125 0 145 72 153 136 c 0
 163 271 164 529 159 719 c 0
 154 763 124 766 46 766 c 1
 39 829 l 1
EndSplineSet
EndChar

StartChar: u
Encoding: 85 117 34
Width: 728
VWidth: 79
Flags: HMW
AnchorPoint: "top" 340 611 basechar 0
LayerCount: 2
Back
SplineSet
-4 596 m 1
 88 591 169 599 239 608 c 1
 222 521 215 401 215 295 c 0
 215 251 217 211 221 181 c 0
 230 118 275 85 334 85 c 0
 435 85 503 181 503 181 c 1
 528 144 l 1
 479 76 369 -14 262 -14 c 0
 186 -14 128 23 114 117 c 0
 111 139 109 180 109 225 c 0
 109 296 113 383 116 459 c 0
 119 530 32 534 2 532 c 1
 -4 596 l 1
376 598 m 1
 449 593 568 600 625 610 c 1
 615 468 l 1
 500 455 l 1
 505 542 422 540 384 538 c 1
 376 598 l 1
496 120 m 1
 498 161 498 203 498 247 c 0
 498 271 498 294 498 319 c 0
 498 405 499 488 509 588 c 1
 624 600 l 1
 613 456 607 312 607 220 c 0
 607 115 599 59 711 56 c 1
 720 0 l 1
 502 0 l 1
 502 0 509 102 515 128 c 1
 515 137 517 141 514 141 c 0
 507 141 496 120 496 120 c 1
EndSplineSet
Fore
SplineSet
-4 596 m 1
 88 591 169 599 239 608 c 1
 222 521 215 401 215 295 c 0
 215 251 217 211 221 181 c 0
 230 118 275 85 334 85 c 0
 435 85 503 181 503 181 c 1
 528 144 l 1
 479 76 369 -14 262 -14 c 0
 186 -14 128 23 114 117 c 0
 111 139 109 180 109 225 c 0
 109 296 113 383 116 459 c 0
 119 530 32 534 2 532 c 1
 -4 596 l 1
376 598 m 1
 449 593 568 600 625 610 c 1
 615 468 l 1
 500 455 l 1
 505 542 422 540 384 538 c 1
 376 598 l 1
496 120 m 1
 498 161 498 203 498 247 c 0
 498 271 498 294 498 319 c 0
 498 405 499 488 509 588 c 1
 624 600 l 1
 613 456 607 312 607 220 c 0
 607 115 599 59 711 56 c 1
 720 0 l 1
 502 0 l 1
 502 0 509 102 515 128 c 1
 515 137 517 141 514 141 c 0
 507 141 496 120 496 120 c 1
EndSplineSet
EndChar

StartChar: k
Encoding: 75 107 35
Width: 738
VWidth: 79
Flags: HMW
LayerCount: 2
Back
SplineSet
42 61 m 1
 118 57 153 89 160 137 c 1
 268 146 l 1
 266 51 330 50 348 51 c 1
 358 0 l 1
 52 0 l 1
 42 61 l 1
43 829 m 1
 126 827 292 850 292 850 c 1
 267 637 264 208 268 145 c 0
 271 101 238 49 320 49 c 1
 304 1 l 1
 129 0 l 1
 129 0 151 72 159 136 c 0
 169 271 168 529 163 719 c 0
 158 763 128 766 50 766 c 1
 43 829 l 1
249 307 m 1
 263 369 l 1
 291 365 314 359 341 359 c 1
 361 369 428 434 471 497 c 4
 485 518 491 544 413 541 c 5
 394 594 l 5
 471 588 558 590 655 594 c 5
 668 546 l 5
 638 544 620 528 589 498 c 4
 518 429 451 341 420 314 c 5
 389 307 301 307 249 307 c 1
308 341 m 1
 337 334 389 347 423 357 c 5
 417.178710938 343.541992188 555.897460938 53.763671875 716 65 c 5
 728 14 l 5
 664 -7 625.956054688 -9.6650390625 572 -6 c 4
 480.795898438 0.1943359375 344.147460938 266.52734375 308 341 c 1
EndSplineSet
Fore
SplineSet
42 61 m 1
 118 57 153 89 160 137 c 1
 268 146 l 1
 266 51 330 50 348 51 c 1
 358 0 l 1
 52 0 l 1
 42 61 l 1
43 829 m 1
 126 827 292 850 292 850 c 1
 267 637 264 208 268 145 c 0
 271 101 238 49 320 49 c 1
 304 1 l 1
 129 0 l 1
 129 0 151 72 159 136 c 0
 169 271 168 529 163 719 c 0
 158 763 128 766 50 766 c 1
 43 829 l 1
249 307 m 1
 263 369 l 1
 291 365 314 359 341 359 c 1
 361 369 428 434 471 497 c 4
 485 518 491 544 413 541 c 5
 394 594 l 5
 471 588 558 590 655 594 c 5
 668 546 l 5
 638 544 620 528 589 498 c 4
 518 429 451 341 420 314 c 5
 389 307 301 307 249 307 c 1
308 341 m 1
 337 334 389 347 423 357 c 5
 417.178710938 343.541992188 555.897460938 53.763671875 716 65 c 5
 728 14 l 5
 664 -7 625.956054688 -9.6650390625 572 -6 c 4
 480.795898438 0.1943359375 344.147460938 266.52734375 308 341 c 1
EndSplineSet
EndChar

StartChar: j
Encoding: 74 106 36
Width: 366
VWidth: 79
Flags: HMW
LayerCount: 2
Back
SplineSet
-51 -240 m 1
 -28 -189 l 1
 68 -213 140 -151 154 -3 c 1
 261 -8 l 1
 263 -184 196 -263 69 -264 c 0
 14 -265 -37 -248 -51 -240 c 1
31 584 m 1
 114 582 271 595 271 595 c 1
 261 540 260 67 261 -20 c 1
 154 -10 l 1
 169 190 157 386 150 448 c 0
 145 493 109 523 37 523 c 1
 31 584 l 1
121 770 m 4
 121 812 155 840 196 840 c 4
 246 840 271 801 271 759 c 4
 271 717 237 689 196 689 c 4
 155 689 121 728 121 770 c 4
121 770 m 4
 121 812 155 840 196 840 c 4
 246 840 271 801 271 759 c 4
 271 717 237 689 196 689 c 4
 155 689 121 728 121 770 c 4
EndSplineSet
Fore
SplineSet
-51 -240 m 1
 -28 -189 l 1
 68 -213 140 -151 154 -3 c 1
 261 -8 l 1
 263 -184 196 -263 69 -264 c 0
 14 -265 -37 -248 -51 -240 c 1
31 584 m 1
 114 582 271 595 271 595 c 1
 261 540 260 67 261 -20 c 1
 154 -10 l 1
 169 190 157 386 150 448 c 0
 145 493 109 523 37 523 c 1
 31 584 l 1
121 770 m 4
 121 812 155 840 196 840 c 4
 246 840 271 801 271 759 c 4
 271 717 237 689 196 689 c 4
 155 689 121 728 121 770 c 4
121 770 m 4
 121 812 155 840 196 840 c 4
 246 840 271 801 271 759 c 4
 271 717 237 689 196 689 c 4
 155 689 121 728 121 770 c 4
EndSplineSet
EndChar

StartChar: comma
Encoding: 12 44 37
Width: 268
VWidth: 79
Flags: HMW
LayerCount: 2
Back
SplineSet
93.1708984375 130.06640625 m 5
 94.84765625 31.1748046875 71.216796875 -90.5927734375 46.705078125 -156.932617188 c 4
 111.69140625 -186.944335938 l 0
 157.313476562 -132.368164062 223.26171875 15.0419921875 224.772460938 120.734375 c 5
 191.956054688 130.088867188 131.510742188 134.654296875 93.1708984375 130.06640625 c 5
EndSplineSet
Fore
SplineSet
93.1708984375 130.06640625 m 5
 94.84765625 31.1748046875 71.216796875 -90.5927734375 46.705078125 -156.932617188 c 4
 111.69140625 -186.944335938 l 0
 157.313476562 -132.368164062 223.26171875 15.0419921875 224.772460938 120.734375 c 5
 191.956054688 130.088867188 131.510742188 134.654296875 93.1708984375 130.06640625 c 5
EndSplineSet
EndChar

StartChar: acute
Encoding: 113 180 43
Width: 0
VWidth: 0
Flags: HMW
AnchorPoint: "top" 1 612 mark 0
LayerCount: 2
Back
SplineSet
-137 717 m 9
 -117 663 l 17
 1 698 88 745 151 781 c 9
 91 875 l 17
 48 819 -65 749 -137 717 c 9
EndSplineSet
Fore
SplineSet
-137 717 m 9
 -117 663 l 17
 1 698 88 745 151 781 c 9
 91 875 l 17
 48 819 -65 749 -137 717 c 9
EndSplineSet
EndChar

StartChar: x
Encoding: 88 120 50
Width: 643
VWidth: 79
Flags: HMW
LayerCount: 2
Back
SplineSet
7 54 m 5
 59.7641509434 52.9642857143 98.2039343117 77.2661922267 126 112 c 4
 156.424518402 150.018307541 236.812096866 257.208333105 279 317 c 5
 303 324 l 5
 343.782666964 378.333333333 390.711101971 438.750236332 419 487 c 4
 433.452451916 511.65021397 424 538.161290323 370 539 c 5
 359 599 l 5
 437.012875536 593 538.536480687 593 608 598 c 5
 616 544 l 5
 561.164740867 541 538.795632542 510.240452468 499 465 c 4
 449.842171936 409.116420775 394.777777778 328.368421053 365 288 c 5
 352 280 l 5
 312 237.086419753 261.725813085 173.224426839 229 122 c 4
 206.3411977 86.5330688145 205.565149137 47 277 50 c 5
 289 -2 l 5
 19 -2 l 5
 7 54 l 5
12 598 m 5
 110.147058824 592 218.735294118 592 296 597 c 5
 310 542 l 5
 253.28358209 540.896551724 233.908019595 519.086101924 260 478 c 4
 281.691806024 443.842694216 327.542056075 375 359 330 c 5
 372 322 l 5
 406.21672031 275.86021608 475.561775584 186.462625309 533.462890625 117 c 4
 570.860320588 72.1351703118 601.491080218 59.0687345211 634 58 c 5
 646 -2 l 5
 346 -2 l 5
 337 53 l 5
 392 51.9638554217 432.925101582 66.4628780724 397 116 c 4
 362.455816652 163.6329738 305.710280374 236.553333333 265 285 c 5
 264 284 l 5
 223.182539683 335.548387097 174.289791509 403.082359439 125 472 c 4
 84.2716014273 528.946987348 58.7556475904 541 20 540 c 5
 12 598 l 5
EndSplineSet
Fore
SplineSet
7 54 m 5
 59.7641509434 52.9642857143 98.2039343117 77.2661922267 126 112 c 4
 156.424518402 150.018307541 236.812096866 257.208333105 279 317 c 5
 303 324 l 5
 343.782666964 378.333333333 390.711101971 438.750236332 419 487 c 4
 433.452451916 511.65021397 424 538.161290323 370 539 c 5
 359 599 l 5
 437.012875536 593 538.536480687 593 608 598 c 5
 616 544 l 5
 561.164740867 541 538.795632542 510.240452468 499 465 c 4
 449.842171936 409.116420775 394.777777778 328.368421053 365 288 c 5
 352 280 l 5
 312 237.086419753 261.725813085 173.224426839 229 122 c 4
 206.3411977 86.5330688145 205.565149137 47 277 50 c 5
 289 -2 l 5
 19 -2 l 5
 7 54 l 5
12 598 m 5
 110.147058824 592 218.735294118 592 296 597 c 5
 310 542 l 5
 253.28358209 540.896551724 233.908019595 519.086101924 260 478 c 4
 281.691806024 443.842694216 327.542056075 375 359 330 c 5
 372 322 l 5
 406.21672031 275.86021608 475.561775584 186.462625309 533.462890625 117 c 4
 570.860320588 72.1351703118 601.491080218 59.0687345211 634 58 c 5
 646 -2 l 5
 346 -2 l 5
 337 53 l 5
 392 51.9638554217 432.925101582 66.4628780724 397 116 c 4
 362.455816652 163.6329738 305.710280374 236.553333333 265 285 c 5
 264 284 l 5
 223.182539683 335.548387097 174.289791509 403.082359439 125 472 c 4
 84.2716014273 528.946987348 58.7556475904 541 20 540 c 5
 12 598 l 5
EndSplineSet
EndChar

StartChar: dieresis
Encoding: 102 168 51
Width: 0
VWidth: 0
Flags: HMW
AnchorPoint: "top" 1 612 mark 0
LayerCount: 2
Back
SplineSet
32.2705078125 754.719726562 m 4
 32.2705078125 789.6875 60.2421875 817.662109375 95.2119140625 817.662109375 c 4
 130.177734375 817.662109375 158.153320312 789.6875 158.153320312 754.719726562 c 4
 158.153320312 719.751953125 130.177734375 691.77734375 95.2119140625 691.77734375 c 4
 60.2421875 691.77734375 32.2705078125 719.751953125 32.2705078125 754.719726562 c 4
-160.624023438 757.119140625 m 4
 -160.624023438 792.0859375 -132.6484375 816.24609375 -97.6796875 816.24609375 c 4
 -62.7138671875 816.24609375 -34.1025390625 788.271484375 -34.1025390625 753.3046875 c 4
 -34.1025390625 718.334960938 -62.0771484375 694.177734375 -97.044921875 694.177734375 c 4
 -132.012695312 694.177734375 -160.624023438 722.151367188 -160.624023438 757.119140625 c 4
EndSplineSet
Fore
SplineSet
32.2705078125 754.719726562 m 4
 32.2705078125 789.6875 60.2421875 817.662109375 95.2119140625 817.662109375 c 4
 130.177734375 817.662109375 158.153320312 789.6875 158.153320312 754.719726562 c 4
 158.153320312 719.751953125 130.177734375 691.77734375 95.2119140625 691.77734375 c 4
 60.2421875 691.77734375 32.2705078125 719.751953125 32.2705078125 754.719726562 c 4
-160.624023438 757.119140625 m 4
 -160.624023438 792.0859375 -132.6484375 816.24609375 -97.6796875 816.24609375 c 4
 -62.7138671875 816.24609375 -34.1025390625 788.271484375 -34.1025390625 753.3046875 c 4
 -34.1025390625 718.334960938 -62.0771484375 694.177734375 -97.044921875 694.177734375 c 4
 -132.012695312 694.177734375 -160.624023438 722.151367188 -160.624023438 757.119140625 c 4
EndSplineSet
EndChar

StartChar: z
Encoding: 90 122 52
Width: 568
VWidth: 79
Flags: HMW
LayerCount: 2
Back
SplineSet
40 0 m 1
 204 0 269 0 524 0 c 1
 537 55 538 118 536 181 c 1
 534 181 487 175 477 175 c 1
 477 125 468.808785363 80.3874413207 454 78 c 4
 379.56657924 66 307.551724138 67 299 67 c 0
 189 68 201.808390483 88.4919737378 241 150 c 0
 261.066017602 181.491973738 484.58655182 491 540 546 c 1
 534 598 l 1
 460.944680851 593 223.021276596 588 70 598 c 1
 65 542 63 471 68 418 c 1
 129 424 l 1
 127 444 137 503 148 521 c 1
 196 529 327 534 383 525 c 1
 341.763688761 453.386609071 140.610951009 166.933045356 34 58 c 1
 40 0 l 1
EndSplineSet
Fore
SplineSet
40 0 m 1
 204 0 269 0 524 0 c 1
 537 55 538 118 536 181 c 1
 534 181 487 175 477 175 c 1
 477 125 468.808785363 80.3874413207 454 78 c 4
 379.56657924 66 307.551724138 67 299 67 c 0
 189 68 201.808390483 88.4919737378 241 150 c 0
 261.066017602 181.491973738 484.58655182 491 540 546 c 1
 534 598 l 1
 460.944680851 593 223.021276596 588 70 598 c 1
 65 542 63 471 68 418 c 1
 129 424 l 1
 127 444 137 503 148 521 c 1
 196 529 327 534 383 525 c 1
 341.763688761 453.386609071 140.610951009 166.933045356 34 58 c 1
 40 0 l 1
EndSplineSet
EndChar

StartChar: E
Encoding: 37 69 54
Width: 679
VWidth: 79
Flags: HMW
AnchorPoint: "top" 338 801 basechar 0
LayerCount: 2
Back
SplineSet
130 663 m 0
 127.384765625 711.381835938 113 743 37 739 c 1
 31 800 l 1
 107 794 253 795 336 795 c 0
 422 795 531 796 628 801 c 1
 628 801 631 744 631 720 c 24
 631 661 622 588 622 588 c 1
 550 596 l 1
 543 655 518 732 475 771 c 1
 570 722 l 1
 489 730 413 733 314 733 c 0
 264 733 252 703 249 673 c 0
 228.733398438 470.333984375 234.42578125 258.495117188 239 135 c 0
 240 108 245 77 281 73 c 0
 370.895507812 63.01171875 489 78 540 91 c 1
 462 29 l 1
 505 78 528 125 543 204 c 1
 615 212 l 1
 615.223632812 206.556640625 617 85.775390625 611 0 c 1
 420 0 229 0 38 0 c 1
 30 58 l 1
 107 66 120.228515625 92.3095703125 124 141 c 0
 135 283 139.446289062 488.251953125 130 663 c 0
174 367 m 1
 174 443 l 1
 374 444 l 1
 518 461 l 1
 518 370 l 1
 393 377 299 369 174 367 c 1
EndSplineSet
Fore
SplineSet
130 663 m 0
 127.384765625 711.381835938 113 743 37 739 c 1
 31 800 l 1
 107 794 253 795 336 795 c 0
 422 795 531 796 628 801 c 1
 628 801 631 744 631 720 c 24
 631 661 622 588 622 588 c 1
 550 596 l 1
 543 655 518 732 475 771 c 1
 570 722 l 1
 489 730 413 733 314 733 c 0
 264 733 252 703 249 673 c 0
 228.733398438 470.333984375 234.42578125 258.495117188 239 135 c 0
 240 108 245 77 281 73 c 0
 370.895507812 63.01171875 489 78 540 91 c 1
 462 29 l 1
 505 78 528 125 543 204 c 1
 615 212 l 1
 615.223632812 206.556640625 617 85.775390625 611 0 c 1
 420 0 229 0 38 0 c 1
 30 58 l 1
 107 66 120.228515625 92.3095703125 124 141 c 0
 135 283 139.446289062 488.251953125 130 663 c 0
174 367 m 1
 174 443 l 1
 374 444 l 1
 518 461 l 1
 518 370 l 1
 393 377 299 369 174 367 c 1
EndSplineSet
Substitution2: "'smcp' Lowercase to Small Capitals in Latin lookup 0-1" E.sc
EndChar

StartChar: F
Encoding: 38 70 55
Width: 667
VWidth: 79
Flags: HMW
LayerCount: 2
Back
SplineSet
8 61 m 1
 91 57 113 89 121 137 c 1
 243 146 l 1
 241 51 343 50 360 51 c 1
 370 0 l 1
 18 0 l 1
 8 61 l 1
27 800 m 1
 103 794 229 794 312 794 c 0
 398 794 527 796 654 801 c 1
 654 801 657 744 657 720 c 24
 657 661 648 588 648 588 c 1
 576 596 l 1
 569 655 544 732 501 771 c 1
 586 721 l 1
 329 728 l 2
 271 729 255 705 252 663 c 0
 236 443 239 202 243 145 c 0
 246 101 263 49 342 49 c 1
 326 1 l 1
 93 0 l 1
 93 0 112 72 120 136 c 0
 130 270 135.46484375 482.385742188 126 663 c 0
 123.46484375 711.385742188 109 743 33 739 c 1
 27 800 l 1
160 369 m 1
 160 443 l 1
 400 444 l 1
 544 461 l 1
 544 362 l 1
 419 369 285 371 160 369 c 1
EndSplineSet
Fore
SplineSet
8 61 m 1
 91 57 113 89 121 137 c 1
 243 146 l 1
 241 51 343 50 360 51 c 1
 370 0 l 1
 18 0 l 1
 8 61 l 1
27 800 m 1
 103 794 229 794 312 794 c 0
 398 794 527 796 654 801 c 1
 654 801 657 744 657 720 c 24
 657 661 648 588 648 588 c 1
 576 596 l 1
 569 655 544 732 501 771 c 1
 586 721 l 1
 329 728 l 2
 271 729 255 705 252 663 c 0
 236 443 239 202 243 145 c 0
 246 101 263 49 342 49 c 1
 326 1 l 1
 93 0 l 1
 93 0 112 72 120 136 c 0
 130 270 135.46484375 482.385742188 126 663 c 0
 123.46484375 711.385742188 109 743 33 739 c 1
 27 800 l 1
160 369 m 1
 160 443 l 1
 400 444 l 1
 544 461 l 1
 544 362 l 1
 419 369 285 371 160 369 c 1
EndSplineSet
Substitution2: "'smcp' Lowercase to Small Capitals in Latin lookup 0-1" F.sc
EndChar

StartChar: P
Encoding: 48 80 56
Width: 670
VWidth: 79
Flags: HMW
LayerCount: 2
Back
SplineSet
27 797 m 1
 165 785 276 802 426 802 c 0
 581 802 639 717 640 607 c 0
 642 438 521 303 363 301 c 0
 312 300 244 314 244 314 c 1
 243 214 247 177 253 123 c 0
 259.45150767 64.9364309676 296 61 349 61 c 1
 362 0 l 1
 294 -1 117 0 43 0 c 1
 33 61 l 1
 112 61 133 83 135 133 c 0
 144 348 147 467 139 627 c 0
 136 685 118 731 32 734 c 5
 27 797 l 1
246 409 m 1
 280 383 324 366 376 367 c 0
 489 368 526 464 527 571 c 0
 528 684 455 744 375 746 c 0
 329 747 275 738 252 729 c 1
 244 652 247 507 246 409 c 1
EndSplineSet
Fore
SplineSet
27 797 m 1
 165 785 276 802 426 802 c 0
 581 802 639 717 640 607 c 0
 642 438 521 303 363 301 c 0
 312 300 244 314 244 314 c 1
 243 214 247 177 253 123 c 0
 259.45150767 64.9364309676 296 61 349 61 c 1
 362 0 l 1
 294 -1 117 0 43 0 c 1
 33 61 l 1
 112 61 133 83 135 133 c 0
 144 348 147 467 139 627 c 0
 136 685 118 731 32 734 c 5
 27 797 l 1
246 409 m 1
 280 383 324 366 376 367 c 0
 489 368 526 464 527 571 c 0
 528 684 455 744 375 746 c 0
 329 747 275 738 252 729 c 1
 244 652 247 507 246 409 c 1
EndSplineSet
Substitution2: "'smcp' Lowercase to Small Capitals in Latin lookup 0-1" P.sc
EndChar

StartChar: S
Encoding: 51 83 57
Width: 646
VWidth: 153
Flags: HMW
LayerCount: 2
Back
SplineSet
74 24 m 5
 69 69 71 149 83 226 c 5
 179 215 l 5
 183 155 197 98 235 54 c 5
 176 68 149 124 138 179 c 5
 175 136 207.40625 63.0537109375 307 54 c 4
 428 43 477.051757812 95.4609375 486 155 c 0
 512 328 150 345 115 554 c 0
 95 680 175 814 376 810 c 0
 496 808 572 781 572 781 c 1
 578 733 575 642 568 598 c 1
 476 609 l 1
 474 657 456 733 429 795 c 2
 499 630 l 1
 480 653 455 754 341 755 c 0
 260 756 222 692 231 623 c 0
 253 452 583.022460938 452.911132812 604 232 c 0
 617.291992188 92.02734375 528 -16 304 -17 c 4
 171.000976562 -17.59375 74 24 74 24 c 5
EndSplineSet
Fore
SplineSet
74 24 m 5
 69 69 71 149 83 226 c 5
 179 215 l 5
 183 155 197 98 235 54 c 5
 176 68 149 124 138 179 c 5
 175 136 207.40625 63.0537109375 307 54 c 4
 428 43 477.051757812 95.4609375 486 155 c 0
 512 328 150 345 115 554 c 0
 95 680 175 814 376 810 c 0
 496 808 572 781 572 781 c 1
 578 733 575 642 568 598 c 1
 476 609 l 1
 474 657 456 733 429 795 c 2
 499 630 l 1
 480 653 455 754 341 755 c 0
 260 756 222 692 231 623 c 0
 253 452 583.022460938 452.911132812 604 232 c 0
 617.291992188 92.02734375 528 -16 304 -17 c 4
 171.000976562 -17.59375 74 24 74 24 c 5
EndSplineSet
Substitution2: "'smcp' Lowercase to Small Capitals in Latin lookup 0-1" S.sc
EndChar

StartChar: U
Encoding: 53 85 58
Width: 767
VWidth: 79
Flags: HMW
AnchorPoint: "top" 378 801 basechar 0
LayerCount: 2
Back
SplineSet
-9 800 m 1
 57 794 75 791 147 792 c 0
 188 792 278 793 339 801 c 1
 339 801 344 755 347 736 c 1
 246 750 220 679 215 612 c 0
 206 484 204 298 208 255 c 0
 218 138 282.870117188 53.642578125 417 65 c 0
 511.917881182 73.0371532239 578.082839218 146.32902485 587 267 c 0
 596 388.791992188 587.44440464 515.368963952 591 641 c 1
 591 642 l 1
 590 733 534 738 464 728 c 1
 461 744 457 790 455 799 c 1
 521 793 569 790 641 791 c 0
 682 791 707 792 768 800 c 1
 768 800 773 754 776 735 c 1
 726 742 678.943516286 716.228586163 676 663 c 0
 666.943516286 499.228586163 674.932065851 346.626536095 666 240 c 0
 650 49 500 -14 371 -14 c 0
 256 -14 92 30 92 235 c 0
 92 359 103 556 99 640 c 0
 95 711 83 740 0 729 c 1
 -3 745 -7 791 -9 800 c 1
EndSplineSet
Fore
SplineSet
-9 800 m 1
 57 794 75 791 147 792 c 0
 188 792 278 793 339 801 c 1
 339 801 344 755 347 736 c 1
 246 750 220 679 215 612 c 0
 206 484 204 298 208 255 c 0
 218 138 282.870117188 53.642578125 417 65 c 0
 511.917881182 73.0371532239 578.082839218 146.32902485 587 267 c 0
 596 388.791992188 587.44440464 515.368963952 591 641 c 1
 591 642 l 1
 590 733 534 738 464 728 c 1
 461 744 457 790 455 799 c 1
 521 793 569 790 641 791 c 0
 682 791 707 792 768 800 c 1
 768 800 773 754 776 735 c 1
 726 742 678.943516286 716.228586163 676 663 c 0
 666.943516286 499.228586163 674.932065851 346.626536095 666 240 c 0
 650 49 500 -14 371 -14 c 0
 256 -14 92 30 92 235 c 0
 92 359 103 556 99 640 c 0
 95 711 83 740 0 729 c 1
 -3 745 -7 791 -9 800 c 1
EndSplineSet
Substitution2: "'smcp' Lowercase to Small Capitals in Latin lookup 0-1" U.sc
EndChar

StartChar: I
Encoding: 41 73 59
Width: 414
VWidth: 79
Flags: HMW
AnchorPoint: "top" 212 801 basechar 0
LayerCount: 2
Back
SplineSet
10 800 m 1
 132.103515625 791.626953125 254.040039062 793.038085938 391 801 c 1
 391 801 396 755 399 736 c 1
 348 743 280.9921875 726.918945312 276 664 c 0
 265.516601562 531.87109375 259 358 267 143 c 0
 269.634765625 72.1904296875 331 59 383 63 c 1
 394 0 l 1
 22 -1 l 1
 14 63 l 1
 87 58 140.334966757 76.9082609898 144 140 c 0
 150.444533147 250.939458506 149.060938417 455.000011261 149 638 c 0
 148.98020695 697.439152501 107 742 19 732 c 1
 16 748 12 791 10 800 c 1
EndSplineSet
Fore
SplineSet
10 800 m 1
 132.103515625 791.626953125 254.040039062 793.038085938 391 801 c 1
 391 801 396 755 399 736 c 1
 348 743 280.9921875 726.918945312 276 664 c 0
 265.516601562 531.87109375 259 358 267 143 c 0
 269.634765625 72.1904296875 331 59 383 63 c 1
 394 0 l 1
 22 -1 l 1
 14 63 l 1
 87 58 140.334966757 76.9082609898 144 140 c 0
 150.444533147 250.939458506 149.060938417 455.000011261 149 638 c 0
 148.98020695 697.439152501 107 742 19 732 c 1
 16 748 12 791 10 800 c 1
EndSplineSet
Substitution2: "'smcp' Lowercase to Small Capitals in Latin lookup 0-1" I.sc
EndChar

StartChar: O
Encoding: 47 79 60
Width: 806
VWidth: 153
Flags: HMW
AnchorPoint: "top" 382 801 basechar 0
LayerCount: 2
Back
SplineSet
31.0029296875 312.139648438 m 0
 18.8486328125 602.892578125 191.879882812 795.4765625 427.72265625 804.151367188 c 0
 614.637695312 811.026367188 754.21875 699.872070312 755.262695312 440.750976562 c 0
 756.397460938 207.6484375 648.276367188 -9.7607421875 361.286132812 -15.2470703125 c 0
 152.286132812 -19.2421875 39.7724609375 118.328125 31.0029296875 312.139648438 c 0
156.572265625 392.72265625 m 0
 157.981335073 190.638889192 249.008789062 36.220703125 419.352539062 57.8310546875 c 0
 557.061523438 75.3017578125 630.526367188 200.548828125 629.521484375 412.618164062 c 0
 628.596679688 607.708007812 509.778320312 747.041015625 356.448242188 724.96484375 c 4
 266.952148438 712.079101562 154.912109375 630.81640625 156.572265625 392.72265625 c 0
EndSplineSet
Fore
SplineSet
31.0029296875 312.139648438 m 0
 18.8486328125 602.892578125 191.879882812 795.4765625 427.72265625 804.151367188 c 0
 614.637695312 811.026367188 754.21875 699.872070312 755.262695312 440.750976562 c 0
 756.397460938 207.6484375 648.276367188 -9.7607421875 361.286132812 -15.2470703125 c 0
 152.286132812 -19.2421875 39.7724609375 118.328125 31.0029296875 312.139648438 c 0
156.572265625 392.72265625 m 0
 157.981335073 190.638889192 249.008789062 36.220703125 419.352539062 57.8310546875 c 0
 557.061523438 75.3017578125 630.526367188 200.548828125 629.521484375 412.618164062 c 0
 628.596679688 607.708007812 509.778320312 747.041015625 356.448242188 724.96484375 c 4
 266.952148438 712.079101562 154.912109375 630.81640625 156.572265625 392.72265625 c 0
EndSplineSet
Substitution2: "'smcp' Lowercase to Small Capitals in Latin lookup 0-1" O.sc
EndChar

StartChar: T
Encoding: 52 84 68
Width: 691
VWidth: 79
Flags: HMW
LayerCount: 2
Back
SplineSet
8 604 m 1
 13 651 20 743 21 800 c 1
 129 794 216 791 334 792 c 0
 403 792 579 793 681 801 c 1
 679.043945312 773.125 669 602.036132812 669 598 c 1
 597 606 l 1
 590 665 565 732 522 771 c 1
 607 702 l 1
 518 733 419.288085938 728 334 728 c 0
 242.994140625 728 134 723 97 724 c 1
 151 761 l 1
 113 725 105 651 91 615 c 1
 8 604 l 1
210 759 m 1
 273 757 414 780 414 780 c 1
 386.97265625 572.426757812 376.535600285 301.886119284 390.706054688 129.139648438 c 0
 395.804607637 66.9851822948 450.279296875 63.0712890625 477 65 c 1
 488 0 l 1
 236 0 l 1
 164 0 l 1
 159 61 l 1
 229.26953125 57.3017578125 263.36328125 98.544921875 268.127929688 146.422851562 c 0
 286 326 284.192382812 571.58984375 274 699 c 4
 270.487734435 742.905170431 247 746 217 746 c 1
 210 759 l 1
EndSplineSet
Fore
SplineSet
8 604 m 1
 13 651 20 743 21 800 c 1
 129 794 216 791 334 792 c 0
 403 792 579 793 681 801 c 1
 679.043945312 773.125 669 602.036132812 669 598 c 1
 597 606 l 1
 590 665 565 732 522 771 c 1
 607 702 l 1
 518 733 419.288085938 728 334 728 c 0
 242.994140625 728 134 723 97 724 c 1
 151 761 l 1
 113 725 105 651 91 615 c 1
 8 604 l 1
210 759 m 1
 273 757 414 780 414 780 c 1
 386.97265625 572.426757812 376.535600285 301.886119284 390.706054688 129.139648438 c 0
 395.804607637 66.9851822948 450.279296875 63.0712890625 477 65 c 1
 488 0 l 1
 236 0 l 1
 164 0 l 1
 159 61 l 1
 229.26953125 57.3017578125 263.36328125 98.544921875 268.127929688 146.422851562 c 0
 286 326 284.192382812 571.58984375 274 699 c 4
 270.487734435 742.905170431 247 746 217 746 c 1
 210 759 l 1
EndSplineSet
Substitution2: "'smcp' Lowercase to Small Capitals in Latin lookup 0-1" T.sc
EndChar

StartChar: R
Encoding: 50 82 69
Width: 748
VWidth: 79
Flags: HMW
LayerCount: 2
Back
SplineSet
273 409 m 1
 302 402 367 396 401 406 c 1
 401 406 584 62 734 63 c 1
 743 0 l 1
 629 5 634 3 520 0 c 1
 504.69921875 33.0087890625 509.021484375 36.865234375 455 126 c 0
 435.719726562 157.8125 326 330 273 409 c 1
22 797 m 1
 210 785 276 802 426 802 c 0
 581 802 639 717 640 607 c 0
 642 438 461 353 363 351 c 0
 312.00081632 349.959200333 244 344 244 344 c 1
 243 244 243 207 253 133 c 0
 260 75 301 61 354 61 c 5
 366 0 l 5
 298 -1 107 0 33 0 c 1
 23 61 l 1
 112 62 133 97 135 147 c 0
 144 362 147 467 139 627 c 0
 136 685 119 731 27 734 c 1
 22 797 l 1
246 439 m 1
 273 423 324.765625164 408.054315505 376 417 c 0
 439 428 516 464 517 571 c 0
 518 684 455 741 375 743 c 0
 329 744 275 735 252 726 c 1
 244 649 247 537 246 439 c 1
EndSplineSet
Fore
SplineSet
273 409 m 1
 302 402 367 396 401 406 c 1
 401 406 584 62 734 63 c 1
 743 0 l 1
 629 5 634 3 520 0 c 1
 504.69921875 33.0087890625 509.021484375 36.865234375 455 126 c 0
 435.719726562 157.8125 326 330 273 409 c 1
22 797 m 1
 210 785 276 802 426 802 c 0
 581 802 639 717 640 607 c 0
 642 438 461 353 363 351 c 0
 312.00081632 349.959200333 244 344 244 344 c 1
 243 244 243 207 253 133 c 0
 260 75 301 61 354 61 c 5
 366 0 l 5
 298 -1 107 0 33 0 c 1
 23 61 l 1
 112 62 133 97 135 147 c 0
 144 362 147 467 139 627 c 0
 136 685 119 731 27 734 c 1
 22 797 l 1
246 439 m 1
 273 423 324.765625164 408.054315505 376 417 c 0
 439 428 516 464 517 571 c 0
 518 684 455 741 375 743 c 0
 329 744 275 735 252 726 c 1
 244 649 247 537 246 439 c 1
EndSplineSet
Substitution2: "'smcp' Lowercase to Small Capitals in Latin lookup 0-1" R.sc
EndChar

StartChar: Q
Encoding: 49 81 70
Width: 842
VWidth: 153
Flags: HMW
LayerCount: 2
Back
SplineSet
234 12 m 1
 305 21 l 1
 361 -80 567 -126 680 -128 c 0
 803 -130 892 -96 892 -96 c 1
 907.965820312 -130 l 1
 898 -214 l 1
 835 -234 768 -240 655 -239 c 0
 411 -235 263 -58 234 12 c 1
EndSplineSet
Refer: 60 79 N 1 0 0 1 0 0 2
Fore
SplineSet
234 12 m 1
 305 21 l 1
 361 -80 567 -126 680 -128 c 0
 803 -130 892 -96 892 -96 c 1
 907.965820312 -130 l 1
 898 -214 l 1
 835 -234 768 -240 655 -239 c 0
 411 -235 263 -58 234 12 c 1
EndSplineSet
Refer: 60 79 N 1 0 0 1 0 0 2
Substitution2: "'smcp' Lowercase to Small Capitals in Latin lookup 0-1" Q.sc
EndChar

StartChar: L
Encoding: 44 76 71
Width: 679
VWidth: 79
Flags: HMW
LayerCount: 2
Back
SplineSet
53 800 m 1
 164.340820312 791.209960938 300.764648438 794.87890625 386 799 c 1
 392 735 l 1
 321.885827422 735 289.897705362 731.977053623 285 673 c 0
 268.183751244 470.50255859 267 198 269 145 c 0
 270.491770433 110.68928003 274.8557593 77.2510102608 311 73 c 0
 367.778235574 66.3221764426 474.745182802 75.1107157232 521.611972165 82.4984101293 c 1
 541.350188397 120.482967278 555.489257812 165.979492188 560 204 c 5
 634 212 l 1
 640.008940621 166.503502478 640.5078125 26.798828125 635 0 c 1
 439 0 256 0 60 0 c 1
 53 63 l 1
 116 64 148 82 155.077148438 146.999023438 c 0
 169.09855194 275.776530785 169.360616467 489.828595357 160 663 c 0
 157.384787769 711.381426268 135 743 59 739 c 1
 53 800 l 1
EndSplineSet
Fore
SplineSet
53 800 m 1
 164.340820312 791.209960938 300.764648438 794.87890625 386 799 c 1
 392 735 l 1
 321.885827422 735 289.897705362 731.977053623 285 673 c 0
 268.183751244 470.50255859 267 198 269 145 c 0
 270.491770433 110.68928003 274.8557593 77.2510102608 311 73 c 0
 367.778235574 66.3221764426 474.745182802 75.1107157232 521.611972165 82.4984101293 c 1
 541.350188397 120.482967278 555.489257812 165.979492188 560 204 c 5
 634 212 l 1
 640.008940621 166.503502478 640.5078125 26.798828125 635 0 c 1
 439 0 256 0 60 0 c 1
 53 63 l 1
 116 64 148 82 155.077148438 146.999023438 c 0
 169.09855194 275.776530785 169.360616467 489.828595357 160 663 c 0
 157.384787769 711.381426268 135 743 59 739 c 1
 53 800 l 1
EndSplineSet
Substitution2: "'smcp' Lowercase to Small Capitals in Latin lookup 0-1" L.sc
EndChar

StartChar: G
Encoding: 39 71 72
Width: 827
VWidth: 79
Flags: HMW
LayerCount: 2
Back
SplineSet
34 322 m 0
 31 560 165 800 493 802 c 4
 613.997750658 802.737791163 693 777 693 777 c 5
 696 726 702 626 699 584 c 5
 633 587 l 5
 601 675 538 748 492 755 c 5
 506 776 688 757 635 662 c 5
 618 666 540.989257812 735.639648438 418 734 c 4
 268 732 165 582 162 386 c 0
 159 212 245 57 432 54 c 0
 541 52 591 86 636 138 c 1
 702 116 l 1
 629 1 506 -27 399 -27 c 0
 185 -27 36.609066879 115.014027601 34 322 c 0
486 390 m 1
 599 382 673 385 781 390 c 1
 791 330 l 1
 774.15234375 330.935546875 706.45703125 338.250976562 706.45703125 261.010742188 c 0
 706.45703125 208.181640625 706.400390625 151.206054688 702 116 c 1
 566 46 l 1
 590.953125 108.3828125 593.501953125 192.282226562 592.641601562 263.15625 c 0
 589.362304688 303.723632812 560.821289062 329.622070312 492 326 c 1
 486 390 l 1
EndSplineSet
Fore
SplineSet
34 322 m 0
 31 560 165 800 493 802 c 4
 613.997750658 802.737791163 693 777 693 777 c 5
 696 726 702 626 699 584 c 5
 633 587 l 5
 601 675 538 748 492 755 c 5
 506 776 688 757 635 662 c 5
 618 666 540.989257812 735.639648438 418 734 c 4
 268 732 165 582 162 386 c 0
 159 212 245 57 432 54 c 0
 541 52 591 86 636 138 c 1
 702 116 l 1
 629 1 506 -27 399 -27 c 0
 185 -27 36.609066879 115.014027601 34 322 c 0
486 390 m 1
 599 382 673 385 781 390 c 1
 791 330 l 1
 774.15234375 330.935546875 706.45703125 338.250976562 706.45703125 261.010742188 c 0
 706.45703125 208.181640625 706.400390625 151.206054688 702 116 c 1
 566 46 l 1
 590.953125 108.3828125 593.501953125 192.282226562 592.641601562 263.15625 c 0
 589.362304688 303.723632812 560.821289062 329.622070312 492 326 c 1
 486 390 l 1
EndSplineSet
Substitution2: "'smcp' Lowercase to Small Capitals in Latin lookup 0-1" G.sc
EndChar

StartChar: D
Encoding: 36 68 73
Width: 809
VWidth: 79
Flags: HMW
LayerCount: 2
Back
SplineSet
22 798 m 1
 204 787 346 803 436 803 c 0
 604 803 767 715 765 467 c 0
 761 146 597 4 320 0 c 0
 252 -1 107 0 33 0 c 1
 23 61 l 1
 92 57 133 84 135 134 c 0
 144 349 147 468 139 628 c 0
 136 686 124 742 32 735 c 1
 22 798 l 1
266 719 m 1
 250 483 251.821289062 337.8046875 267 142 c 0
 271.821289062 79.8046875 319 74 372 75 c 0
 563 77 636 196 642 372 c 0
 650 596 555 734 387 738 c 0
 333 739 293 729 266 719 c 1
EndSplineSet
Fore
SplineSet
22 798 m 1
 204 787 346 803 436 803 c 0
 604 803 767 715 765 467 c 0
 761 146 597 4 320 0 c 0
 252 -1 107 0 33 0 c 1
 23 61 l 1
 92 57 133 84 135 134 c 0
 144 349 147 468 139 628 c 0
 136 686 124 742 32 735 c 1
 22 798 l 1
266 719 m 1
 250 483 251.821289062 337.8046875 267 142 c 0
 271.821289062 79.8046875 319 74 372 75 c 0
 563 77 636 196 642 372 c 0
 650 596 555 734 387 738 c 0
 333 739 293 729 266 719 c 1
EndSplineSet
Substitution2: "'smcp' Lowercase to Small Capitals in Latin lookup 0-1" D.sc
EndChar

StartChar: J
Encoding: 42 74 74
Width: 422
VWidth: 79
Flags: HMW
LayerCount: 2
Back
SplineSet
-34 -193 m 1
 -7 -142 l 1
 173 -187 162 -18 166 84 c 0
 171 205 158 460 155 643 c 0
 154 734 68 739 38 729 c 1
 35 745 31 791 29 800 c 1
 95 794 133 791 205 792 c 0
 246 792 326 793 387 801 c 1
 387 801 392 755 395 736 c 1
 344 743 285 720 282 665 c 0
 271 415 272 261 278 39 c 0
 282 -94 243 -226 76 -227 c 0
 21 -227 -20 -201 -34 -193 c 1
EndSplineSet
Fore
SplineSet
-34 -193 m 1
 -7 -142 l 1
 173 -187 162 -18 166 84 c 0
 171 205 158 460 155 643 c 0
 154 734 68 739 38 729 c 1
 35 745 31 791 29 800 c 1
 95 794 133 791 205 792 c 0
 246 792 326 793 387 801 c 1
 387 801 392 755 395 736 c 1
 344 743 285 720 282 665 c 0
 271 415 272 261 278 39 c 0
 282 -94 243 -226 76 -227 c 0
 21 -227 -20 -201 -34 -193 c 1
EndSplineSet
Substitution2: "'smcp' Lowercase to Small Capitals in Latin lookup 0-1" J.sc
EndChar

StartChar: K
Encoding: 43 75 75
Width: 822
VWidth: 79
Flags: HMW
LayerCount: 2
Back
SplineSet
28 800 m 1
 150.103515625 791.626953125 252.040039062 793.038085938 389 801 c 1
 389 801 394 755 397 736 c 1
 346 743 288.9921875 726.918945312 284 664 c 0
 273.516601562 531.87109375 267 358 275 143 c 0
 277.634765625 72.1904296875 339 59 391 63 c 1
 402 0 l 1
 40 -1 l 1
 32 63 l 1
 105 58 148.334960938 76.908203125 152 140 c 0
 158.444335938 250.939453125 157.060546875 455 157 638 c 0
 156.98046875 697.439453125 125 742 37 732 c 1
 34 748 30 791 28 800 c 1
305.561523438 395.3046875 m 5
 304.5625 427.700195312 l 5
 342.875 456.525390625 482.946803562 584.968575873 556 692 c 0
 570 713 566 739 488 736 c 1
 479 799 l 1
 596 797 747 802 747 802 c 1
 756 737 l 1
 716 738 688 731 659 699 c 0
 604.439368629 637.28387599 458.676757812 479.565429688 410.55078125 423.412109375 c 5
 497.46875 309.552734375 703.780380824 60.2481698402 794 61 c 1
 806 0 l 1
 692 5 611 3 497 0 c 1
 483 57 l 1
 519 53 577.560546875 61.3994140625 532 126 c 0
 513.687915146 151.965058277 377.83203125 298.1484375 305.561523438 395.3046875 c 5
EndSplineSet
Fore
SplineSet
28 800 m 1
 150.103515625 791.626953125 252.040039062 793.038085938 389 801 c 1
 389 801 394 755 397 736 c 1
 346 743 288.9921875 726.918945312 284 664 c 0
 273.516601562 531.87109375 267 358 275 143 c 0
 277.634765625 72.1904296875 339 59 391 63 c 1
 402 0 l 1
 40 -1 l 1
 32 63 l 1
 105 58 148.334960938 76.908203125 152 140 c 0
 158.444335938 250.939453125 157.060546875 455 157 638 c 0
 156.98046875 697.439453125 125 742 37 732 c 1
 34 748 30 791 28 800 c 1
305.561523438 395.3046875 m 5
 304.5625 427.700195312 l 5
 342.875 456.525390625 482.946803562 584.968575873 556 692 c 0
 570 713 566 739 488 736 c 1
 479 799 l 1
 596 797 747 802 747 802 c 1
 756 737 l 1
 716 738 688 731 659 699 c 0
 604.439368629 637.28387599 458.676757812 479.565429688 410.55078125 423.412109375 c 5
 497.46875 309.552734375 703.780380824 60.2481698402 794 61 c 1
 806 0 l 1
 692 5 611 3 497 0 c 1
 483 57 l 1
 519 53 577.560546875 61.3994140625 532 126 c 0
 513.687915146 151.965058277 377.83203125 298.1484375 305.561523438 395.3046875 c 5
EndSplineSet
Substitution2: "'smcp' Lowercase to Small Capitals in Latin lookup 0-1" K.sc
EndChar

StartChar: Z
Encoding: 58 90 76
Width: 679
VWidth: 79
Flags: HMW
LayerCount: 2
Back
SplineSet
12 0 m 1
 13 14 17 46 19 71 c 1
 113 138 361 542 461 702 c 4
 472 720 477 733 427 733 c 4
 354 733 221 731 163 727 c 1
 140 687 137 637 132 596 c 1
 60 588 l 1
 60 588 51 661 51 720 c 0
 51 744 54 801 54 801 c 1
 101 803 210 796 296 796 c 0
 379 796 581 794 657 800 c 1
 645 739 l 1
 556 672 196 74 177 56 c 1
 136 115 l 1
 167 85 251 76 307 73 c 0
 384 68 500 75 547 82 c 1
 567 120 574 166 578 204 c 1
 650 212 l 1
 650 212 659 139 659 80 c 0
 659 56 652 0 652 0 c 1
 439 0 225 0 12 0 c 1
EndSplineSet
Fore
SplineSet
12 0 m 1
 13 14 17 46 19 71 c 1
 113 138 361 542 461 702 c 4
 472 720 477 733 427 733 c 4
 354 733 221 731 163 727 c 1
 140 687 137 637 132 596 c 1
 60 588 l 1
 60 588 51 661 51 720 c 0
 51 744 54 801 54 801 c 1
 101 803 210 796 296 796 c 0
 379 796 581 794 657 800 c 1
 645 739 l 1
 556 672 196 74 177 56 c 1
 136 115 l 1
 167 85 251 76 307 73 c 0
 384 68 500 75 547 82 c 1
 567 120 574 166 578 204 c 1
 650 212 l 1
 650 212 659 139 659 80 c 0
 659 56 652 0 652 0 c 1
 439 0 225 0 12 0 c 1
EndSplineSet
Substitution2: "'smcp' Lowercase to Small Capitals in Latin lookup 0-1" Z.sc
EndChar

StartChar: Y
Encoding: 57 89 77
Width: 724
VWidth: 79
Flags: HMW
AnchorPoint: "top" 358 801 basechar 0
LayerCount: 2
Back
SplineSet
-16 802 m 1
 98 797 182 799 296 802 c 1
 310 748 l 1
 234 742 214.208007812 724.108398438 241 670 c 4
 265.208007812 621.108398438 295 553 331 488 c 5
 342 453 364 385 364 385 c 1
 408 457 476.981561694 557.437726737 535 665 c 0
 565.981561694 722.437726737 514 742 446 739 c 1
 437 802 l 1
 534 796 630 798 727 802 c 1
 738 744 l 1
 678 742 649 710 620 662 c 0
 524 505 443 402 406 322 c 1
 377 319 338 310 304 300 c 1
 250 402 213.022346863 480.458921208 111 668 c 0
 77.0223468626 730.458921208 39 745 -8 744 c 1
 -16 802 l 1
195 69 m 1
 268 54 289 93 296 145 c 0
 303 196 304 249 290 373 c 1
 421 385 l 1
 399 243 412 169 423 122 c 0
 434 73 455 62 507 69 c 1
 528 0 l 1
 203 -1 l 1
 195 69 l 1
EndSplineSet
Fore
SplineSet
-16 802 m 1
 98 797 182 799 296 802 c 1
 310 748 l 1
 234 742 214.208007812 724.108398438 241 670 c 4
 265.208007812 621.108398438 295 553 331 488 c 5
 342 453 364 385 364 385 c 1
 408 457 476.981561694 557.437726737 535 665 c 0
 565.981561694 722.437726737 514 742 446 739 c 1
 437 802 l 1
 534 796 630 798 727 802 c 1
 738 744 l 1
 678 742 649 710 620 662 c 0
 524 505 443 402 406 322 c 1
 377 319 338 310 304 300 c 1
 250 402 213.022346863 480.458921208 111 668 c 0
 77.0223468626 730.458921208 39 745 -8 744 c 1
 -16 802 l 1
195 69 m 1
 268 54 289 93 296 145 c 0
 303 196 304 249 290 373 c 1
 421 385 l 1
 399 243 412 169 423 122 c 0
 434 73 455 62 507 69 c 1
 528 0 l 1
 203 -1 l 1
 195 69 l 1
EndSplineSet
Substitution2: "'smcp' Lowercase to Small Capitals in Latin lookup 0-1" Y.sc
EndChar

StartChar: X
Encoding: 56 88 78
Width: 806
VWidth: 79
Flags: HMW
LayerCount: 2
Back
SplineSet
-6 66 m 1
 81 66 115.25 104.639648438 152 147 c 0
 195.176757812 196.767578125 288 340 341 424 c 1
 379 452 l 1
 430 517 495 601 522 653 c 0
 555.903320312 718.295898438 534 730 462 731 c 1
 454 801 l 1
 552 793 676 793 763 801 c 1
 772 736 l 1
 693 736 651.447017002 695.25244891 598 623 c 0
 544 550 464 447 428 395 c 1
 409 382 l 1
 355 323 301.4296875 234.892578125 260 163 c 0
 233.4296875 116.892578125 217 61 309 61 c 1
 318 1 l 1
 2 1 l 1
 -6 66 l 1
0 801 m 1
 126 790 258 792 357 800 c 1
 368 736 l 1
 266 735 265.138422459 700.164499798 294 650 c 0
 338.83203125 572.077148438 409 453 418 440 c 1
 428 444 l 1
 466 380 628 66 762 62 c 5
 778 1 l 5
 409 1 l 1
 397 62 l 1
 455 63 502 73 463 143 c 0
 429.775390625 202.633789062 368 295 334 353 c 1
 314 373 l 1
 271 449 223.399414062 522.103515625 162 622 c 0
 109.571289062 707.30078125 71 734 8 734 c 1
 0 801 l 1
EndSplineSet
Fore
SplineSet
-6 66 m 1
 81 66 115.25 104.639648438 152 147 c 0
 195.176757812 196.767578125 288 340 341 424 c 1
 379 452 l 1
 430 517 495 601 522 653 c 0
 555.903320312 718.295898438 534 730 462 731 c 1
 454 801 l 1
 552 793 676 793 763 801 c 1
 772 736 l 1
 693 736 651.447017002 695.25244891 598 623 c 0
 544 550 464 447 428 395 c 1
 409 382 l 1
 355 323 301.4296875 234.892578125 260 163 c 0
 233.4296875 116.892578125 217 61 309 61 c 1
 318 1 l 1
 2 1 l 1
 -6 66 l 1
0 801 m 1
 126 790 258 792 357 800 c 1
 368 736 l 1
 266 735 265.138422459 700.164499798 294 650 c 0
 338.83203125 572.077148438 409 453 418 440 c 1
 428 444 l 1
 466 380 628 66 762 62 c 5
 778 1 l 5
 409 1 l 1
 397 62 l 1
 455 63 502 73 463 143 c 0
 429.775390625 202.633789062 368 295 334 353 c 1
 314 373 l 1
 271 449 223.399414062 522.103515625 162 622 c 0
 109.571289062 707.30078125 71 734 8 734 c 1
 0 801 l 1
EndSplineSet
Substitution2: "'smcp' Lowercase to Small Capitals in Latin lookup 0-1" X.sc
EndChar

StartChar: N
Encoding: 46 78 79
Width: 926
VWidth: 79
Flags: HMW
LayerCount: 2
Back
SplineSet
220 719 m 1049
23 69 m 1,0,1
 96 54 133 79 138 162 c 0,2,3
 146 273 147.310316961 478.967495796 145 643 c 0,4,5
 144 714 98 729 28 729 c 5,6,7
 25 745 21 791 19 800 c 5,8,9
 118 791 179 790 293 794 c 1,10,11
 354.976429633 699.828022505 532.352539062 435.189453125 652.901367188 262 c 1,0,0
 682.123046875 220.017578125 717.830078125 104.583984375 735 80 c 0,12,13
 740 72 683 104 688 96 c 1,14,15
 706 177 704 508 695 633 c 0,16,17
 688 724 656 739 586 729 c 1,18,19
 583 745 579 791 577 800 c 1,20,21
 643 794 653 791 725 792 c 0,22,23
 766 792 826 793 887 801 c 1,24,25
 887 801 892 755 895 736 c 1,26,27
 844 743 807 720 802 665 c 0,28,29
 787 486 790 215 798 0 c 1,30,31
 770 -4 753 -5 703 -16 c 1,32,-1
 701 -17 l 1,33,34
 531.622501083 238.948220585 426.517578125 403.174804688 288.1953125 594 c 1,0,0
 284.333007812 599.327148438 223.883789062 713.66015625 220 719 c 1,0,0
 215.159179688 725.655273438 246.87890625 693.3203125 242 700 c 1,35,36
 230 518 234 186 240 139 c 0,37,38
 251 69 307 62 359 69 c 1,39,-1
 370 0 l 1,40,-1
 31 -1 l 1,41,-1
 23 69 l 1,0,1
EndSplineSet
Fore
SplineSet
220 719 m 1049
23 69 m 1,0,1
 96 54 133 79 138 162 c 0,2,3
 146 273 147.310316961 478.967495796 145 643 c 0,4,5
 144 714 98 729 28 729 c 5,6,7
 25 745 21 791 19 800 c 5,8,9
 118 791 179 790 293 794 c 1,10,11
 354.976429633 699.828022505 532.352539062 435.189453125 652.901367188 262 c 1,0,0
 682.123046875 220.017578125 717.830078125 104.583984375 735 80 c 0,12,13
 740 72 683 104 688 96 c 1,14,15
 706 177 704 508 695 633 c 0,16,17
 688 724 656 739 586 729 c 1,18,19
 583 745 579 791 577 800 c 1,20,21
 643 794 653 791 725 792 c 0,22,23
 766 792 826 793 887 801 c 1,24,25
 887 801 892 755 895 736 c 1,26,27
 844 743 807 720 802 665 c 0,28,29
 787 486 790 215 798 0 c 1,30,31
 770 -4 753 -5 703 -16 c 1,32,-1
 701 -17 l 1,33,34
 531.622501083 238.948220585 426.517578125 403.174804688 288.1953125 594 c 1,0,0
 284.333007812 599.327148438 223.883789062 713.66015625 220 719 c 1,0,0
 215.159179688 725.655273438 246.87890625 693.3203125 242 700 c 1,35,36
 230 518 234 186 240 139 c 0,37,38
 251 69 307 62 359 69 c 1,39,-1
 370 0 l 1,40,-1
 31 -1 l 1,41,-1
 23 69 l 1,0,1
EndSplineSet
Substitution2: "'smcp' Lowercase to Small Capitals in Latin lookup 0-1" N.sc
EndChar

StartChar: M
Encoding: 45 77 80
Width: 1153
VWidth: 79
Flags: HMW
LayerCount: 2
Back
SplineSet
39 800 m 5
 138 791 198 790 312 794 c 1
 345 711 504.65515102 405.788567077 559 250 c 0
 579.65515102 190.788567077 592 104 608 66 c 1
 616 16 l 1
 547 -5 l 1
 509 89 290 578 242 650 c 1
 241 641 271 682 270 673 c 0
 260 491 264 183 270 139 c 0
 281 69 337 62 389 69 c 1
 400 0 l 1
 41 -1 l 1
 33 69 l 1
 106 54 163 79 168 162 c 0
 176 273 179 479 175 643 c 0
 174 734 98 739 48 729 c 5
 45 745 41 791 39 800 c 5
541 50 m 1
 650 268 782 677 829 794 c 1
 943 790 1018 791 1117 800 c 1
 1121 771 1124 745 1128 729 c 1
 1058 739 1001 734 1000 643 c 0
 996 479 999 273 1007 162 c 0
 1012 79 1053 54 1126 69 c 1
 1138 -1 l 1
 759 0 l 1
 750 69 l 1
 802 62 869 69 880 139 c 0
 886 186 890 518 878 700 c 1
 871 690 917.043122919 738.601984348 911 728 c 0
 812.733263764 555.601984348 731.908450704 265 617 16 c 1
 541 50 l 1
EndSplineSet
Fore
SplineSet
39 800 m 5
 138 791 198 790 312 794 c 1
 345 711 504.65515102 405.788567077 559 250 c 0
 579.65515102 190.788567077 592 104 608 66 c 1
 616 16 l 1
 547 -5 l 1
 509 89 290 578 242 650 c 1
 241 641 271 682 270 673 c 0
 260 491 264 183 270 139 c 0
 281 69 337 62 389 69 c 1
 400 0 l 1
 41 -1 l 1
 33 69 l 1
 106 54 163 79 168 162 c 0
 176 273 179 479 175 643 c 0
 174 734 98 739 48 729 c 5
 45 745 41 791 39 800 c 5
541 50 m 1
 650 268 782 677 829 794 c 1
 943 790 1018 791 1117 800 c 1
 1121 771 1124 745 1128 729 c 1
 1058 739 1001 734 1000 643 c 0
 996 479 999 273 1007 162 c 0
 1012 79 1053 54 1126 69 c 1
 1138 -1 l 1
 759 0 l 1
 750 69 l 1
 802 62 869 69 880 139 c 0
 886 186 890 518 878 700 c 1
 871 690 917.043122919 738.601984348 911 728 c 0
 812.733263764 555.601984348 731.908450704 265 617 16 c 1
 541 50 l 1
EndSplineSet
Substitution2: "'smcp' Lowercase to Small Capitals in Latin lookup 0-1" M.sc
EndChar

StartChar: grave
Encoding: 64 96 81
Width: 0
VWidth: 0
Flags: HMW
AnchorPoint: "top" 1 612 mark 0
LayerCount: 2
Back
SplineSet
137 716 m 13
 117 662 l 21
 -1 697 -88 744 -151 780 c 13
 -91 874 l 21
 -48 818 65 748 137 716 c 13
EndSplineSet
Fore
SplineSet
137 716 m 13
 117 662 l 21
 -1 697 -88 744 -151 780 c 13
 -91 874 l 21
 -48 818 65 748 137 716 c 13
EndSplineSet
EndChar

StartChar: question
Encoding: 31 63 83
Width: 542
VWidth: 153
Flags: HMW
LayerCount: 2
Back
SplineSet
80 732 m 1
 192 732 l 1
 182 697 175 627 172 592 c 1
 87 580 l 1
 79 612 75 697 80 732 c 1
80 732 m 1
 133 765 220 801 307 801 c 0
 426 801 524 734 496 580 c 0
 461 393 298 345 213 318 c 1
 208 310 261 378 261 364 c 0
 261 299 276 219 280 198 c 1
 167 196 l 1
 168 233 167 340 168 364 c 1
 220 369 366 400 387 532 c 0
 404 636 356 722 232 732 c 0
 178 736 135 710 105 693 c 1
 80 732 l 1
EndSplineSet
Refer: 11 46 N 1 0 0 1 98 10 2
Fore
SplineSet
80 732 m 1
 192 732 l 1
 182 697 175 627 172 592 c 1
 87 580 l 1
 79 612 75 697 80 732 c 1
80 732 m 1
 133 765 220 801 307 801 c 0
 426 801 524 734 496 580 c 0
 461 393 298 345 213 318 c 1
 208 310 261 378 261 364 c 0
 261 299 276 219 280 198 c 1
 167 196 l 1
 168 233 167 340 168 364 c 1
 220 369 366 400 387 532 c 0
 404 636 356 722 232 732 c 0
 178 736 135 710 105 693 c 1
 80 732 l 1
EndSplineSet
Refer: 11 46 N 1 0 0 1 98 10 2
EndChar

StartChar: quotesingle
Encoding: 7 39 84
Width: 206
VWidth: 79
Flags: HMW
LayerCount: 2
Back
SplineSet
52.576171875 777.809570312 m 1
 49.130859375 714.051757812 36.572265625 624.30078125 25.99609375 551.19921875 c 0
 67.4169921875 532.291015625 l 0
 104.537109375 593.125976562 158.446289062 709.481445312 171.279296875 780.151367188 c 1
 132.608398438 811.336914062 70.1064453125 792.428710938 52.576171875 777.809570312 c 1
EndSplineSet
Fore
SplineSet
52.576171875 777.809570312 m 1
 49.130859375 714.051757812 36.572265625 624.30078125 25.99609375 551.19921875 c 0
 67.4169921875 532.291015625 l 0
 104.537109375 593.125976562 158.446289062 709.481445312 171.279296875 780.151367188 c 1
 132.608398438 811.336914062 70.1064453125 792.428710938 52.576171875 777.809570312 c 1
EndSplineSet
EndChar

StartChar: quotedblright
Encoding: 214 8221 86
Width: 391
VWidth: 79
Flags: HMW
LayerCount: 2
Back
SplineSet
227.17578125 793.6875 m 1
 245.422851562 714.40781902 229.103515625 632.850324795 205.549804688 559.0859375 c 0
 255.60546875 544.27734375 l 0
 302.724974504 597.432617188 352.543192912 710.33203125 344.387695312 782.46484375 c 1
 310.828063743 817.73046875 245.434970707 806.282226562 227.17578125 793.6875 c 1
42.576171875 787.809570312 m 1
 69.130859375 714.051757812 61.572265625 634.30078125 45.99609375 561.19921875 c 0
 99.4169921875 542.291015625 l 0
 133.0190159 584.125976562 175.657262818 719.481445312 161.279296875 790.151367188 c 1
 123.869031317 821.336914062 59.5349758104 802.428710938 42.576171875 787.809570312 c 1
EndSplineSet
Fore
SplineSet
227.17578125 793.6875 m 1
 245.422851562 714.40781902 229.103515625 632.850324795 205.549804688 559.0859375 c 0
 255.60546875 544.27734375 l 0
 302.724974504 597.432617188 352.543192912 710.33203125 344.387695312 782.46484375 c 1
 310.828063743 817.73046875 245.434970707 806.282226562 227.17578125 793.6875 c 1
42.576171875 787.809570312 m 1
 69.130859375 714.051757812 61.572265625 634.30078125 45.99609375 561.19921875 c 0
 99.4169921875 542.291015625 l 0
 133.0190159 584.125976562 175.657262818 719.481445312 161.279296875 790.151367188 c 1
 123.869031317 821.336914062 59.5349758104 802.428710938 42.576171875 787.809570312 c 1
EndSplineSet
EndChar

StartChar: quotedblleft
Encoding: 213 8220 87
Width: 391
VWidth: 79
Flags: HMW
LayerCount: 2
Back
SplineSet
119 557 m 1
 107.138798035 650.560546875 121.038095032 717.220703125 143.125976562 782 c 0
 99 811 l 0
 58.3251161851 770.785407725 -4.9603960396 662.364806867 -1 577 c 1
 31 539 99 546 119 557 c 1
303 553 m 1
 292.122070312 646.560546875 304.869140625 713.220703125 325.125976562 778 c 0
 284 806 l 0
 232 766 179 658 183 573 c 1
 215 535 283 542 303 553 c 1
EndSplineSet
Fore
SplineSet
119 557 m 1
 107.138798035 650.560546875 121.038095032 717.220703125 143.125976562 782 c 0
 99 811 l 0
 58.3251161851 770.785407725 -4.9603960396 662.364806867 -1 577 c 1
 31 539 99 546 119 557 c 1
303 553 m 1
 292.122070312 646.560546875 304.869140625 713.220703125 325.125976562 778 c 0
 284 806 l 0
 232 766 179 658 183 573 c 1
 215 535 283 542 303 553 c 1
EndSplineSet
EndChar

StartChar: exclam
Encoding: 1 33 102
Width: 330
VWidth: 153
Flags: HMW
LayerCount: 2
Back
SplineSet
89 772 m 1
 116 796 203 805 237 801 c 1
 215.63671875 608.21875 200.844726562 435.486328125 193 208 c 1
 112 206 l 1
 105 399 97 610 89 772 c 1
EndSplineSet
Refer: 11 46 N 1 0 0 1 29 -10 2
Fore
SplineSet
89 772 m 1
 116 796 203 805 237 801 c 1
 215.63671875 608.21875 200.844726562 435.486328125 193 208 c 1
 112 206 l 1
 105 399 97 610 89 772 c 1
EndSplineSet
Refer: 11 46 N 1 0 0 1 29 -10 2
EndChar

StartChar: parenright
Encoding: 9 41 103
Width: 371
VWidth: 153
Flags: HMW
LayerCount: 2
Back
SplineSet
52 -95 m 5
 133 37 189.716796875 241.00390625 192 402 c 4
 194 543 163 696 69 814 c 5
 131 865 l 5
 184 817 292 683 307 489 c 4
 325 262 237 54 117 -133 c 5
 52 -95 l 5
EndSplineSet
Fore
SplineSet
52 -95 m 5
 133 37 189.716796875 241.00390625 192 402 c 4
 194 543 163 696 69 814 c 5
 131 865 l 5
 184 817 292 683 307 489 c 4
 325 262 237 54 117 -133 c 5
 52 -95 l 5
EndSplineSet
EndChar

StartChar: parenleft
Encoding: 8 40 104
Width: 371
VWidth: 153
Flags: HMW
LayerCount: 2
Back
SplineSet
81 235 m 0
 63 462 145 696 265 883 c 1
 336 849 l 1
 255 717 199 483 201 322 c 0
 202 191 215 18 319 -110 c 1
 257 -164 l 1
 199 -118 96 41 81 235 c 0
EndSplineSet
Fore
SplineSet
81 235 m 0
 63 462 145 696 265 883 c 1
 336 849 l 1
 255 717 199 483 201 322 c 0
 202 191 215 18 319 -110 c 1
 257 -164 l 1
 199 -118 96 41 81 235 c 0
EndSplineSet
EndChar

StartChar: hyphen
Encoding: 13 45 105
Width: 589
VWidth: 153
Flags: HW
HStem: 328 105<53 221.508 325.996 470.42>
LayerCount: 2
Back
SplineSet
47 343 m 1
 61 432 l 1
 254 422 356 422 528 432 c 1
 526 405 520 377 518 343 c 1
 47 343 l 1
EndSplineSet
Fore
SplineSet
47 343 m 1
 61 432 l 1
 254 422 356 422 528 432 c 1
 526 405 520 377 518 343 c 1
 47 343 l 1
EndSplineSet
EndChar

StartChar: underscore
Encoding: 63 95 106
Width: 669
VWidth: 153
Flags: W
HStem: 1 95<53 265.407 431.097 619.42>
LayerCount: 2
Back
SplineSet
39 1 m 5
 53 96 l 5
 246 86 457 86 629 96 c 5
 627 69 621 35 619 1 c 5
 39 1 l 5
EndSplineSet
Fore
SplineSet
39 1 m 5
 53 96 l 5
 246 86 457 86 629 96 c 5
 627 69 621 35 619 1 c 5
 39 1 l 5
EndSplineSet
EndChar

StartChar: emdash
Encoding: 209 8212 107
Width: 1000
VWidth: 153
Flags: W
HStem: 328 105<39 960>
LayerCount: 2
Back
SplineSet
39 328 m 1
 39 433 l 1
 960 433 l 1
 960 328 l 1
 39 328 l 1
EndSplineSet
Fore
SplineSet
39 328 m 1
 39 433 l 1
 960 433 l 1
 960 328 l 1
 39 328 l 1
EndSplineSet
EndChar

StartChar: alpha
Encoding: 257 945 109
Width: 676
VWidth: 0
Flags: W
HStem: -2.5752 81.8926<574.69 654.15> 501.022 101.699<190.851 356.188> 592.683 20G<469.506 587.071>
VStem: 451.026 88.5273<123.817 175.362> 469.506 122.051<512.968 597.321>
LayerCount: 2
Back
SplineSet
511.671875 347.21484375 m 1xc0
 505.577148438 371.4453125 468.541015625 323.546875 466.8671875 335.211914062 c 0
 452.08203125 438.2734375 353.829101562 500.404296875 276 501.022460938 c 0
 184.990234375 501.745117188 101.063476562 435.7734375 85.109375 310.974609375 c 0
 71.3525390625 203.364257812 140.91796875 87.890625 267.830078125 98.5185546875 c 0
 349.416992188 105.350585938 432.588867188 166.751953125 453.387695312 238.087890625 c 1
 467.059570312 183.737304688 466.346679688 195.77734375 468.948242188 188.1640625 c 1
 474.625 184.745117188 l 1
 450.154296875 118.02734375 358.14453125 -5.7021484375 217.444335938 -5.1357421875 c 0
 104.37890625 -4.6806640625 4.6953125 96.7255859375 19.3828125 286.009765625 c 0
 34.869140625 485.590820312 153.244140625 597.340820312 268.766601562 602.721679688 c 0
 416.728515625 609.61328125 497.149414062 454.654296875 511.671875 347.21484375 c 1xc0
539.553710938 272.651367188 m 0xb0
 539.553710938 150.390625 552.502929688 56.5615234375 669.927734375 79.3173828125 c 1
 684.25 40.873046875 l 1
 657.30078125 10.251953125 570.079101562 -15.841796875 513.015625 -2.5751953125 c 0
 454.463488347 11.0375025883 447.4296875 66.25390625 451.026367188 175.362304688 c 1xb0
 451.026367188 175.362304688 464.567382812 512.321289062 469.505859375 597.321289062 c 1
 591.556640625 612.682617188 l 1xa8
 582.5859375 578.458007812 539.553710938 381.264648438 539.553710938 272.651367188 c 0xb0
EndSplineSet
Fore
SplineSet
511.671875 347.21484375 m 1xc0
 505.577148438 371.4453125 468.541015625 323.546875 466.8671875 335.211914062 c 0
 452.08203125 438.2734375 353.829101562 500.404296875 276 501.022460938 c 0
 184.990234375 501.745117188 101.063476562 435.7734375 85.109375 310.974609375 c 0
 71.3525390625 203.364257812 140.91796875 87.890625 267.830078125 98.5185546875 c 0
 349.416992188 105.350585938 432.588867188 166.751953125 453.387695312 238.087890625 c 1
 467.059570312 183.737304688 466.346679688 195.77734375 468.948242188 188.1640625 c 1
 474.625 184.745117188 l 1
 450.154296875 118.02734375 358.14453125 -5.7021484375 217.444335938 -5.1357421875 c 0
 104.37890625 -4.6806640625 4.6953125 96.7255859375 19.3828125 286.009765625 c 0
 34.869140625 485.590820312 153.244140625 597.340820312 268.766601562 602.721679688 c 0
 416.728515625 609.61328125 497.149414062 454.654296875 511.671875 347.21484375 c 1xc0
539.553710938 272.651367188 m 0xb0
 539.553710938 150.390625 552.502929688 56.5615234375 669.927734375 79.3173828125 c 1
 684.25 40.873046875 l 1
 657.30078125 10.251953125 570.079101562 -15.841796875 513.015625 -2.5751953125 c 0
 454.463488347 11.0375025883 447.4296875 66.25390625 451.026367188 175.362304688 c 1xb0
 451.026367188 175.362304688 464.567382812 512.321289062 469.505859375 597.321289062 c 1
 591.556640625 612.682617188 l 1xa8
 582.5859375 578.458007812 539.553710938 381.264648438 539.553710938 272.651367188 c 0xb0
EndSplineSet
EndChar

StartChar: uni03F5
Encoding: 258 1013 110
Width: 507
VWidth: 0
Flags: W
HStem: 534 55<362.682 455>
LayerCount: 2
Back
SplineSet
455 589 m 1
 378.385742188 612.302734375 310.783203125 621.095703125 250 614 c 4
 164.375976562 604.00390625 74.0771484375 565.504882812 59 452 c 0
 51.4165436882 394.909673964 86 310 152 283 c 1
 148.30859375 280.762695312 136.034179688 316.58203125 132.106445312 314 c 0
 94.205078125 289.090820312 54.5537109375 238.63671875 46 180 c 0
 33.673828125 95.5029296875 79.7373046875 6.0673828125 214 -9 c 0
 310.068359375 -19.78125 407.227539062 16 475 76 c 1
 461 125 l 1
 391 88.6669921875 308.403320312 69.6865234375 255 77 c 0
 191.880859375 85.6435546875 146.041992188 112.21484375 144 175 c 0
 142.80218019 211.829378882 170.615234375 252.873046875 186 262 c 1
 252.75390625 245.094726562 318.733398438 253.545898438 352 285 c 1
 352 327 l 1
 321.04296875 363.838867188 202.188476562 357.408203125 156 324.396484375 c 1
 152.059570312 327.419921875 225.826171875 301.536132812 221 305 c 0
 199.443359375 320.474609375 155.479492188 347.72265625 161 420 c 0
 165.854492188 483.546875 203.202148438 527.1875 275 542.033203125 c 0
 323.556640625 552.073242188 385.009765625 554.750976562 455 534 c 1
 455 589 l 1
EndSplineSet
Fore
SplineSet
455 589 m 1
 378.385742188 612.302734375 310.783203125 621.095703125 250 614 c 4
 164.375976562 604.00390625 74.0771484375 565.504882812 59 452 c 0
 51.4165436882 394.909673964 86 310 152 283 c 1
 148.30859375 280.762695312 136.034179688 316.58203125 132.106445312 314 c 0
 94.205078125 289.090820312 54.5537109375 238.63671875 46 180 c 0
 33.673828125 95.5029296875 79.7373046875 6.0673828125 214 -9 c 0
 310.068359375 -19.78125 407.227539062 16 475 76 c 1
 461 125 l 1
 391 88.6669921875 308.403320312 69.6865234375 255 77 c 0
 191.880859375 85.6435546875 146.041992188 112.21484375 144 175 c 0
 142.80218019 211.829378882 170.615234375 252.873046875 186 262 c 1
 252.75390625 245.094726562 318.733398438 253.545898438 352 285 c 1
 352 327 l 1
 321.04296875 363.838867188 202.188476562 357.408203125 156 324.396484375 c 1
 152.059570312 327.419921875 225.826171875 301.536132812 221 305 c 0
 199.443359375 320.474609375 155.479492188 347.72265625 161 420 c 0
 165.854492188 483.546875 203.202148438 527.1875 275 542.033203125 c 0
 323.556640625 552.073242188 385.009765625 554.750976562 455 534 c 1
 455 589 l 1
EndSplineSet
EndChar

StartChar: eta
Encoding: 259 951 111
Width: 682
VWidth: 0
Flags: W
HStem: 513 88.332<47.2903 116.42>
VStem: 126 101<5 222.429> 150.621 81.2383<83.1146 303.235 409 469.38>
LayerCount: 2
Back
SplineSet
235.55859375 409 m 1xa0
 233.5 501.040039062 248.830078125 600.713867188 141 601.33203125 c 0
 74.7900390625 601.711914062 18.0830078125 568.346679688 -4 547 c 1
 9 513 l 1
 118.181640625 535.568359375 150.356445312 480.41015625 150.62109375 331 c 0xa0
 150.84765625 203 135.0859375 30.3896484375 126 -5 c 1
 143.23828125 -4.69140625 198.619140625 4.4013671875 227 5 c 1xc0
 227.549804688 44.03125 227.940429688 147.108398438 231.859375 191 c 0
 240.979492188 293.140625 296.563476562 507.90234375 412 510 c 0
 507.139648438 511.26171875 534.096679688 393.249023438 525.618164062 236 c 0
 513.09375 -17.8935546875 469.327148438 -162.576171875 427.926757812 -326 c 1
 545 -306 l 1
 567.767578125 -283.499023438 637.623046875 291.604492188 599 482 c 0
 580.115234375 575.094726562 516.555664062 625.537109375 420 608 c 0
 341.403320312 593.724609375 267.168945312 508.415039062 235.55859375 409 c 1xa0
EndSplineSet
Fore
SplineSet
235.55859375 409 m 1xa0
 233.5 501.040039062 248.830078125 600.713867188 141 601.33203125 c 0
 74.7900390625 601.711914062 18.0830078125 568.346679688 -4 547 c 1
 9 513 l 1
 118.181640625 535.568359375 150.356445312 480.41015625 150.62109375 331 c 0xa0
 150.84765625 203 135.0859375 30.3896484375 126 -5 c 1
 143.23828125 -4.69140625 198.619140625 4.4013671875 227 5 c 1xc0
 227.549804688 44.03125 227.940429688 147.108398438 231.859375 191 c 0
 240.979492188 293.140625 296.563476562 507.90234375 412 510 c 0
 507.139648438 511.26171875 534.096679688 393.249023438 525.618164062 236 c 0
 513.09375 -17.8935546875 469.327148438 -162.576171875 427.926757812 -326 c 1
 545 -306 l 1
 567.767578125 -283.499023438 637.623046875 291.604492188 599 482 c 0
 580.115234375 575.094726562 516.555664062 625.537109375 420 608 c 0
 341.403320312 593.724609375 267.168945312 508.415039062 235.55859375 409 c 1xa0
EndSplineSet
EndChar

StartChar: iota
Encoding: 260 953 112
Width: 419
VWidth: 0
Flags: W
HStem: -29.332 108.332<250.908 340.208>
LayerCount: 2
Back
SplineSet
120.44140625 343 m 1
 123.288085938 221.620117188 88.267578125 -28.5166015625 265 -29.33203125 c 0
 326.412109375 -29.615234375 372.517578125 13.6533203125 393 35 c 1
 380 79 l 1
 237.391601562 66.431640625 223.758789062 102.853515625 207.37890625 241 c 0
 189.229492188 394.07421875 220.9140625 568.450195312 220 607 c 1
 200.947265625 606.07421875 116.368164062 578.796875 85 577 c 5
 120.44140625 343 l 1
EndSplineSet
Fore
SplineSet
120.44140625 343 m 1
 123.288085938 221.620117188 88.267578125 -28.5166015625 265 -29.33203125 c 0
 326.412109375 -29.615234375 372.517578125 13.6533203125 393 35 c 1
 380 79 l 1
 237.391601562 66.431640625 223.758789062 102.853515625 207.37890625 241 c 0
 189.229492188 394.07421875 220.9140625 568.450195312 220 607 c 1
 200.947265625 606.07421875 116.368164062 578.796875 85 577 c 5
 120.44140625 343 l 1
EndSplineSet
EndChar

StartChar: rho
Encoding: 261 961 113
Width: 651
VWidth: 0
Flags: W
HStem: 512 102<249.118 407.607>
VStem: 87.874 118.574<-323.235 -254.597>
LayerCount: 2
Back
SplineSet
103 135 m 0
 120.12109375 99.87890625 182.081054688 -11.4599609375 324 -4 c 0
 486.19140625 4.525390625 558.6953125 205.096679688 564 300 c 0
 573 461 515 614 351 614 c 0
 196.006835938 614 74.3125 481.120117188 53 272 c 0
 29.2744140625 39.2001953125 58.1181640625 -207.76953125 87.8740234375 -340.42578125 c 1
 206.448242188 -322.15625 l 1
 163.151367188 -197.4296875 92.2744140625 116.313476562 122 308 c 4
 144.076171875 450.356445312 249.176470165 515.852256718 339 512 c 0
 447.137695312 507.362304688 497 408 492 305 c 0
 487.959960938 221.782226562 437.057617188 97.9892578125 307 99 c 0
 221.037109375 99.66796875 158.092773438 150.162109375 119 182 c 0
 103 135 l 0
EndSplineSet
Fore
SplineSet
103 135 m 0
 120.12109375 99.87890625 182.081054688 -11.4599609375 324 -4 c 0
 486.19140625 4.525390625 558.6953125 205.096679688 564 300 c 0
 573 461 515 614 351 614 c 0
 196.006835938 614 74.3125 481.120117188 53 272 c 0
 29.2744140625 39.2001953125 58.1181640625 -207.76953125 87.8740234375 -340.42578125 c 1
 206.448242188 -322.15625 l 1
 163.151367188 -197.4296875 92.2744140625 116.313476562 122 308 c 4
 144.076171875 450.356445312 249.176470165 515.852256718 339 512 c 0
 447.137695312 507.362304688 497 408 492 305 c 0
 487.959960938 221.782226562 437.057617188 97.9892578125 307 99 c 0
 221.037109375 99.66796875 158.092773438 150.162109375 119 182 c 0
 103 135 l 0
EndSplineSet
EndChar

StartChar: zero
Encoding: 16 48 116
Width: 696
VWidth: 153
Flags: W
HStem: -5.24707 73.0781<290.541 425.285> 625.965 62.1865<281.1 409.946>
VStem: 58.0029 125.569<210.488 473.256> 504.521 124.741<203.321 497.116>
LayerCount: 2
Back
SplineSet
58.0029296875 312.139648438 m 0
 58.5109013241 557.976238092 175.295252349 678.568041503 340.72265625 688.151367188 c 0
 472.646343247 694.520566954 628.345851137 600.80828709 629.262695312 360.750976562 c 0
 630.051045861 177.670568393 555.640903256 -0.93871362553 356.286132812 -5.2470703125 c 0
 171.999154101 -9.2421875 57.5585278658 118.194351649 58.0029296875 312.139648438 c 0
183.572265625 362.72265625 m 0
 184.513072302 184.775913111 248.138552286 66.4130461465 364.352539062 67.8310546875 c 0
 456.926900722 69.555506026 505.191618806 178.36752007 504.521484375 342.618164062 c 0
 503.983313219 515.715499916 444.190558798 626.806495111 344.448242188 625.96484375 c 4
 274.187421878 625.371964849 182.274858269 547.476879437 183.572265625 362.72265625 c 0
EndSplineSet
Fore
SplineSet
58.0029296875 312.139648438 m 0
 58.5109013241 557.976238092 175.295252349 678.568041503 340.72265625 688.151367188 c 0
 472.646343247 694.520566954 628.345851137 600.80828709 629.262695312 360.750976562 c 0
 630.051045861 177.670568393 555.640903256 -0.93871362553 356.286132812 -5.2470703125 c 0
 171.999154101 -9.2421875 57.5585278658 118.194351649 58.0029296875 312.139648438 c 0
183.572265625 362.72265625 m 0
 184.513072302 184.775913111 248.138552286 66.4130461465 364.352539062 67.8310546875 c 0
 456.926900722 69.555506026 505.191618806 178.36752007 504.521484375 342.618164062 c 0
 503.983313219 515.715499916 444.190558798 626.806495111 344.448242188 625.96484375 c 4
 274.187421878 625.371964849 182.274858269 547.476879437 183.572265625 362.72265625 c 0
EndSplineSet
EndChar

StartChar: one
Encoding: 17 49 117
Width: 422
VWidth: 79
Flags: W
HStem: 0 63<72 159.721 303.377 382> 583 61<60 144.864>
VStem: 174 104<0 85.766>
LayerCount: 2
Back
SplineSet
54 644 m 1
 154.528 642 298 695 298 695 c 1
 288 591.489361702 287 85.7659574468 278 0 c 1
 174 0 l 1
 189 196.138996139 190 447.196911197 183 508 c 0
 178 553 132 583 60 583 c 1
 54 644 l 1
65 61 m 1
 131 57 179 79 183 137 c 1
 284 151 l 1
 282 56 354 62 382 63 c 1
 392 0 l 1
 72 0 l 1
 65 61 l 1
EndSplineSet
Fore
SplineSet
54 644 m 1
 154.528 642 298 695 298 695 c 1
 288 591.489361702 287 85.7659574468 278 0 c 1
 174 0 l 1
 189 196.138996139 190 447.196911197 183 508 c 0
 178 553 132 583 60 583 c 1
 54 644 l 1
65 61 m 1
 131 57 179 79 183 137 c 1
 284 151 l 1
 282 56 354 62 382 63 c 1
 392 0 l 1
 72 0 l 1
 65 61 l 1
EndSplineSet
EndChar

StartChar: two
Encoding: 18 50 118
Width: 650
VWidth: 153
Flags: W
HStem: 0 98.0107<184 496.392> 634 62<228.807 388.558>
VStem: 96 67<513 567.989> 435 135<437.521 586.052> 525 72<126.132 179.429>
LayerCount: 2
Back
SplineSet
93 631 m 1xf0
 145.966796875 660 263.942382812 694 337 696 c 0
 462.460607512 699.434566096 568.866055899 649.357544605 570 531 c 0xf0
 572.145507812 307.05859375 220.099609375 91.6962890625 152 60 c 5
 184 95.2607421875 l 1
 431 98.0107421875 l 1
 509 98.0107421875 518 150 525 179.428710938 c 1
 597 188 l 1xe8
 588 0 l 1
 78 0 l 0
 63 62 l 1
 125.590820312 95.818359375 281.557255787 219.917660919 342 287 c 0
 412.368188284 365.098086519 436.409179688 438.837890625 435 510 c 0
 433.584960938 581.45703125 393.31074143 636.128577101 312 634 c 0
 256.705509282 632.552484153 185.674804688 613.6484375 163 513 c 1
 96 504 l 1
 90 571 93 631 93 631 c 1xf0
EndSplineSet
Fore
SplineSet
93 631 m 1xf0
 145.966796875 660 263.942382812 694 337 696 c 0
 462.460607512 699.434566096 568.866055899 649.357544605 570 531 c 0xf0
 572.145507812 307.05859375 220.099609375 91.6962890625 152 60 c 5
 184 95.2607421875 l 1
 431 98.0107421875 l 1
 509 98.0107421875 518 150 525 179.428710938 c 1
 597 188 l 1xe8
 588 0 l 1
 78 0 l 0
 63 62 l 1
 125.590820312 95.818359375 281.557255787 219.917660919 342 287 c 0
 412.368188284 365.098086519 436.409179688 438.837890625 435 510 c 0
 433.584960938 581.45703125 393.31074143 636.128577101 312 634 c 0
 256.705509282 632.552484153 185.674804688 613.6484375 163 513 c 1
 96 504 l 1
 90 571 93 631 93 631 c 1xf0
EndSplineSet
EndChar

StartChar: three
Encoding: 19 51 119
Width: 601
VWidth: 153
Flags: HW
HStem: 275 65<194 270.984> 626 57<194.382 341.269>
VStem: 68 61<502 560.717> 389 124<443.362 583.97> 408 125<33.536 189.586>
LayerCount: 2
Back
SplineSet
65 622 m 1xf0
 113 644 196.041977502 680.254382022 285 683 c 0
 447 688 512.0390625 617.694335938 513 529 c 0xf0
 514.17578125 420.447265625 414.359375 326.846679688 284.583984375 308 c 1
 274.573242188 332 l 1
 424.83984375 334.393554688 529.375976562 254.40625 533 134 c 0
 538.0078125 -32.40234375 388.161132812 -93.466796875 284 -113 c 0
 187.767578125 -131.045898438 84.0654296875 -123.888671875 57 -109 c 1
 47.4091796875 -70.81640625 59.1064453125 -12.2958984375 87 27 c 1
 113.126953125 -23.0263671875 181.330078125 -66.5859375 277 -57 c 0
 376.887695312 -46.9912109375 409.10546875 30.1591796875 408 114 c 0xe8
 406.58203125 221.557617188 298.0625 280.479492188 194 275 c 5
 187 340 l 1
 322.620117188 358.325195312 389 426 389 509 c 0
 389 594.326171875 329.998875384 628.079536027 267 626 c 0
 187.629025685 623.380035761 141.727539062 570.797851562 129 502 c 1
 68 491 l 1
 62 553.732421875 65 622 65 622 c 1xf0
EndSplineSet
Fore
SplineSet
65 622 m 1xf0
 113 644 196.041977502 680.254382022 285 683 c 0
 447 688 512.0390625 617.694335938 513 529 c 0xf0
 514.17578125 420.447265625 414.359375 326.846679688 284.583984375 308 c 1
 274.573242188 332 l 1
 424.83984375 334.393554688 529.375976562 254.40625 533 134 c 0
 538.0078125 -32.40234375 388.161132812 -93.466796875 284 -113 c 0
 187.767578125 -131.045898438 84.0654296875 -123.888671875 57 -109 c 1
 47.4091796875 -70.81640625 59.1064453125 -12.2958984375 87 27 c 1
 113.126953125 -23.0263671875 181.330078125 -66.5859375 277 -57 c 0
 376.887695312 -46.9912109375 409.10546875 30.1591796875 408 114 c 0xe8
 406.58203125 221.557617188 298.0625 280.479492188 194 275 c 5
 187 340 l 1
 322.620117188 358.325195312 389 426 389 509 c 0
 389 594.326171875 329.998875384 628.079536027 267 626 c 0
 187.629025685 623.380035761 141.727539062 570.797851562 129 502 c 1
 68 491 l 1
 62 553.732421875 65 622 65 622 c 1xf0
EndSplineSet
EndChar

StartChar: four
Encoding: 20 52 120
Width: 717
VWidth: 79
Flags: HW
HStem: 100 95<510.998 680>
LayerCount: 2
Back
SplineSet
418 394 m 9
 418 394 472.127236054 430.795898438 535 450 c 1
 511.643554688 161.8046875 506.552734375 64.859375 517 -112 c 1
 400 -112 l 1
 412.12890625 68.9462890625 421.905273438 229.84765625 418 394 c 9
101 149 m 1
 107 187.965820312 l 1
 235.759765625 185.998046875 584.572265625 191.107421875 680 198 c 9
 693 103 l 17
 71 100 l 1
 41 139 l 1
 160.438476562 294.509765625 270.741210938 517.298828125 306 653 c 1
 342.173378596 674.815429688 379.148073227 700.961914062 449 664 c 5
 414.678861405 546.94140625 240.988930325 244.427734375 101 149 c 1
EndSplineSet
Fore
SplineSet
418 394 m 9
 418 394 472.127236054 430.795898438 535 450 c 1
 511.643554688 161.8046875 506.552734375 64.859375 517 -112 c 1
 400 -112 l 1
 412.12890625 68.9462890625 421.905273438 229.84765625 418 394 c 9
101 149 m 1
 107 187.965820312 l 1
 235.759765625 185.998046875 584.572265625 191.107421875 680 198 c 9
 693 103 l 17
 71 100 l 1
 41 139 l 1
 160.438476562 294.509765625 270.741210938 517.298828125 306 653 c 1
 342.173378596 674.815429688 379.148073227 700.961914062 449 664 c 5
 414.678861405 546.94140625 240.988930325 244.427734375 101 149 c 1
EndSplineSet
EndChar

StartChar: five
Encoding: 21 53 121
Width: 594
VWidth: 153
Flags: HW
HStem: 564 112<324.87 473> 572 98<174 434.269>
VStem: 413 120<36.7302 208.446>
LayerCount: 2
Back
SplineSet
84 330 m 1x60
 96.01171875 448.706054688 104.916992188 539.622070312 112 670 c 1x60
 223.895289157 663.987799865 380.93359375 669.82421875 477.461914062 676 c 1
 473 556 l 1xa0
 345.174804688 563.736328125 314.357421875 564 174 564 c 1
 166.451171875 401.630859375 l 5
 363.549804688 402.005859375 527.254882812 323.752929688 533 147 c 0
 538.49609375 -22.080078125 384.369140625 -104.45703125 279 -122 c 0
 196.348632812 -135.760742188 76.0654296875 -126.888671875 49 -112 c 1
 39.4091796875 -73.81640625 47.1064453125 -14.2958984375 75 35 c 1
 101.126953125 -15.0263671875 166.561523438 -72.0087890625 270 -58 c 0
 352.681640625 -46.802734375 400.10546875 13.1591796875 401 112 c 4
 402.305664062 256.270507812 292.4921875 342.71875 84 330 c 1x60
EndSplineSet
Fore
SplineSet
84 330 m 1x60
 96.01171875 448.706054688 104.916992188 539.622070312 112 670 c 1x60
 223.895289157 663.987799865 380.93359375 669.82421875 477.461914062 676 c 1
 473 556 l 1xa0
 345.174804688 563.736328125 314.357421875 564 174 564 c 1
 166.451171875 401.630859375 l 5
 363.549804688 402.005859375 527.254882812 323.752929688 533 147 c 0
 538.49609375 -22.080078125 384.369140625 -104.45703125 279 -122 c 0
 196.348632812 -135.760742188 76.0654296875 -126.888671875 49 -112 c 1
 39.4091796875 -73.81640625 47.1064453125 -14.2958984375 75 35 c 1
 101.126953125 -15.0263671875 166.561523438 -72.0087890625 270 -58 c 0
 352.681640625 -46.802734375 400.10546875 13.1591796875 401 112 c 4
 402.305664062 256.270507812 292.4921875 342.71875 84 330 c 1x60
EndSplineSet
EndChar

StartChar: six
Encoding: 22 54 122
Width: 658
VWidth: 153
Flags: HW
HStem: -13.9893 60.1377<283.762 418.785> 424.196 83.7139<276.474 420.689> 741 54.6719<417.331 531.709>
VStem: 495.13 112.426<152.762 348.618>
LayerCount: 2
Back
SplineSet
540 741 m 17
 284.46484375 743.53515625 177.043333472 492.340656466 192.689453125 277.728515625 c 0
 203.114023512 134.738469679 259.487304688 45.5869140625 350.592773438 46.1484375 c 0
 439.186523438 46.611328125 486.3359375 128.610351562 489.129882812 241.5546875 c 0
 492.34765625 371.654296875 422.583007812 421.510742188 353.522460938 424.196289062 c 0
 236.6875 428.739257812 175.09765625 346.076171875 163 335 c 1
 165.350585938 335.498046875 139.87109375 371.251953125 142 372 c 1
 224.063476562 486.946289062 317.6953125 508.44921875 382.149414062 507.91015625 c 0
 481.986535498 507.075167522 612.190429688 434.206054688 607.555664062 252.581054688 c 0
 603.4296875 115.400390625 506.555664062 -16.080078125 326.201171875 -13.9892578125 c 0
 134.858398438 -11.2333984375 77.0078125 168.609375 74.05078125 283 c 0
 66.095703125 586.403320312 240.883789062 743.340820312 426 787.263671875 c 0
 459.522460938 795.217773438 497.977539062 800.2578125 531.708984375 795.671875 c 1
 540 741 l 17
EndSplineSet
Fore
SplineSet
540 741 m 17
 284.46484375 743.53515625 177.043333472 492.340656466 192.689453125 277.728515625 c 0
 203.114023512 134.738469679 259.487304688 45.5869140625 350.592773438 46.1484375 c 0
 439.186523438 46.611328125 486.3359375 128.610351562 489.129882812 241.5546875 c 0
 492.34765625 371.654296875 422.583007812 421.510742188 353.522460938 424.196289062 c 0
 236.6875 428.739257812 175.09765625 346.076171875 163 335 c 1
 165.350585938 335.498046875 139.87109375 371.251953125 142 372 c 1
 224.063476562 486.946289062 317.6953125 508.44921875 382.149414062 507.91015625 c 0
 481.986535498 507.075167522 612.190429688 434.206054688 607.555664062 252.581054688 c 0
 603.4296875 115.400390625 506.555664062 -16.080078125 326.201171875 -13.9892578125 c 0
 134.858398438 -11.2333984375 77.0078125 168.609375 74.05078125 283 c 0
 66.095703125 586.403320312 240.883789062 743.340820312 426 787.263671875 c 0
 459.522460938 795.217773438 497.977539062 800.2578125 531.708984375 795.671875 c 1
 540 741 l 17
EndSplineSet
EndChar

StartChar: seven
Encoding: 23 55 123
Width: 662
VWidth: 0
Flags: W
HStem: 573 92<180.888 542> 581 20G<451.523 541.315> 652 20G<525.717 590.037>
LayerCount: 2
Back
SplineSet
80 665 m 1x80
 265.745117188 659.282226562 478.43359375 666.469726562 573 672 c 1
 619 618 l 5
 475.087890625 456.462890625 300.962890625 126.818359375 241 -128 c 5
 191.982421875 -127.92578125 144.193359375 -108.295898438 130 -75 c 5
 175.22265625 86.9560546875 363.444335938 451.646484375 539.6015625 601 c 1x60
 542 573 l 1
 253.124023438 573 l 1
 170.416015625 568.975585938 134.612304688 512.17578125 119 470 c 1
 72 465 l 1
 80 665 l 1x80
EndSplineSet
Fore
SplineSet
80 665 m 1x80
 265.745117188 659.282226562 478.43359375 666.469726562 573 672 c 1
 619 618 l 5
 475.087890625 456.462890625 300.962890625 126.818359375 241 -128 c 5
 191.982421875 -127.92578125 144.193359375 -108.295898438 130 -75 c 5
 175.22265625 86.9560546875 363.444335938 451.646484375 539.6015625 601 c 1x60
 542 573 l 1
 253.124023438 573 l 1
 170.416015625 568.975585938 134.612304688 512.17578125 119 470 c 1
 72 465 l 1
 80 665 l 1x80
EndSplineSet
EndChar

StartChar: eight
Encoding: 24 56 124
Width: 626
VWidth: 153
Flags: HW
HStem: -24.9893 63.1377<217.751 378.227> 729 61.7139<224.772 371.07>
VStem: 31 119<105.176 260.817> 425 104<514.48 673.751> 438 118<100.287 251.968>
LayerCount: 2
Back
SplineSet
185 597 m 0xe8
 178.835922721 682.760506178 241.064453125 731.942382812 309 731 c 4
 389.118164062 729.922851562 434.44140625 671.887695312 435 596 c 0
 435.471679688 524.233398438 380.927734375 443.09765625 320 420 c 1
 348 390 l 1
 420.078125 396.875976562 536.644961191 464.514760679 539 597 c 4xf0
 541.08984375 714.56640625 439.662109375 791.943359375 313 790.713867188 c 0
 186.431640625 789.434570312 70.0693359375 708.654296875 77 568 c 0
 88.677734375 331.010742188 433.971679688 382.666015625 437 192 c 0
 438.244140625 113.67578125 404.384749828 39.7887206706 309 38.1484375 c 4
 211.096679688 36.46484375 167.299804688 111.211914062 167 183 c 0
 166.7265625 248.495117188 200.333007812 315.018554688 288 350 c 0
 292.915039062 351.9609375 276.701171875 391.338867188 282 392 c 1
 133.231445312 383.083007812 48 280.234375 48 174 c 0
 48 74 114.421875 -26.43359375 308 -24.9892578125 c 0
 442.01953125 -23.9580078125 560.465820312 53.3896484375 565 184 c 0
 574.352539062 446.525390625 198.338867188 411.416992188 185 597 c 0xe8
EndSplineSet
Fore
SplineSet
185 597 m 0xe8
 178.835922721 682.760506178 241.064453125 731.942382812 309 731 c 4
 389.118164062 729.922851562 434.44140625 671.887695312 435 596 c 0
 435.471679688 524.233398438 380.927734375 443.09765625 320 420 c 1
 348 390 l 1
 420.078125 396.875976562 536.644961191 464.514760679 539 597 c 4xf0
 541.08984375 714.56640625 439.662109375 791.943359375 313 790.713867188 c 0
 186.431640625 789.434570312 70.0693359375 708.654296875 77 568 c 0
 88.677734375 331.010742188 433.971679688 382.666015625 437 192 c 0
 438.244140625 113.67578125 404.384749828 39.7887206706 309 38.1484375 c 4
 211.096679688 36.46484375 167.299804688 111.211914062 167 183 c 0
 166.7265625 248.495117188 200.333007812 315.018554688 288 350 c 0
 292.915039062 351.9609375 276.701171875 391.338867188 282 392 c 1
 133.231445312 383.083007812 48 280.234375 48 174 c 0
 48 74 114.421875 -26.43359375 308 -24.9892578125 c 0
 442.01953125 -23.9580078125 560.465820312 53.3896484375 565 184 c 0
 574.352539062 446.525390625 198.338867188 411.416992188 185 597 c 0xe8
EndSplineSet
EndChar

StartChar: nine
Encoding: 25 57 125
Width: 633
VWidth: 153
Flags: HW
LayerCount: 2
Back
SplineSet
122 -64 m 21
 161.977539062 -64.396484375 198.182819958 -58.7055057191 230.758129075 -48.000001578 c 0
 406.403921059 9.7239864495 476.509205057 213.234365528 463.310546875 394.271484375 c 0
 452.885742188 537.26171875 402.512695312 626.413085938 311.407226562 625.8515625 c 0
 222.813476562 625.388671875 175.6640625 543.389648438 172.870117188 430.4453125 c 0
 169.65234375 300.345703125 239.416992188 250.489257812 308.477539062 247.803710938 c 0
 425.3125 243.260742188 486.90234375 325.923828125 499 337 c 1
 496.649414062 336.501953125 522.12890625 300.748046875 520 300 c 1
 437.936523438 185.053710938 344.3046875 163.55078125 279.850585938 164.08984375 c 0
 180.013671875 164.924804688 49.8095703125 237.793945312 54.4443359375 419.418945312 c 0
 58.5703125 556.599609375 155.444335938 688.080078125 335.798828125 685.989257812 c 0
 527.141601562 683.233398438 584.9921875 503.390625 587.94921875 389 c 0
 595.904296875 85.5966796875 421.116210938 -71.3408203125 236 -115.263671875 c 0
 202.477539062 -123.217773438 164.022460938 -128.2578125 130.291015625 -123.671875 c 1
 122 -64 l 21
EndSplineSet
Fore
SplineSet
122 -64 m 21
 161.977539062 -64.396484375 198.182819958 -58.7055057191 230.758129075 -48.000001578 c 0
 406.403921059 9.7239864495 476.509205057 213.234365528 463.310546875 394.271484375 c 0
 452.885742188 537.26171875 402.512695312 626.413085938 311.407226562 625.8515625 c 0
 222.813476562 625.388671875 175.6640625 543.389648438 172.870117188 430.4453125 c 0
 169.65234375 300.345703125 239.416992188 250.489257812 308.477539062 247.803710938 c 0
 425.3125 243.260742188 486.90234375 325.923828125 499 337 c 1
 496.649414062 336.501953125 522.12890625 300.748046875 520 300 c 1
 437.936523438 185.053710938 344.3046875 163.55078125 279.850585938 164.08984375 c 0
 180.013671875 164.924804688 49.8095703125 237.793945312 54.4443359375 419.418945312 c 0
 58.5703125 556.599609375 155.444335938 688.080078125 335.798828125 685.989257812 c 0
 527.141601562 683.233398438 584.9921875 503.390625 587.94921875 389 c 0
 595.904296875 85.5966796875 421.116210938 -71.3408203125 236 -115.263671875 c 0
 202.477539062 -123.217773438 164.022460938 -128.2578125 130.291015625 -123.671875 c 1
 122 -64 l 21
EndSplineSet
EndChar

StartChar: plus
Encoding: 11 43 130
Width: 618
VWidth: 153
Flags: HW
HStem: 328 105<101 269.508 373.996 518.42>
LayerCount: 2
Back
SplineSet
272 632 m 1
 354 618 l 1
 344 425 344 303 354 131 c 1
 327 133 306 139 272 141 c 1
 272 632 l 1
47 343 m 5
 61 432 l 5
 254 422 396 422 568 432 c 5
 566 405 560 377 558 343 c 5
 47 343 l 5
EndSplineSet
Fore
SplineSet
272 632 m 1
 354 618 l 1
 344 425 344 303 354 131 c 1
 327 133 306 139 272 141 c 1
 272 632 l 1
47 343 m 5
 61 432 l 5
 254 422 396 422 568 432 c 5
 566 405 560 377 558 343 c 5
 47 343 l 5
EndSplineSet
EndChar

StartChar: slash
Encoding: 15 47 131
Width: 533
VWidth: 0
Flags: HW
LayerCount: 2
Back
SplineSet
4 -80 m 17
 426 842 l 9
 528 846 l 17
 499.073242188 787.296875 443.291015625 669.911132812 392.92578125 560 c 0
 105 -80 l 9
 4 -80 l 17
EndSplineSet
Fore
SplineSet
4 -80 m 17
 426 842 l 9
 528 846 l 17
 499.073242188 787.296875 443.291015625 669.911132812 392.92578125 560 c 0
 105 -80 l 9
 4 -80 l 17
EndSplineSet
EndChar

StartChar: equal
Encoding: 29 61 133
Width: 580
VWidth: 153
Flags: HW
HStem: 328 105<53 221.508 325.996 470.42>
LayerCount: 2
Back
SplineSet
35 228 m 5
 49 328 l 5
 242 318 374 318 546 328 c 1
 544 301 538 262 536 228 c 1
 35 228 l 5
39 403 m 1
 53 494 l 1
 246 484 378 484 550 494 c 1
 548 467 542 437 540 403 c 1
 39 403 l 1
EndSplineSet
Fore
SplineSet
35 228 m 5
 49 328 l 5
 242 318 374 318 546 328 c 1
 544 301 538 262 536 228 c 1
 35 228 l 5
39 403 m 1
 53 494 l 1
 246 484 378 484 550 494 c 1
 548 467 542 437 540 403 c 1
 39 403 l 1
EndSplineSet
EndChar

StartChar: braceleft
Encoding: 91 123 140
Width: 437
VWidth: 153
Flags: HW
LayerCount: 2
Back
SplineSet
75 409.110351562 m 5
 112.748046875 407.37890625 215.795898438 414.577148438 249 406.65625 c 1
 249 381.09375 l 1
 299.928710938 359.192382812 340.061523438 321.284179688 339.958007812 256 c 0
 339.833984375 177.22265625 304.471679688 140.698242188 301.833007812 81 c 0
 299.447265625 27.01953125 313.498046875 -20.5888671875 380 -50 c 1
 357 -99 l 1
 292.8671875 -89.951171875 196.255859375 -31.359375 193.28125 62 c 4
 188.97265625 197.212890625 308.169921875 351.99609375 75 357 c 5
 75 409.110351562 l 5
75 366.889648438 m 5
 75 419 l 5
 308.169921875 424.00390625 183.97265625 574.787109375 188.28125 710 c 4
 191.255859375 803.359375 289.8671875 863.951171875 343 880 c 1
 374 842 l 1
 307.498046875 812.588867188 297.064453125 771.01953125 295.833007812 717 c 0
 294.471679688 657.301757812 333.833984375 598.77734375 333.958007812 520 c 0
 334.147460938 400.05859375 197.779296875 372.520507812 75 366.889648438 c 5
EndSplineSet
Fore
SplineSet
75 409.110351562 m 5
 112.748046875 407.37890625 215.795898438 414.577148438 249 406.65625 c 1
 249 381.09375 l 1
 299.928710938 359.192382812 340.061523438 321.284179688 339.958007812 256 c 0
 339.833984375 177.22265625 304.471679688 140.698242188 301.833007812 81 c 0
 299.447265625 27.01953125 313.498046875 -20.5888671875 380 -50 c 1
 357 -99 l 1
 292.8671875 -89.951171875 196.255859375 -31.359375 193.28125 62 c 4
 188.97265625 197.212890625 308.169921875 351.99609375 75 357 c 5
 75 409.110351562 l 5
75 366.889648438 m 5
 75 419 l 5
 308.169921875 424.00390625 183.97265625 574.787109375 188.28125 710 c 4
 191.255859375 803.359375 289.8671875 863.951171875 343 880 c 1
 374 842 l 1
 307.498046875 812.588867188 297.064453125 771.01953125 295.833007812 717 c 0
 294.471679688 657.301757812 333.833984375 598.77734375 333.958007812 520 c 0
 334.147460938 400.05859375 197.779296875 372.520507812 75 366.889648438 c 5
EndSplineSet
EndChar

StartChar: bar
Encoding: 92 124 141
Width: 195
VWidth: 153
Flags: HW
LayerCount: 2
Back
SplineSet
60 -114 m 1
 60 840 l 1
 124 840 l 1
 124 -114 l 1
 60 -114 l 1
EndSplineSet
Fore
SplineSet
60 -114 m 1
 60 840 l 1
 124 840 l 1
 124 -114 l 1
 60 -114 l 1
EndSplineSet
EndChar

StartChar: macron
Encoding: 108 175 155
Width: 0
VWidth: 0
Flags: W
HStem: 663 54<-119.593 -95.2366>
AnchorPoint: "top" 1 612 mark 0
LayerCount: 2
Back
SplineSet
-137 717 m 13
 -117 663 l 21
 1 698 88 745 151 781 c 13
 91 875 l 21
 48 819 -65 749 -137 717 c 13
EndSplineSet
Fore
SplineSet
-137 717 m 13
 -117 663 l 21
 1 698 88 745 151 781 c 13
 91 875 l 21
 48 819 -65 749 -137 717 c 13
EndSplineSet
EndChar

StartChar: cedilla
Encoding: 117 184 163
Width: 0
VWidth: 79
Flags: W
HStem: -311 58<-99.498 58.8114>
VStem: -50 63<-49.6154 0> 89 114<-224.924 -151.395>
AnchorPoint: "bottom" -18 0 mark 0
AnchorPoint: "top" -18 0 mark 0
LayerCount: 2
Back
SplineSet
-50 0 m 17
 -29 -0.428343938511 -8 0.298484957662 13 1 c 9
 26 -93 l 17
 29.2880859375 -91.8564453125 -5.375 -85.8037109375 -2 -84.8447265625 c 1
 14.953125 -79.25390625 45.8112827728 -69.4402015081 83 -69.6982421875 c 0
 156.22003526 -70.2062927215 202.914891831 -103.905285158 203 -159 c 0
 203.142578125 -251.297851562 121.240234375 -309.59765625 0 -311 c 0
 -61.6982421875 -311.713867188 -104 -293 -126 -283 c 9
 -101 -234 l 17
 -69 -249 -34.2333984375 -253.73828125 -1 -253 c 0
 44 -252 89 -223 89 -184 c 0
 89 -132 -3 -136 -60 -143 c 9
 -50 0 l 17
EndSplineSet
Fore
SplineSet
-50 0 m 17
 -29 -0.428343938511 -8 0.298484957662 13 1 c 9
 26 -93 l 17
 29.2880859375 -91.8564453125 -5.375 -85.8037109375 -2 -84.8447265625 c 1
 14.953125 -79.25390625 45.8112827728 -69.4402015081 83 -69.6982421875 c 0
 156.22003526 -70.2062927215 202.914891831 -103.905285158 203 -159 c 0
 203.142578125 -251.297851562 121.240234375 -309.59765625 0 -311 c 0
 -61.6982421875 -311.713867188 -104 -293 -126 -283 c 9
 -101 -234 l 17
 -69 -249 -34.2333984375 -253.73828125 -1 -253 c 0
 44 -252 89 -223 89 -184 c 0
 89 -132 -3 -136 -60 -143 c 9
 -50 0 l 17
EndSplineSet
EndChar

StartChar: ae
Encoding: 163 230 189
Width: 1046
VWidth: 0
Flags: HW
LayerCount: 2
Back
SplineSet
95 125 m 0
 95 226 165 296 320 331 c 0
 412 352 486 356 486 356 c 1
 486 273 l 1
 486 273 422 299 345 288 c 0
 268 277 223 218 221 160 c 0
 219 96 256.875976562 62.376953125 314 61 c 0
 397 59 454 118 460 159 c 1
 488 119 l 1
 488 119 438 -13 258 -13 c 0
 167 -13 95 32 95 125 c 0
135 539 m 1
 184 566 300 611 389 611 c 0
 535 611 569 505 572 443 c 0
 575.771484375 365.065429688 557 184 574 113 c 0
 463 109 l 1
 453 109 l 1
 465 198 469 406 455 464 c 0
 434 553 374 564 329 556 c 0
 271 545 245 507 214 474 c 1
 270 557 l 1
 249 512 232 469 226 401 c 1
 138 392 l 1
 132 459 135 539 135 539 c 1
EndSplineSet
Refer: 5 101 N 1 0 0 1 422 0 2
Fore
SplineSet
95 125 m 0
 95 226 165 296 320 331 c 0
 412 352 486 356 486 356 c 1
 486 273 l 1
 486 273 422 299 345 288 c 0
 268 277 223 218 221 160 c 0
 219 96 256.875976562 62.376953125 314 61 c 0
 397 59 454 118 460 159 c 1
 488 119 l 1
 488 119 438 -13 258 -13 c 0
 167 -13 95 32 95 125 c 0
135 539 m 1
 184 566 300 611 389 611 c 0
 535 611 569 505 572 443 c 0
 575.771484375 365.065429688 557 184 574 113 c 0
 463 109 l 1
 453 109 l 1
 465 198 469 406 455 464 c 0
 434 553 374 564 329 556 c 0
 271 545 245 507 214 474 c 1
 270 557 l 1
 249 512 232 469 226 401 c 1
 138 392 l 1
 132 459 135 539 135 539 c 1
EndSplineSet
Refer: 5 101 N 1 0 0 1 422 0 2
EndChar

StartChar: dotlessi
Encoding: 189 305 201
Width: 412
VWidth: 79
Flags: W
HStem: 0 61<57 134.267> 0 51<330.401 364> 526 63<55 157.791> 590 20G<283.5 296>
VStem: 168 104<210.823 411.684>
AnchorPoint: "top" 181 613 mark 0
LayerCount: 2
Back
SplineSet
47 61 m 1xb8
 123 57 156 89 163 137 c 1
 272 146 l 1
 270 51 346 50 364 51 c 1
 374 0 l 1x78
 57 0 l 1
 47 61 l 1xb8
48 589 m 1
 131 587 296 610 296 610 c 1
 271 397 268 208 272 145 c 0
 275 101 254 49 336 49 c 1
 320 1 l 1
 134 0 l 1xb8
 134 0 154 72 162 136 c 0
 172 271 173 289 168 479 c 0
 163 523 133 526 55 526 c 1
 48 589 l 1
EndSplineSet
Fore
SplineSet
47 61 m 1xb8
 123 57 156 89 163 137 c 1
 272 146 l 1
 270 51 346 50 364 51 c 1
 374 0 l 1x78
 57 0 l 1
 47 61 l 1xb8
48 589 m 1
 131 587 296 610 296 610 c 1
 271 397 268 208 272 145 c 0
 275 101 254 49 336 49 c 1
 320 1 l 1
 134 0 l 1xb8
 134 0 154 72 162 136 c 0
 172 271 173 289 168 479 c 0
 163 523 133 526 55 526 c 1
 48 589 l 1
EndSplineSet
EndChar

StartChar: oe
Encoding: 193 339 205
Width: 1075
VWidth: 0
Flags: HW
LayerCount: 2
Back
SplineSet
44 246 m 0
 42 466 179 616 362 615 c 0
 516 614 622 531 616 324 c 0
 611 148 522 -21.982421875 299 -18 c 0
 131 -15 45 90 44 246 c 0
171 318 m 0
 166 156 230 31 344 44 c 0
 441 55 494 168 498 298 c 0
 503 455 424 566 313 556 c 0
 267 552 176 505 171 318 c 0
513 230 m 0
 499.409179688 479.856445312 647.481445312 608.546875 797 610.306640625 c 0
 949.122070312 612.096679688 1057.015625 504.470703125 1025 298 c 1
 623 296 l 1
 593 344 l 1
 850 367 l 1
 910 368 l 1
 900.612304688 506.48828125 839.946289062 561.018554688 777 559.377929688 c 0
 680.904296875 556.874023438 632.025390625 460.888671875 635 329 c 0
 637 228 658 78 796 53 c 0
 899 34 989 102 991 102 c 1
 1015 68 l 1
 996 51 921 -19 794 -21 c 0
 667 -23 524 26 513 230 c 0
EndSplineSet
Fore
SplineSet
44 246 m 0
 42 466 179 616 362 615 c 0
 516 614 622 531 616 324 c 0
 611 148 522 -21.982421875 299 -18 c 0
 131 -15 45 90 44 246 c 0
171 318 m 0
 166 156 230 31 344 44 c 0
 441 55 494 168 498 298 c 0
 503 455 424 566 313 556 c 0
 267 552 176 505 171 318 c 0
513 230 m 0
 499.409179688 479.856445312 647.481445312 608.546875 797 610.306640625 c 0
 949.122070312 612.096679688 1057.015625 504.470703125 1025 298 c 1
 623 296 l 1
 593 344 l 1
 850 367 l 1
 910 368 l 1
 900.612304688 506.48828125 839.946289062 561.018554688 777 559.377929688 c 0
 680.904296875 556.874023438 632.025390625 460.888671875 635 329 c 0
 637 228 658 78 796 53 c 0
 899 34 989 102 991 102 c 1
 1015 68 l 1
 996 51 921 -19 794 -21 c 0
 667 -23 524 26 513 230 c 0
EndSplineSet
EndChar

StartChar: circumflex
Encoding: 200 710 211
Width: 0
VWidth: 0
Flags: W
HStem: 669 187.297
AnchorPoint: "top" 0 612 mark 0
LayerCount: 2
Back
SplineSet
27.11328125 856.296875 m 5
 52.228515625 810.924804688 109.282226562 755.928710938 180.251953125 724 c 5
 151.532226562 669 l 5
 102.493164062 678.287109375 28.869140625 728.86328125 -0.603515625 762.340820312 c 5
 -31.330078125 728.83984375 -109.166015625 685.009765625 -153.3046875 669 c 5
 -185.151367188 724 l 5
 -105.079101562 767.331054688 -51.3603515625 811.86328125 -25.9384765625 855.736328125 c 5
 27.11328125 856.296875 l 5
EndSplineSet
Fore
SplineSet
27.11328125 856.296875 m 5
 52.228515625 810.924804688 109.282226562 755.928710938 180.251953125 724 c 5
 151.532226562 669 l 5
 102.493164062 678.287109375 28.869140625 728.86328125 -0.603515625 762.340820312 c 5
 -31.330078125 728.83984375 -109.166015625 685.009765625 -153.3046875 669 c 5
 -185.151367188 724 l 5
 -105.079101562 767.331054688 -51.3603515625 811.86328125 -25.9384765625 855.736328125 c 5
 27.11328125 856.296875 l 5
EndSplineSet
EndChar

StartChar: ogonek
Encoding: 205 731 215
Width: 0
VWidth: 79
Flags: W
HStem: -301 58<-99.498 59.2745>
VStem: -50 63<-44.2308 0>
AnchorPoint: "bottom" -21 1 mark 0
LayerCount: 2
Back
SplineSet
-50 0 m 17
 -29 -0.407520818051 -8 0.22395430265 13 1 c 9
 26 -83 l 17
 29.2880859375 -81.8564453125 -5.375 -81.8037109375 -2 -80.8447265625 c 1
 14.953125 -75.25390625 46.8134765625 -60.16015625 94 -59.6982421875 c 0
 155.220703125 -59.0986328125 205.904296875 -92.9052734375 203 -147 c 0
 198.587890625 -229.1796875 111.240234375 -299.59765625 -10 -301 c 0
 -71.6980790505 -301.713640286 -104 -283 -126 -273 c 9
 -101 -224 l 17
 -69 -239 -34.2333984375 -243.73828125 -1 -243 c 0
 44 -242 89 -213 89 -174 c 0
 89 -122 -3 -126 -60 -133 c 9
 -50 0 l 17
EndSplineSet
Fore
SplineSet
-50 0 m 17
 -29 -0.407520818051 -8 0.22395430265 13 1 c 9
 26 -83 l 17
 29.2880859375 -81.8564453125 -5.375 -81.8037109375 -2 -80.8447265625 c 1
 14.953125 -75.25390625 46.8134765625 -60.16015625 94 -59.6982421875 c 0
 155.220703125 -59.0986328125 205.904296875 -92.9052734375 203 -147 c 0
 198.587890625 -229.1796875 111.240234375 -299.59765625 -10 -301 c 0
 -71.6980790505 -301.713640286 -104 -283 -126 -273 c 9
 -101 -224 l 17
 -69 -239 -34.2333984375 -243.73828125 -1 -243 c 0
 44 -242 89 -213 89 -174 c 0
 89 -122 -3 -126 -60 -133 c 9
 -50 0 l 17
EndSplineSet
EndChar

StartChar: endash
Encoding: 208 8211 218
Width: 500
VWidth: 0
Flags: W
HStem: 328 105<39 460>
LayerCount: 2
Back
SplineSet
39 328 m 1
 39 433 l 1
 460 433 l 1
 460 328 l 1
 39 328 l 1
EndSplineSet
Fore
SplineSet
39 328 m 1
 39 433 l 1
 460 433 l 1
 460 328 l 1
 39 328 l 1
EndSplineSet
EndChar

StartChar: quoteleft
Encoding: 210 8216 219
Width: 210
VWidth: 79
Flags: HW
LayerCount: 2
Back
SplineSet
153 553 m 1
 142.122070312 646.560546875 154.869140625 713.220703125 175.125976562 778 c 0
 134 806 l 0
 73 757 29 658 33 573 c 1
 65 535 133 542 153 553 c 1
EndSplineSet
Fore
SplineSet
153 553 m 1
 142.122070312 646.560546875 154.869140625 713.220703125 175.125976562 778 c 0
 134 806 l 0
 73 757 29 658 33 573 c 1
 65 535 133 542 153 553 c 1
EndSplineSet
EndChar

StartChar: A.sc
Encoding: 230 -1 235
Width: 771
VWidth: 79
Flags: HW
LayerCount: 2
Back
SplineSet
37.775390625 51.775390625 m 1
 98.125 52.625 119.375 73.025390625 135.525390625 115.525390625 c 0
 214.575195312 320.375 273.224609375 504.825195312 319.974609375 662.075195312 c 1
 353.125 667.174804688 418.924804688 677.375 452.075195312 688.424804688 c 1
 503.924804688 509.924804688 562.575195312 355.224609375 647.575195312 127.424804688 c 0
 662.025390625 88.3251953125 679.875 44.974609375 737.674804688 46.6748046875 c 1
 746.174804688 -0.0751953125 l 1
 650.974609375 -0.0751953125 548.275390625 -0.0751953125 453.075195312 -0.0751953125 c 1
 444.575195312 45.8251953125 l 1
 504.924804688 44.974609375 539.775390625 55.1748046875 526.174804688 105.325195312 c 0
 497.275390625 211.575195312 434.375 345.875 397.825195312 469.125 c 0
 391.025390625 502.275390625 378.275390625 549.025390625 371.474609375 583.875 c 1
 320.474609375 407.075195312 242.275390625 178.424804688 229.525390625 123.174804688 c 0
 211.674804688 41.5751953125 270.325195312 42.4248046875 311.125 43.275390625 c 1
 319.625 -0.0751953125 l 1
 227.825195312 -0.0751953125 138.075195312 -0.0751953125 46.275390625 -0.0751953125 c 1
 37.775390625 51.775390625 l 1
247.375 222 m 1
 247.375 290 l 1
 521.924804688 290 l 1
 521.924804688 222 l 1
 247.375 222 l 1
EndSplineSet
Fore
SplineSet
37.775390625 51.775390625 m 1
 98.125 52.625 119.375 73.025390625 135.525390625 115.525390625 c 0
 214.575195312 320.375 273.224609375 504.825195312 319.974609375 662.075195312 c 1
 353.125 667.174804688 418.924804688 677.375 452.075195312 688.424804688 c 1
 503.924804688 509.924804688 562.575195312 355.224609375 647.575195312 127.424804688 c 0
 662.025390625 88.3251953125 679.875 44.974609375 737.674804688 46.6748046875 c 1
 746.174804688 -0.0751953125 l 1
 650.974609375 -0.0751953125 548.275390625 -0.0751953125 453.075195312 -0.0751953125 c 1
 444.575195312 45.8251953125 l 1
 504.924804688 44.974609375 539.775390625 55.1748046875 526.174804688 105.325195312 c 0
 497.275390625 211.575195312 434.375 345.875 397.825195312 469.125 c 0
 391.025390625 502.275390625 378.275390625 549.025390625 371.474609375 583.875 c 1
 320.474609375 407.075195312 242.275390625 178.424804688 229.525390625 123.174804688 c 0
 211.674804688 41.5751953125 270.325195312 42.4248046875 311.125 43.275390625 c 1
 319.625 -0.0751953125 l 1
 227.825195312 -0.0751953125 138.075195312 -0.0751953125 46.275390625 -0.0751953125 c 1
 37.775390625 51.775390625 l 1
247.375 222 m 1
 247.375 290 l 1
 521.924804688 290 l 1
 521.924804688 222 l 1
 247.375 222 l 1
EndSplineSet
EndChar

StartChar: B.sc
Encoding: 231 -1 236
Width: 662
VWidth: 79
Flags: HW
LayerCount: 2
Back
SplineSet
48.826171875 678.525390625 m 1
 208.625976562 668.325195312 268.975585938 682.775390625 396.475585938 682.775390625 c 0
 511.225585938 682.775390625 580.076171875 627.525390625 580.92578125 525.525390625 c 0
 581.776367188 445.625 525.67578125 354.674804688 434.725585938 350.424804688 c 1
 461.92578125 371.674804688 l 1
 563.92578125 358.075195312 628.693359375 274.7734375 627.67578125 187.224609375 c 0
 625.975585938 41.025390625 485.725585938 0.224609375 348.875976562 0.224609375 c 0
 291.069335938 0.224609375 125.326171875 0.224609375 62.42578125 0.224609375 c 1
 53.92578125 52.0751953125 l 1
 121.076171875 43.5751953125 147.42578125 65.6748046875 149.125976562 108.174804688 c 0
 156.776367188 290.924804688 159.326171875 398.025390625 152.526367188 534.025390625 c 0
 149.975585938 583.325195312 135.526367188 630.924804688 57.326171875 624.974609375 c 1
 48.826171875 678.525390625 l 1
258.776367188 318.974609375 m 1
 257.92578125 233.974609375 257.92578125 167.674804688 266.42578125 104.775390625 c 0
 272.375976562 55.474609375 319.125976562 52.0751953125 364.17578125 52.0751953125 c 0
 460.225585938 52.9248046875 513.975585938 101.375 513.975585938 186.375 c 0
 513.975585938 260.325195312 463.625976562 325.775390625 374.375976562 328.325195312 c 0
 337.826171875 329.174804688 288.526367188 324.924804688 258.776367188 318.974609375 c 1
260.475585938 382.724609375 m 1
 427.076171875 362.325195312 464.67578125 450.724609375 466.375976562 499.174804688 c 4
 468.92578125 575.674804688 427.92578125 633.474609375 361.625976562 635.174804688 c 0
 322.526367188 636.025390625 285.125976562 628.375 265.576171875 620.724609375 c 1
 258.776367188 555.275390625 261.326171875 466.025390625 260.475585938 382.724609375 c 1
EndSplineSet
Fore
SplineSet
48.826171875 678.525390625 m 1
 208.625976562 668.325195312 268.975585938 682.775390625 396.475585938 682.775390625 c 0
 511.225585938 682.775390625 580.076171875 627.525390625 580.92578125 525.525390625 c 0
 581.776367188 445.625 525.67578125 354.674804688 434.725585938 350.424804688 c 1
 461.92578125 371.674804688 l 1
 563.92578125 358.075195312 628.693359375 274.7734375 627.67578125 187.224609375 c 0
 625.975585938 41.025390625 485.725585938 0.224609375 348.875976562 0.224609375 c 0
 291.069335938 0.224609375 125.326171875 0.224609375 62.42578125 0.224609375 c 1
 53.92578125 52.0751953125 l 1
 121.076171875 43.5751953125 147.42578125 65.6748046875 149.125976562 108.174804688 c 0
 156.776367188 290.924804688 159.326171875 398.025390625 152.526367188 534.025390625 c 0
 149.975585938 583.325195312 135.526367188 630.924804688 57.326171875 624.974609375 c 1
 48.826171875 678.525390625 l 1
258.776367188 318.974609375 m 1
 257.92578125 233.974609375 257.92578125 167.674804688 266.42578125 104.775390625 c 0
 272.375976562 55.474609375 319.125976562 52.0751953125 364.17578125 52.0751953125 c 0
 460.225585938 52.9248046875 513.975585938 101.375 513.975585938 186.375 c 0
 513.975585938 260.325195312 463.625976562 325.775390625 374.375976562 328.325195312 c 0
 337.826171875 329.174804688 288.526367188 324.924804688 258.776367188 318.974609375 c 1
260.475585938 382.724609375 m 1
 427.076171875 362.325195312 464.67578125 450.724609375 466.375976562 499.174804688 c 4
 468.92578125 575.674804688 427.92578125 633.474609375 361.625976562 635.174804688 c 0
 322.526367188 636.025390625 285.125976562 628.375 265.576171875 620.724609375 c 1
 258.776367188 555.275390625 261.326171875 466.025390625 260.475585938 382.724609375 c 1
EndSplineSet
EndChar

StartChar: C.sc
Encoding: 232 -1 237
Width: 646
VWidth: 79
Flags: HW
LayerCount: 2
Back
SplineSet
36.5751953125 256.200195312 m 0
 23.8168892478 459.1484375 129.80757505 655.133114818 410.375 677.799804688 c 0
 524.133789062 686.990234375 587.174804688 658.25 587.174804688 658.25 c 1
 589.724609375 614.900390625 586.325195312 504.400390625 577.825195312 468.700195312 c 1
 517.674804688 471.25 l 1
 490.474609375 546.049804688 430.125 631.900390625 391.024414062 637.849609375 c 1
 402.924804688 655.700195312 547.424804688 629.349609375 502.375 548.599609375 c 1
 488.853780159 551.532415213 454.653692641 605.049804688 356.825195312 605.049804688 c 0
 222.524414062 605.049804688 160.861061372 487.236255095 163.924804688 320.799804688 c 0
 166.642747138 170.398718565 218.126875987 60.4892373568 369.375 62 c 4
 453.524414062 62.7917170569 517.274414062 100.46597753 560.625 139.75 c 5
 594.625 103.200195312 l 5
 534.274414062 28.400390625 439.924804688 -15.7998046875 319.224609375 -15.7998046875 c 4
 169.738572134 -15.7998046875 47.3600124278 80.3958410386 36.5751953125 256.200195312 c 0
EndSplineSet
Fore
SplineSet
36.5751953125 256.200195312 m 0
 23.8168892478 459.1484375 129.80757505 655.133114818 410.375 677.799804688 c 0
 524.133789062 686.990234375 587.174804688 658.25 587.174804688 658.25 c 1
 589.724609375 614.900390625 586.325195312 504.400390625 577.825195312 468.700195312 c 1
 517.674804688 471.25 l 1
 490.474609375 546.049804688 430.125 631.900390625 391.024414062 637.849609375 c 1
 402.924804688 655.700195312 547.424804688 629.349609375 502.375 548.599609375 c 1
 488.853780159 551.532415213 454.653692641 605.049804688 356.825195312 605.049804688 c 0
 222.524414062 605.049804688 160.861061372 487.236255095 163.924804688 320.799804688 c 0
 166.642747138 170.398718565 218.126875987 60.4892373568 369.375 62 c 4
 453.524414062 62.7917170569 517.274414062 100.46597753 560.625 139.75 c 5
 594.625 103.200195312 l 5
 534.274414062 28.400390625 439.924804688 -15.7998046875 319.224609375 -15.7998046875 c 4
 169.738572134 -15.7998046875 47.3600124278 80.3958410386 36.5751953125 256.200195312 c 0
EndSplineSet
EndChar

StartChar: D.sc
Encoding: 233 -1 238
Width: 743
VWidth: 79
Flags: HW
LayerCount: 2
Back
SplineSet
45.1767578125 678.491210938 m 1
 220.907405241 668.291992188 355.452036562 682.741210938 437.826171875 682.741210938 c 0
 575.359533672 682.741210938 700.614054775 607.94140625 698.9765625 397.141601562 c 0
 695.666069843 124.291992188 559.952033548 3.591796875 330.7265625 0.19140625 c 0
 266.2926392 -0.658203125 128.896309062 0.19140625 58.7763671875 0.19140625 c 1
 50.2763671875 52.0419921875 l 1
 108.926757812 48.6416015625 143.776367188 71.591796875 145.4765625 114.091796875 c 0
 153.125976562 296.841796875 155.676757812 397.991210938 148.875976562 533.991210938 c 0
 146.326171875 583.291992188 131.875976562 630.891601562 53.6767578125 624.94140625 c 1
 45.1767578125 678.491210938 l 1
272.926757812 611.341796875 m 1
 259.326171875 410.741210938 260.875 287.326171875 273.776367188 120.891601562 c 0
 277.875 68.025390625 317.9765625 63.091796875 363.026367188 63.94140625 c 0
 505.872533922 65.6416015625 570.93891733 166.791992188 575.426757812 316.391601562 c 4
 581.364135214 506.791992188 500.464703425 624.091796875 375.776367188 627.491210938 c 0
 329.875976562 628.341796875 295.875976562 619.841796875 272.926757812 611.341796875 c 1
EndSplineSet
Fore
SplineSet
45.1767578125 678.491210938 m 1
 220.907405241 668.291992188 355.452036562 682.741210938 437.826171875 682.741210938 c 0
 575.359533672 682.741210938 700.614054775 607.94140625 698.9765625 397.141601562 c 0
 695.666069843 124.291992188 559.952033548 3.591796875 330.7265625 0.19140625 c 0
 266.2926392 -0.658203125 128.896309062 0.19140625 58.7763671875 0.19140625 c 1
 50.2763671875 52.0419921875 l 1
 108.926757812 48.6416015625 143.776367188 71.591796875 145.4765625 114.091796875 c 0
 153.125976562 296.841796875 155.676757812 397.991210938 148.875976562 533.991210938 c 0
 146.326171875 583.291992188 131.875976562 630.891601562 53.6767578125 624.94140625 c 1
 45.1767578125 678.491210938 l 1
272.926757812 611.341796875 m 1
 259.326171875 410.741210938 260.875 287.326171875 273.776367188 120.891601562 c 0
 277.875 68.025390625 317.9765625 63.091796875 363.026367188 63.94140625 c 0
 505.872533922 65.6416015625 570.93891733 166.791992188 575.426757812 316.391601562 c 4
 581.364135214 506.791992188 500.464703425 624.091796875 375.776367188 627.491210938 c 0
 329.875976562 628.341796875 295.875976562 619.841796875 272.926757812 611.341796875 c 1
EndSplineSet
EndChar

StartChar: E.sc
Encoding: 234 -1 239
Width: 613
VWidth: 79
Flags: HW
LayerCount: 2
Back
SplineSet
123.325195312 563.625 m 0
 121.1015625 604.75 108.875 631.625 44.275390625 628.224609375 c 1
 39.1748046875 680.075195312 l 1
 103.775390625 674.974609375 240.875 675.825195312 311.424804688 675.825195312 c 0
 384.525390625 675.825195312 477.174804688 676.674804688 559.625 680.924804688 c 1
 559.625 680.924804688 562.174804688 632.474609375 562.174804688 612.075195312 c 24
 562.174804688 561.924804688 554.525390625 499.875 554.525390625 499.875 c 1
 483.325195312 506.674804688 l 1
 477.375 556.825195312 456.125 622.275390625 419.575195312 655.424804688 c 1
 500.325195312 613.775390625 l 1
 431.474609375 620.575195312 381.125 623.125 296.974609375 623.125 c 0
 254.474609375 623.125 244.275390625 597.625 241.724609375 572.125 c 0
 224.498046875 399.859375 229.336914062 219.795898438 233.224609375 114.825195312 c 0
 234.075195312 91.875 238.325195312 65.525390625 268.924804688 62.125 c 0
 345.3359375 53.634765625 431.474609375 66.375 474.825195312 77.4248046875 c 1
 408.525390625 24.724609375 l 1
 445.075195312 66.375 464.625 106.325195312 477.375 173.474609375 c 1
 548.575195312 180.275390625 l 1
 548.764648438 175.6484375 550.275390625 72.984375 545.174804688 0.0751953125 c 1
 382.825195312 0.0751953125 198.974609375 0.0751953125 36.625 0.0751953125 c 1
 29.8251953125 49.375 l 1
 95.275390625 56.1748046875 111.619140625 89.587890625 114.825195312 130.974609375 c 0
 124.174804688 251.674804688 131.354492188 415.088867188 123.325195312 563.625 c 0
173.724609375 312.025390625 m 1
 173.724609375 386.625 l 1
 343.724609375 387.474609375 l 1
 466.125 401.924804688 l 1
 466.125 314.575195312 l 1
 359.875 320.525390625 279.974609375 313.724609375 173.724609375 312.025390625 c 1
EndSplineSet
Fore
SplineSet
123.325195312 563.625 m 0
 121.1015625 604.75 108.875 631.625 44.275390625 628.224609375 c 1
 39.1748046875 680.075195312 l 1
 103.775390625 674.974609375 240.875 675.825195312 311.424804688 675.825195312 c 0
 384.525390625 675.825195312 477.174804688 676.674804688 559.625 680.924804688 c 1
 559.625 680.924804688 562.174804688 632.474609375 562.174804688 612.075195312 c 24
 562.174804688 561.924804688 554.525390625 499.875 554.525390625 499.875 c 1
 483.325195312 506.674804688 l 1
 477.375 556.825195312 456.125 622.275390625 419.575195312 655.424804688 c 1
 500.325195312 613.775390625 l 1
 431.474609375 620.575195312 381.125 623.125 296.974609375 623.125 c 0
 254.474609375 623.125 244.275390625 597.625 241.724609375 572.125 c 0
 224.498046875 399.859375 229.336914062 219.795898438 233.224609375 114.825195312 c 0
 234.075195312 91.875 238.325195312 65.525390625 268.924804688 62.125 c 0
 345.3359375 53.634765625 431.474609375 66.375 474.825195312 77.4248046875 c 1
 408.525390625 24.724609375 l 1
 445.075195312 66.375 464.625 106.325195312 477.375 173.474609375 c 1
 548.575195312 180.275390625 l 1
 548.764648438 175.6484375 550.275390625 72.984375 545.174804688 0.0751953125 c 1
 382.825195312 0.0751953125 198.974609375 0.0751953125 36.625 0.0751953125 c 1
 29.8251953125 49.375 l 1
 95.275390625 56.1748046875 111.619140625 89.587890625 114.825195312 130.974609375 c 0
 124.174804688 251.674804688 131.354492188 415.088867188 123.325195312 563.625 c 0
173.724609375 312.025390625 m 1
 173.724609375 386.625 l 1
 343.724609375 387.474609375 l 1
 466.125 401.924804688 l 1
 466.125 314.575195312 l 1
 359.875 320.525390625 279.974609375 313.724609375 173.724609375 312.025390625 c 1
EndSplineSet
EndChar

StartChar: F.sc
Encoding: 235 -1 240
Width: 645
VWidth: 79
Flags: HW
LayerCount: 2
Back
SplineSet
46.275390625 51.9248046875 m 1
 116.825195312 48.525390625 135.525390625 75.724609375 142.325195312 116.525390625 c 1
 256.025390625 124.174804688 l 1
 254.325195312 43.4248046875 341.025390625 42.5751953125 355.474609375 43.4248046875 c 1
 363.974609375 0.0751953125 l 1
 54.775390625 0.0751953125 l 1
 46.275390625 51.9248046875 l 1
62.4248046875 680.075195312 m 1
 129.692382812 674.974609375 241.212890625 674.974609375 314.674804688 674.974609375 c 0
 387.775390625 674.974609375 497.424804688 676.674804688 605.375 680.924804688 c 1
 605.375 680.924804688 607.924804688 632.474609375 607.924804688 612.075195312 c 24
 607.924804688 561.924804688 600.275390625 499.875 600.275390625 499.875 c 1
 523.075195312 506.674804688 l 1
 517.125 556.825195312 495.875 622.275390625 459.325195312 655.424804688 c 1
 531.575195312 612.924804688 l 1
 329.125 618.875 l 2
 279.825195312 619.724609375 266.224609375 599.325195312 263.674804688 563.625 c 0
 250.075195312 376.625 252.625 171.775390625 256.025390625 123.325195312 c 0
 258.575195312 85.9248046875 273.025390625 41.724609375 340.174804688 41.724609375 c 1
 326.575195312 0.9248046875 l 1
 118.525390625 0.0751953125 l 1
 118.525390625 0.0751953125 134.674804688 61.275390625 141.474609375 115.674804688 c 0
 149.974609375 229.575195312 154.620117188 410.102539062 146.575195312 563.625 c 0
 144.419921875 604.752929688 132.125 631.625 67.525390625 628.224609375 c 1
 62.4248046875 680.075195312 l 1
185.474609375 313.724609375 m 1
 185.474609375 376.625 l 1
 389.474609375 377.474609375 l 1
 511.875 391.924804688 l 1
 511.875 307.775390625 l 1
 405.625 313.724609375 291.724609375 315.424804688 185.474609375 313.724609375 c 1
EndSplineSet
Fore
SplineSet
46.275390625 51.9248046875 m 1
 116.825195312 48.525390625 135.525390625 75.724609375 142.325195312 116.525390625 c 1
 256.025390625 124.174804688 l 1
 254.325195312 43.4248046875 341.025390625 42.5751953125 355.474609375 43.4248046875 c 1
 363.974609375 0.0751953125 l 1
 54.775390625 0.0751953125 l 1
 46.275390625 51.9248046875 l 1
62.4248046875 680.075195312 m 1
 129.692382812 674.974609375 241.212890625 674.974609375 314.674804688 674.974609375 c 0
 387.775390625 674.974609375 497.424804688 676.674804688 605.375 680.924804688 c 1
 605.375 680.924804688 607.924804688 632.474609375 607.924804688 612.075195312 c 24
 607.924804688 561.924804688 600.275390625 499.875 600.275390625 499.875 c 1
 523.075195312 506.674804688 l 1
 517.125 556.825195312 495.875 622.275390625 459.325195312 655.424804688 c 1
 531.575195312 612.924804688 l 1
 329.125 618.875 l 2
 279.825195312 619.724609375 266.224609375 599.325195312 263.674804688 563.625 c 0
 250.075195312 376.625 252.625 171.775390625 256.025390625 123.325195312 c 0
 258.575195312 85.9248046875 273.025390625 41.724609375 340.174804688 41.724609375 c 1
 326.575195312 0.9248046875 l 1
 118.525390625 0.0751953125 l 1
 118.525390625 0.0751953125 134.674804688 61.275390625 141.474609375 115.674804688 c 0
 149.974609375 229.575195312 154.620117188 410.102539062 146.575195312 563.625 c 0
 144.419921875 604.752929688 132.125 631.625 67.525390625 628.224609375 c 1
 62.4248046875 680.075195312 l 1
185.474609375 313.724609375 m 1
 185.474609375 376.625 l 1
 389.474609375 377.474609375 l 1
 511.875 391.924804688 l 1
 511.875 307.775390625 l 1
 405.625 313.724609375 291.724609375 315.424804688 185.474609375 313.724609375 c 1
EndSplineSet
EndChar

StartChar: G.sc
Encoding: 236 -1 241
Width: 727
VWidth: 79
Flags: HW
LayerCount: 2
Back
SplineSet
39.7236328125 271.825195312 m 0
 37.173828125 474.125 151.073242188 678.125 429.873046875 679.825195312 c 0
 532.721679688 680.452148438 599.873046875 658.575195312 599.873046875 658.575195312 c 1
 602.423828125 615.224609375 607.5234375 530.224609375 604.973632812 494.525390625 c 1
 548.873046875 497.075195312 l 1
 521.673828125 571.875 468.123046875 633.924804688 429.0234375 639.875 c 1
 440.923828125 657.724609375 595.623046875 641.575195312 550.573242188 560.825195312 c 1
 536.123046875 564.224609375 470.6640625 623.418945312 366.123046875 622.025390625 c 0
 238.623046875 620.325195312 151.073242188 492.825195312 148.5234375 326.224609375 c 0
 145.973632812 178.325195312 219.073242188 46.5751953125 378.0234375 44.025390625 c 0
 470.673828125 42.3251953125 513.173828125 71.224609375 551.423828125 115.424804688 c 1
 607.5234375 96.724609375 l 1
 545.473632812 -1.025390625 440.923828125 -24.8251953125 349.973632812 -24.8251953125 c 0
 168.073242188 -24.8251953125 41.94140625 95.88671875 39.7236328125 271.825195312 c 0
423.923828125 329.625 m 1
 519.973632812 322.825195312 582.873046875 325.375 674.673828125 329.625 c 1
 683.173828125 278.625 l 1
 668.852539062 279.419921875 611.311523438 285.638671875 611.311523438 219.984375 c 0
 611.311523438 175.079101562 611.263671875 126.650390625 607.5234375 96.724609375 c 1
 491.923828125 37.224609375 l 1
 513.133789062 90.25 515.299804688 161.564453125 514.569335938 221.807617188 c 0
 511.78125 256.290039062 487.521484375 278.303710938 429.0234375 275.224609375 c 1
 423.923828125 329.625 l 1
EndSplineSet
Fore
SplineSet
39.7236328125 271.825195312 m 0
 37.173828125 474.125 151.073242188 678.125 429.873046875 679.825195312 c 0
 532.721679688 680.452148438 599.873046875 658.575195312 599.873046875 658.575195312 c 1
 602.423828125 615.224609375 607.5234375 530.224609375 604.973632812 494.525390625 c 1
 548.873046875 497.075195312 l 1
 521.673828125 571.875 468.123046875 633.924804688 429.0234375 639.875 c 1
 440.923828125 657.724609375 595.623046875 641.575195312 550.573242188 560.825195312 c 1
 536.123046875 564.224609375 470.6640625 623.418945312 366.123046875 622.025390625 c 0
 238.623046875 620.325195312 151.073242188 492.825195312 148.5234375 326.224609375 c 0
 145.973632812 178.325195312 219.073242188 46.5751953125 378.0234375 44.025390625 c 0
 470.673828125 42.3251953125 513.173828125 71.224609375 551.423828125 115.424804688 c 1
 607.5234375 96.724609375 l 1
 545.473632812 -1.025390625 440.923828125 -24.8251953125 349.973632812 -24.8251953125 c 0
 168.073242188 -24.8251953125 41.94140625 95.88671875 39.7236328125 271.825195312 c 0
423.923828125 329.625 m 1
 519.973632812 322.825195312 582.873046875 325.375 674.673828125 329.625 c 1
 683.173828125 278.625 l 1
 668.852539062 279.419921875 611.311523438 285.638671875 611.311523438 219.984375 c 0
 611.311523438 175.079101562 611.263671875 126.650390625 607.5234375 96.724609375 c 1
 491.923828125 37.224609375 l 1
 513.133789062 90.25 515.299804688 161.564453125 514.569335938 221.807617188 c 0
 511.78125 256.290039062 487.521484375 278.303710938 429.0234375 275.224609375 c 1
 423.923828125 329.625 l 1
EndSplineSet
EndChar

StartChar: H.sc
Encoding: 237 -1 242
Width: 758
VWidth: 79
Flags: HW
LayerCount: 2
Back
SplineSet
24.349609375 51.849609375 m 1
 88.9501953125 48.4501953125 113.599609375 75.650390625 119.549804688 116.450195312 c 1
 229.700195312 124.099609375 l 1
 228 43.349609375 292.599609375 42.5 307.900390625 43.349609375 c 1
 316.400390625 0 l 1
 32 0 l 1
 24.349609375 51.849609375 l 1
39.650390625 680 m 1
 135.700195312 673.200195312 211.849609375 675.75 303.650390625 680 c 1
 312.150390625 636.650390625 l 1
 296.849609375 637.5 238.200195312 636.650390625 239.900390625 555.900390625 c 1
 123.799804688 563.549804688 l 1
 117.849609375 604.349609375 109.349609375 631.549804688 44.75 628.150390625 c 1
 39.650390625 680 l 1
95.75 0 m 1
 95.75 0 113.868164062 61.00390625 118.700195312 115.599609375 c 0
 130.868164062 253.104492188 128.900390625 495.549804688 120.400390625 652.799804688 c 1
 250.950195312 674.049804688 l 1
 229.700195312 504.049804688 226.299804688 176.799804688 229.700195312 123.25 c 0
 232.25 85.849609375 214.400390625 41.650390625 284.099609375 41.650390625 c 1
 270.5 0.849609375 l 1
 95.75 0 l 1
152.700195312 304.299804688 m 1
 152.700195312 375.75 l 1
 432.349609375 376.599609375 l 1
 618.75 382.549804688 l 1
 618.75 304.299804688 l 1
 152.700195312 304.299804688 l 1
427.25 49.2998046875 m 1
 491.849609375 45.900390625 521.599609375 78.2001953125 525 119 c 1
 638.299804688 118.150390625 l 1
 635.75 41.650390625 691.849609375 41.650390625 708 42.5 c 1
 716.5 0 l 1
 435.75 0 l 1
 427.25 49.2998046875 l 1
440 680 m 1
 521.599609375 674.049804688 646.799804688 676.599609375 711.400390625 680 c 1
 715.650390625 636.650390625 l 1
 700.349609375 637.5 649.349609375 636.650390625 645.950195312 555.900390625 c 1
 527.549804688 563.549804688 l 1
 521.599609375 604.349609375 511.400390625 631.549804688 446.799804688 628.150390625 c 1
 440 680 l 1
501.200195312 0 m 1
 501.200195312 0 519.318359375 61.00390625 524.150390625 115.599609375 c 0
 536.318359375 253.104492188 531.799804688 495.549804688 523.299804688 652.799804688 c 1
 657 674.049804688 l 1
 635.75 504.049804688 635.75 176.799804688 638.299804688 123.25 c 0
 640 85.849609375 623 41.650390625 692.700195312 41.650390625 c 1
 679.099609375 0.849609375 l 1
 501.200195312 0 l 1
EndSplineSet
Fore
SplineSet
24.349609375 51.849609375 m 1
 88.9501953125 48.4501953125 113.599609375 75.650390625 119.549804688 116.450195312 c 1
 229.700195312 124.099609375 l 1
 228 43.349609375 292.599609375 42.5 307.900390625 43.349609375 c 1
 316.400390625 0 l 1
 32 0 l 1
 24.349609375 51.849609375 l 1
39.650390625 680 m 1
 135.700195312 673.200195312 211.849609375 675.75 303.650390625 680 c 1
 312.150390625 636.650390625 l 1
 296.849609375 637.5 238.200195312 636.650390625 239.900390625 555.900390625 c 1
 123.799804688 563.549804688 l 1
 117.849609375 604.349609375 109.349609375 631.549804688 44.75 628.150390625 c 1
 39.650390625 680 l 1
95.75 0 m 1
 95.75 0 113.868164062 61.00390625 118.700195312 115.599609375 c 0
 130.868164062 253.104492188 128.900390625 495.549804688 120.400390625 652.799804688 c 1
 250.950195312 674.049804688 l 1
 229.700195312 504.049804688 226.299804688 176.799804688 229.700195312 123.25 c 0
 232.25 85.849609375 214.400390625 41.650390625 284.099609375 41.650390625 c 1
 270.5 0.849609375 l 1
 95.75 0 l 1
152.700195312 304.299804688 m 1
 152.700195312 375.75 l 1
 432.349609375 376.599609375 l 1
 618.75 382.549804688 l 1
 618.75 304.299804688 l 1
 152.700195312 304.299804688 l 1
427.25 49.2998046875 m 1
 491.849609375 45.900390625 521.599609375 78.2001953125 525 119 c 1
 638.299804688 118.150390625 l 1
 635.75 41.650390625 691.849609375 41.650390625 708 42.5 c 1
 716.5 0 l 1
 435.75 0 l 1
 427.25 49.2998046875 l 1
440 680 m 1
 521.599609375 674.049804688 646.799804688 676.599609375 711.400390625 680 c 1
 715.650390625 636.650390625 l 1
 700.349609375 637.5 649.349609375 636.650390625 645.950195312 555.900390625 c 1
 527.549804688 563.549804688 l 1
 521.599609375 604.349609375 511.400390625 631.549804688 446.799804688 628.150390625 c 1
 440 680 l 1
501.200195312 0 m 1
 501.200195312 0 519.318359375 61.00390625 524.150390625 115.599609375 c 0
 536.318359375 253.104492188 531.799804688 495.549804688 523.299804688 652.799804688 c 1
 657 674.049804688 l 1
 635.75 504.049804688 635.75 176.799804688 638.299804688 123.25 c 0
 640 85.849609375 623 41.650390625 692.700195312 41.650390625 c 1
 679.099609375 0.849609375 l 1
 501.200195312 0 l 1
EndSplineSet
EndChar

StartChar: I.sc
Encoding: 238 -1 243
Width: 414
VWidth: 79
Flags: HW
LayerCount: 2
Back
SplineSet
40.2998046875 680 m 1
 144.087890625 672.8828125 259.734375 674.08203125 376.150390625 680.849609375 c 1
 376.150390625 680.849609375 380.400390625 641.75 382.950195312 625.599609375 c 1
 339.599609375 631.549804688 282.643554688 617.880859375 278.400390625 564.400390625 c 0
 269.489257812 452.090820312 263.950195312 304.299804688 270.75 121.549804688 c 0
 272.989257812 61.3623046875 325.150390625 50.150390625 369.349609375 53.5498046875 c 1
 378.700195312 0 l 1
 50.5 -0.849609375 l 1
 43.7001953125 53.5498046875 l 1
 105.75 49.2998046875 151.084960938 65.3720703125 154.200195312 119 c 0
 159.677734375 213.298828125 158.501953125 386.75 158.450195312 542.299804688 c 0
 158.43359375 592.823242188 122.75 630.700195312 47.9501953125 622.200195312 c 1
 45.400390625 635.799804688 42 672.349609375 40.2998046875 680 c 1
EndSplineSet
Fore
SplineSet
40.2998046875 680 m 1
 144.087890625 672.8828125 259.734375 674.08203125 376.150390625 680.849609375 c 1
 376.150390625 680.849609375 380.400390625 641.75 382.950195312 625.599609375 c 1
 339.599609375 631.549804688 282.643554688 617.880859375 278.400390625 564.400390625 c 0
 269.489257812 452.090820312 263.950195312 304.299804688 270.75 121.549804688 c 0
 272.989257812 61.3623046875 325.150390625 50.150390625 369.349609375 53.5498046875 c 1
 378.700195312 0 l 1
 50.5 -0.849609375 l 1
 43.7001953125 53.5498046875 l 1
 105.75 49.2998046875 151.084960938 65.3720703125 154.200195312 119 c 0
 159.677734375 213.298828125 158.501953125 386.75 158.450195312 542.299804688 c 0
 158.43359375 592.823242188 122.75 630.700195312 47.9501953125 622.200195312 c 1
 45.400390625 635.799804688 42 672.349609375 40.2998046875 680 c 1
EndSplineSet
EndChar

StartChar: L.sc
Encoding: 241 -1 246
Width: 679
VWidth: 79
Flags: HW
LayerCount: 2
Back
SplineSet
78.1748046875 680 m 5
 179.167233768 672.528320312 302.912164672 675.647460938 380.224609375 679.150390625 c 1
 385.325195312 624.75 l 1
 325.727539062 624.75 298.538085938 622.180664062 294.375 572.049804688 c 0
 280.081054688 399.926757812 279.075195312 168.299804688 280.775390625 123.25 c 0
 282.04296875 94.0859375 285.751953125 65.6630859375 316.474609375 62.0498046875 c 0
 364.736328125 56.3740234375 455.658203125 63.84375 495.495117188 70.1240234375 c 1
 512.272460938 102.41015625 524.291015625 141.083007812 528.125 173.400390625 c 1
 591.025390625 180.200195312 l 1
 596.1328125 141.528320312 596.556640625 22.779296875 591.875 0 c 1
 418.798884071 0 257.201115929 0 84.125 0 c 5
 78.1748046875 53.5498046875 l 5
 131.724609375 54.400390625 158.924804688 69.7001953125 164.940429688 124.94921875 c 4
 176.858398438 234.41015625 177.081054688 416.354492188 169.125 563.549804688 c 4
 166.90234375 604.673828125 147.875 631.549804688 83.275390625 628.150390625 c 5
 78.1748046875 680 l 5
EndSplineSet
Fore
SplineSet
78.1748046875 680 m 5
 179.167233768 672.528320312 302.912164672 675.647460938 380.224609375 679.150390625 c 1
 385.325195312 624.75 l 1
 325.727539062 624.75 298.538085938 622.180664062 294.375 572.049804688 c 0
 280.081054688 399.926757812 279.075195312 168.299804688 280.775390625 123.25 c 0
 282.04296875 94.0859375 285.751953125 65.6630859375 316.474609375 62.0498046875 c 0
 364.736328125 56.3740234375 455.658203125 63.84375 495.495117188 70.1240234375 c 1
 512.272460938 102.41015625 524.291015625 141.083007812 528.125 173.400390625 c 1
 591.025390625 180.200195312 l 1
 596.1328125 141.528320312 596.556640625 22.779296875 591.875 0 c 1
 418.798884071 0 257.201115929 0 84.125 0 c 5
 78.1748046875 53.5498046875 l 5
 131.724609375 54.400390625 158.924804688 69.7001953125 164.940429688 124.94921875 c 4
 176.858398438 234.41015625 177.081054688 416.354492188 169.125 563.549804688 c 4
 166.90234375 604.673828125 147.875 631.549804688 83.275390625 628.150390625 c 5
 78.1748046875 680 l 5
EndSplineSet
EndChar

StartChar: M.sc
Encoding: 242 -1 247
Width: 1057
VWidth: 79
Flags: HW
LayerCount: 2
Back
SplineSet
50.974609375 679.625 m 1
 142.377756502 671.974609375 197.773346099 671.125 303.025390625 674.525390625 c 1
 331.075195312 603.974609375 466.782226562 344.544921875 512.974609375 212.125 c 0
 522.101276973 161.794921875 527.555754048 88.025390625 534.625 55.724609375 c 1
 541.424804688 13.224609375 l 1
 482.775390625 -4.625 l 1
 450.474609375 75.275390625 264.325195312 490.924804688 223.525390625 552.125 c 1
 222.674804688 544.474609375 248.174804688 579.325195312 247.325195312 571.674804688 c 0
 238.825195312 416.974609375 242.224609375 155.174804688 247.325195312 117.775390625 c 0
 256.674804688 58.275390625 304.275390625 52.3251953125 348.474609375 58.275390625 c 1
 357.825195312 -0.375 l 1
 52.6748046875 -1.224609375 l 1
 45.875 58.275390625 l 1
 107.924804688 45.525390625 156.375 66.775390625 160.625 137.325195312 c 0
 167.424804688 231.674804688 169.974609375 406.775390625 166.575195312 546.174804688 c 0
 165.724609375 623.525390625 101.125 627.775390625 58.625 619.275390625 c 1
 56.0751953125 632.875 52.6748046875 671.974609375 50.974609375 679.625 c 1
477.674804688 42.125 m 1
 570.325195312 227.424804688 682.525390625 575.075195312 722.474609375 674.525390625 c 1
 827.291673315 671.125 896.249990027 671.974609375 987.275390625 679.625 c 1
 990.674804688 654.974609375 993.224609375 632.875 996.625 619.275390625 c 1
 937.125 627.775390625 888.674804688 623.525390625 887.825195312 546.174804688 c 0
 884.424804688 406.775390625 886.974609375 231.674804688 893.775390625 137.325195312 c 0
 898.025390625 66.775390625 932.875 45.525390625 994.924804688 58.275390625 c 1
 1005.125 -1.224609375 l 1
 662.974609375 -0.375 l 1
 655.325195312 58.275390625 l 1
 699.525390625 52.3251953125 756.474609375 58.275390625 765.825195312 117.775390625 c 0
 770.924804688 157.724609375 774.325195312 439.924804688 764.125 594.625 c 1
 758.174804688 586.125 797.311523438 627.436523438 792.174804688 618.424804688 c 0
 708.6484375 471.88671875 639.947265625 224.875 542.275390625 13.224609375 c 1
 477.674804688 42.125 l 1
EndSplineSet
Fore
SplineSet
50.974609375 679.625 m 1
 142.377756502 671.974609375 197.773346099 671.125 303.025390625 674.525390625 c 1
 331.075195312 603.974609375 466.782226562 344.544921875 512.974609375 212.125 c 0
 522.101276973 161.794921875 527.555754048 88.025390625 534.625 55.724609375 c 1
 541.424804688 13.224609375 l 1
 482.775390625 -4.625 l 1
 450.474609375 75.275390625 264.325195312 490.924804688 223.525390625 552.125 c 1
 222.674804688 544.474609375 248.174804688 579.325195312 247.325195312 571.674804688 c 0
 238.825195312 416.974609375 242.224609375 155.174804688 247.325195312 117.775390625 c 0
 256.674804688 58.275390625 304.275390625 52.3251953125 348.474609375 58.275390625 c 1
 357.825195312 -0.375 l 1
 52.6748046875 -1.224609375 l 1
 45.875 58.275390625 l 1
 107.924804688 45.525390625 156.375 66.775390625 160.625 137.325195312 c 0
 167.424804688 231.674804688 169.974609375 406.775390625 166.575195312 546.174804688 c 0
 165.724609375 623.525390625 101.125 627.775390625 58.625 619.275390625 c 1
 56.0751953125 632.875 52.6748046875 671.974609375 50.974609375 679.625 c 1
477.674804688 42.125 m 1
 570.325195312 227.424804688 682.525390625 575.075195312 722.474609375 674.525390625 c 1
 827.291673315 671.125 896.249990027 671.974609375 987.275390625 679.625 c 1
 990.674804688 654.974609375 993.224609375 632.875 996.625 619.275390625 c 1
 937.125 627.775390625 888.674804688 623.525390625 887.825195312 546.174804688 c 0
 884.424804688 406.775390625 886.974609375 231.674804688 893.775390625 137.325195312 c 0
 898.025390625 66.775390625 932.875 45.525390625 994.924804688 58.275390625 c 1
 1005.125 -1.224609375 l 1
 662.974609375 -0.375 l 1
 655.325195312 58.275390625 l 1
 699.525390625 52.3251953125 756.474609375 58.275390625 765.825195312 117.775390625 c 0
 770.924804688 157.724609375 774.325195312 439.924804688 764.125 594.625 c 1
 758.174804688 586.125 797.311523438 627.436523438 792.174804688 618.424804688 c 0
 708.6484375 471.88671875 639.947265625 224.875 542.275390625 13.224609375 c 1
 477.674804688 42.125 l 1
EndSplineSet
EndChar

StartChar: N.sc
Encoding: 243 -1 248
Width: 828
VWidth: 79
Flags: HW
LayerCount: 2
Back
SplineSet
205.849609375 579.950195312 m 1049
48.400390625 57.4501953125 m 1,0,1
 110.450195312 44.7001953125 141.06980499 66.0051413857 146.150390625 136.5 c 0,2,3
 152.950195312 230.849609375 154.062445213 405.922837039 152.099609375 545.349609375 c 0,4,5
 151.25 605.700195312 112.150390625 618.450195312 52.650390625 618.450195312 c 1,6,7
 50.099609375 632.049804688 46.7001953125 671.150390625 45 678.799804688 c 1,8,9
 129.150390625 671.150390625 181 670.299804688 277.900390625 673.700195312 c 1,10,11
 330.580078125 598.964725703 481.349609375 388.944625652 583.81640625 251.5 c 1,0,0
 608.654296875 215.814453125 630.130089002 106.740740849 653.599609375 96.7998046875 c 0,12,13
 657.849609375 104.998922955 609.400390625 72.2012723571 613.650390625 80.400390625 c 1,14,15
 628.950195312 149.25 627.768581482 430.638221702 619.599609375 536.849609375 c 0,16,17
 613.650390625 614.200195312 586.450195312 626.950195312 526.950195312 618.450195312 c 1,18,19
 524.400390625 632.049804688 521 671.150390625 519.299804688 678.799804688 c 1,20,21
 575.400390625 673.700195312 583.89449348 672 645.099609375 672 c 0,22,23
 679.950195312 672 730.950195312 672.849609375 782.799804688 679.650390625 c 1,24,25
 782.799804688 679.650390625 787.049804688 640.549804688 789.599609375 624.400390625 c 1,26,27
 746.25 630.349609375 714.469832971 610.828628724 710.549804688 564.049804688 c 0,28,29
 697.799804688 411.900390625 700.349609375 181.549804688 707.150390625 -1.2001953125 c 1,30,31
 683.349609375 -4.599609375 668.900390625 -5.4501953125 626.400390625 -14.7998046875 c 1,32,-1
 624.700195312 -15.650390625 l 1,33,34
 476.626404282 189.33921071 384.740422849 320.868484622 263.81640625 473.700195312 c 1,0,0
 260.533203125 478.228515625 209.151367188 575.411132812 205.849609375 579.950195312 c 1,0,0
 199.535236674 575.098896056 240.91513601 598.668690218 234.549804688 593.799804688 c 1,35,36
 224.349609375 439.099609375 226.597122512 156.736254797 232.849609375 116.950195312 c 0,37,38
 242.200195312 57.4501953125 289.799804688 51.5 334 57.4501953125 c 1,39,-1
 343.349609375 -1.2001953125 l 1,40,-1
 55.2001953125 -2.0498046875 l 1,41,-1
 48.400390625 57.4501953125 l 1,0,1
EndSplineSet
Fore
SplineSet
205.849609375 579.950195312 m 1049
48.400390625 57.4501953125 m 1,0,1
 110.450195312 44.7001953125 141.06980499 66.0051413857 146.150390625 136.5 c 0,2,3
 152.950195312 230.849609375 154.062445213 405.922837039 152.099609375 545.349609375 c 0,4,5
 151.25 605.700195312 112.150390625 618.450195312 52.650390625 618.450195312 c 1,6,7
 50.099609375 632.049804688 46.7001953125 671.150390625 45 678.799804688 c 1,8,9
 129.150390625 671.150390625 181 670.299804688 277.900390625 673.700195312 c 1,10,11
 330.580078125 598.964725703 481.349609375 388.944625652 583.81640625 251.5 c 1,0,0
 608.654296875 215.814453125 630.130089002 106.740740849 653.599609375 96.7998046875 c 0,12,13
 657.849609375 104.998922955 609.400390625 72.2012723571 613.650390625 80.400390625 c 1,14,15
 628.950195312 149.25 627.768581482 430.638221702 619.599609375 536.849609375 c 0,16,17
 613.650390625 614.200195312 586.450195312 626.950195312 526.950195312 618.450195312 c 1,18,19
 524.400390625 632.049804688 521 671.150390625 519.299804688 678.799804688 c 1,20,21
 575.400390625 673.700195312 583.89449348 672 645.099609375 672 c 0,22,23
 679.950195312 672 730.950195312 672.849609375 782.799804688 679.650390625 c 1,24,25
 782.799804688 679.650390625 787.049804688 640.549804688 789.599609375 624.400390625 c 1,26,27
 746.25 630.349609375 714.469832971 610.828628724 710.549804688 564.049804688 c 0,28,29
 697.799804688 411.900390625 700.349609375 181.549804688 707.150390625 -1.2001953125 c 1,30,31
 683.349609375 -4.599609375 668.900390625 -5.4501953125 626.400390625 -14.7998046875 c 1,32,-1
 624.700195312 -15.650390625 l 1,33,34
 476.626404282 189.33921071 384.740422849 320.868484622 263.81640625 473.700195312 c 1,0,0
 260.533203125 478.228515625 209.151367188 575.411132812 205.849609375 579.950195312 c 1,0,0
 199.535236674 575.098896056 240.91513601 598.668690218 234.549804688 593.799804688 c 1,35,36
 224.349609375 439.099609375 226.597122512 156.736254797 232.849609375 116.950195312 c 0,37,38
 242.200195312 57.4501953125 289.799804688 51.5 334 57.4501953125 c 1,39,-1
 343.349609375 -1.2001953125 l 1,40,-1
 55.2001953125 -2.0498046875 l 1,41,-1
 48.400390625 57.4501953125 l 1,0,1
EndSplineSet
EndChar

StartChar: O.sc
Encoding: 244 -1 249
Width: 712
VWidth: 153
Flags: HW
LayerCount: 2
Back
SplineSet
35.8046875 264.50390625 m 4
 25.1662595677 511.64453125 176.60498505 675.340820312 383.015625 682.713867188 c 4
 545.317535101 688.557617188 666.51897625 594.077148438 667.424804688 373.82421875 c 4
 668.406935419 175.686523438 574.856995079 -9.111328125 326.544921875 -13.7744140625 c 4
 142.566603548 -17.169921875 43.5243050324 99.7646484375 35.8046875 264.50390625 c 4
162.538085938 333 m 4
 163.682682683 161.228515625 237.591729279 29.97265625 375.901367188 48.341796875 c 4
 479.849488348 63.1923828125 535.303749577 169.65234375 534.544921875 349.911132812 c 4
 533.826526343 515.737304688 441.533672254 634.169921875 322.432617188 615.405273438 c 4
 250.838887732 604.453125 161.210012468 535.379882812 162.538085938 333 c 4
EndSplineSet
Fore
SplineSet
35.8046875 264.50390625 m 4
 25.1662595677 511.64453125 176.60498505 675.340820312 383.015625 682.713867188 c 4
 545.317535101 688.557617188 666.51897625 594.077148438 667.424804688 373.82421875 c 4
 668.406935419 175.686523438 574.856995079 -9.111328125 326.544921875 -13.7744140625 c 4
 142.566603548 -17.169921875 43.5243050324 99.7646484375 35.8046875 264.50390625 c 4
162.538085938 333 m 4
 163.682682683 161.228515625 237.591729279 29.97265625 375.901367188 48.341796875 c 4
 479.849488348 63.1923828125 535.303749577 169.65234375 534.544921875 349.911132812 c 4
 533.826526343 515.737304688 441.533672254 634.169921875 322.432617188 615.405273438 c 4
 250.838887732 604.453125 161.210012468 535.379882812 162.538085938 333 c 4
EndSplineSet
EndChar

StartChar: P.sc
Encoding: 245 -1 250
Width: 670
VWidth: 79
Flags: HW
LayerCount: 2
Back
SplineSet
50.9765625 677.56640625 m 5
 175.88536831 667.366210938 276.356285959 681.81640625 412.126953125 681.81640625 c 4
 572.849009067 681.81640625 632.989927222 609.56640625 634.026367188 516.06640625 c 4
 636.015405304 372.416992188 515.692880126 257.666992188 358.577148438 255.966796875 c 4
 315.2265625 255.116210938 257.426757812 267.016601562 257.426757812 267.016601562 c 5
 256.577148438 182.016601562 259.9765625 150.56640625 265.077148438 104.666992188 c 4
 270.560546875 55.3125 301.626953125 51.966796875 346.676757812 51.966796875 c 5
 357.7265625 0.1162109375 l 5
 295.237108353 -0.7333984375 132.579974263 0.1162109375 64.5771484375 0.1162109375 c 5
 56.0771484375 51.966796875 l 5
 123.2265625 51.966796875 141.077148438 70.6669921875 142.776367188 113.166992188 c 4
 150.426757812 295.916992188 152.9765625 397.06640625 146.176757812 533.06640625 c 4
 143.626953125 582.366210938 128.327148438 621.466796875 55.2265625 624.016601562 c 5
 50.9765625 677.56640625 l 5
259.126953125 349.766601562 m 5
 288.026367188 327.666992188 325.426757812 313.216796875 369.626953125 314.06640625 c 4
 473.160209079 314.90718153 507.060758192 395.56562106 507.9765625 485.466796875 c 4
 508.892983163 581.516601562 442.039517126 632.516601562 368.776367188 634.216796875 c 4
 329.676757812 635.06640625 283.776367188 627.416992188 264.2265625 619.766601562 c 5
 257.426757812 554.797657686 259.9765625 432.453907686 259.126953125 349.766601562 c 5
EndSplineSet
Fore
SplineSet
50.9765625 677.56640625 m 5
 175.88536831 667.366210938 276.356285959 681.81640625 412.126953125 681.81640625 c 4
 572.849009067 681.81640625 632.989927222 609.56640625 634.026367188 516.06640625 c 4
 636.015405304 372.416992188 515.692880126 257.666992188 358.577148438 255.966796875 c 4
 315.2265625 255.116210938 257.426757812 267.016601562 257.426757812 267.016601562 c 5
 256.577148438 182.016601562 259.9765625 150.56640625 265.077148438 104.666992188 c 4
 270.560546875 55.3125 301.626953125 51.966796875 346.676757812 51.966796875 c 5
 357.7265625 0.1162109375 l 5
 295.237108353 -0.7333984375 132.579974263 0.1162109375 64.5771484375 0.1162109375 c 5
 56.0771484375 51.966796875 l 5
 123.2265625 51.966796875 141.077148438 70.6669921875 142.776367188 113.166992188 c 4
 150.426757812 295.916992188 152.9765625 397.06640625 146.176757812 533.06640625 c 4
 143.626953125 582.366210938 128.327148438 621.466796875 55.2265625 624.016601562 c 5
 50.9765625 677.56640625 l 5
259.126953125 349.766601562 m 5
 288.026367188 327.666992188 325.426757812 313.216796875 369.626953125 314.06640625 c 4
 473.160209079 314.90718153 507.060758192 395.56562106 507.9765625 485.466796875 c 4
 508.892983163 581.516601562 442.039517126 632.516601562 368.776367188 634.216796875 c 4
 329.676757812 635.06640625 283.776367188 627.416992188 264.2265625 619.766601562 c 5
 257.426757812 554.797657686 259.9765625 432.453907686 259.126953125 349.766601562 c 5
EndSplineSet
EndChar

StartChar: Q.sc
Encoding: 246 -1 251
Width: 809
VWidth: 153
Flags: HW
LayerCount: 2
Back
SplineSet
55.8046875 264.50390625 m 4
 45.1662595677 511.64453125 196.60498505 675.340820312 403.015625 682.713867188 c 4
 565.317535101 688.557617188 686.51897625 594.077148438 687.424804688 373.82421875 c 4
 688.406935419 175.686523438 594.856995079 -9.111328125 346.544921875 -13.7744140625 c 4
 162.566603548 -17.169921875 63.5243050324 99.7646484375 55.8046875 264.50390625 c 4
182.538085938 333 m 4
 183.682682683 161.228515625 257.591729279 29.97265625 395.901367188 48.341796875 c 4
 499.849488348 63.1923828125 555.303749577 169.65234375 554.544921875 349.911132812 c 4
 553.826526343 515.737304688 461.533672254 634.169921875 342.432617188 615.405273438 c 4
 270.838887732 604.453125 181.210012468 535.379882812 182.538085938 333 c 4
259.279296875 -7.3974609375 m 5
 319.62890625 0.2529296875 l 5
 367.228515625 -78.8182079472 542.329101562 -114.83150882 638.37890625 -116.397460938 c 4
 742.928710938 -118.096679688 818.579101562 -89.197265625 818.579101562 -89.197265625 c 5
 832.149414062 -118.096679688 l 5
 823.678710938 -199.497070312 l 5
 770.12890625 -216.497070312 713.178710938 -228.596679688 617.12890625 -220.747070312 c 4
 410.389885095 -203.851454919 283.928710938 -66.8974609375 259.279296875 -7.3974609375 c 5
EndSplineSet
Fore
SplineSet
55.8046875 264.50390625 m 4
 45.1662595677 511.64453125 196.60498505 675.340820312 403.015625 682.713867188 c 4
 565.317535101 688.557617188 686.51897625 594.077148438 687.424804688 373.82421875 c 4
 688.406935419 175.686523438 594.856995079 -9.111328125 346.544921875 -13.7744140625 c 4
 162.566603548 -17.169921875 63.5243050324 99.7646484375 55.8046875 264.50390625 c 4
182.538085938 333 m 4
 183.682682683 161.228515625 257.591729279 29.97265625 395.901367188 48.341796875 c 4
 499.849488348 63.1923828125 555.303749577 169.65234375 554.544921875 349.911132812 c 4
 553.826526343 515.737304688 461.533672254 634.169921875 342.432617188 615.405273438 c 4
 270.838887732 604.453125 181.210012468 535.379882812 182.538085938 333 c 4
259.279296875 -7.3974609375 m 5
 319.62890625 0.2529296875 l 5
 367.228515625 -78.8182079472 542.329101562 -114.83150882 638.37890625 -116.397460938 c 4
 742.928710938 -118.096679688 818.579101562 -89.197265625 818.579101562 -89.197265625 c 5
 832.149414062 -118.096679688 l 5
 823.678710938 -199.497070312 l 5
 770.12890625 -216.497070312 713.178710938 -228.596679688 617.12890625 -220.747070312 c 4
 410.389885095 -203.851454919 283.928710938 -66.8974609375 259.279296875 -7.3974609375 c 5
EndSplineSet
EndChar

StartChar: R.sc
Encoding: 247 -1 252
Width: 748
VWidth: 79
Flags: HW
LayerCount: 2
Back
SplineSet
301.674804688 307.766601562 m 5
 330.856525253 301.81640625 396.262793485 296.716796875 430.474609375 305.216796875 c 5
 430.474609375 305.216796875 586.025390625 52.9331047933 713.525390625 53.6669921875 c 5
 721.174804688 0.1162109375 l 5
 614.051226667 4.3662109375 618.749657623 2.6669921875 511.625 0.1162109375 c 5
 498.619140625 28.173828125 508.468992888 35.5581776307 456.375 107.216796875 c 4
 439.986328125 129.760463289 346.724609375 251.782362698 301.674804688 307.766601562 c 5
EndSplineSet
Refer: 250 -1 S 1 0 0 1 -20 0 2
Fore
SplineSet
301.674804688 307.766601562 m 5
 330.856525253 301.81640625 396.262793485 296.716796875 430.474609375 305.216796875 c 5
 430.474609375 305.216796875 586.025390625 52.9331047933 713.525390625 53.6669921875 c 5
 721.174804688 0.1162109375 l 5
 614.051226667 4.3662109375 618.749657623 2.6669921875 511.625 0.1162109375 c 5
 498.619140625 28.173828125 508.468992888 35.5581776307 456.375 107.216796875 c 4
 439.986328125 129.760463289 346.724609375 251.782362698 301.674804688 307.766601562 c 5
EndSplineSet
Refer: 250 -1 S 1 0 0 1 -20 0 2
EndChar

StartChar: S.sc
Encoding: 248 -1 253
Width: 572
VWidth: 153
Flags: HW
LayerCount: 2
Back
SplineSet
40.9990234375 19.880859375 m 1
 36.7490234375 58.130859375 38.44921875 126.130859375 48.6494140625 191.581054688 c 1
 132.249023438 182.231445312 l 1
 135.649414062 131.231445312 147.548828125 82.78125 179.849609375 45.380859375 c 1
 129.69921875 57.28125 104.749023438 104.880859375 95.3994140625 151.630859375 c 1
 126.849609375 115.081054688 151.664334412 59.6241651621 236.048828125 49.380859375 c 0
 313.071038525 40.03125 360.604872863 80.6990100787 368.19921875 131.231445312 c 0
 390.298828125 278.28125 83.2781357697 292.677908778 53.849609375 470.380859375 c 0
 36.1131992054 577.481445312 116.441053988 689.952756059 294.69921875 686.981445312 c 0
 396.69921875 685.28125 461.298828125 662.331054688 461.298828125 662.331054688 c 1
 466.399414062 621.53125 463.849609375 544.180664062 457.899414062 506.78125 c 1
 375.69921875 516.130859375 l 1
 373.999023438 556.930664062 335.749023438 674.231445312 335.749023438 674.231445312 c 2
 395.249023438 533.981445312 l 1
 379.099609375 553.53125 361.845965185 635.03573215 264.94921875 636.231445312 c 0
 196.099609375 637.081054688 173.901913556 587.694018694 181.44921875 529.03125 c 0
 200.149414063 383.680664062 480.052149183 383.395546273 498.499023438 195.680664062 c 0
 509.797851562 80.7041015625 423.899410803 -14.118410508 233.499023438 -14.96875 c 0
 120.450195312 -15.4736328125 40.9990234375 19.880859375 40.9990234375 19.880859375 c 1
EndSplineSet
Fore
SplineSet
40.9990234375 19.880859375 m 1
 36.7490234375 58.130859375 38.44921875 126.130859375 48.6494140625 191.581054688 c 1
 132.249023438 182.231445312 l 1
 135.649414062 131.231445312 147.548828125 82.78125 179.849609375 45.380859375 c 1
 129.69921875 57.28125 104.749023438 104.880859375 95.3994140625 151.630859375 c 1
 126.849609375 115.081054688 151.664334412 59.6241651621 236.048828125 49.380859375 c 0
 313.071038525 40.03125 360.604872863 80.6990100787 368.19921875 131.231445312 c 0
 390.298828125 278.28125 83.2781357697 292.677908778 53.849609375 470.380859375 c 0
 36.1131992054 577.481445312 116.441053988 689.952756059 294.69921875 686.981445312 c 0
 396.69921875 685.28125 461.298828125 662.331054688 461.298828125 662.331054688 c 1
 466.399414062 621.53125 463.849609375 544.180664062 457.899414062 506.78125 c 1
 375.69921875 516.130859375 l 1
 373.999023438 556.930664062 335.749023438 674.231445312 335.749023438 674.231445312 c 2
 395.249023438 533.981445312 l 1
 379.099609375 553.53125 361.845965185 635.03573215 264.94921875 636.231445312 c 0
 196.099609375 637.081054688 173.901913556 587.694018694 181.44921875 529.03125 c 0
 200.149414063 383.680664062 480.052149183 383.395546273 498.499023438 195.680664062 c 0
 509.797851562 80.7041015625 423.899410803 -14.118410508 233.499023438 -14.96875 c 0
 120.450195312 -15.4736328125 40.9990234375 19.880859375 40.9990234375 19.880859375 c 1
EndSplineSet
EndChar

StartChar: T.sc
Encoding: 249 -1 254
Width: 691
VWidth: 79
Flags: HW
LayerCount: 2
Back
SplineSet
46.375 517.474609375 m 1
 50.625 557.424804688 56.5751953125 635.625 57.4248046875 684.075195312 c 1
 152.6750838 678.974609375 229.401099044 677.275390625 333.474609375 677.275390625 c 0
 394.113484549 677.275390625 548.785123432 678.125 638.424804688 684.924804688 c 1
 636.762695312 661.231445312 628.224609375 515.805664062 628.224609375 512.375 c 1
 557.025390625 519.174804688 l 1
 551.075195312 569.325195312 529.825195312 626.275390625 493.275390625 659.424804688 c 1
 565.525390625 600.775390625 l 1
 489.875 627.125 405.969726562 622.875 333.474609375 622.875 c 0
 256.120117188 622.875 163.474609375 618.625 132.025390625 619.474609375 c 1
 177.924804688 650.924804688 l 1
 145.625 620.325195312 138.825195312 557.424804688 126.924804688 526.825195312 c 1
 46.375 517.474609375 l 1
218.075195312 649.224609375 m 1
 277.801468932 647.525390625 411.474609375 667.075195312 411.474609375 667.075195312 c 1
 388.501953125 489.362008607 379.629313727 257.739333329 391.674804688 109.84375 c 0
 396.008789062 57.0126953125 442.3125 53.685546875 465.025390625 55.3251953125 c 1
 474.375 0.0751953125 l 1
 240.174804688 0.0751953125 l 1
 178.974609375 0.0751953125 l 1
 174.724609375 51.9248046875 l 1
 234.454101562 48.78125 263.433145224 83.8379352616 267.483398438 124.534179688 c 0
 282.674804688 278.474730046 281.137875812 489.004402267 272.474609375 598.224609375 c 0
 269.489257812 635.543945312 249.525390625 638.174804688 224.025390625 638.174804688 c 1
 218.075195312 649.224609375 l 1
EndSplineSet
Fore
SplineSet
46.375 517.474609375 m 1
 50.625 557.424804688 56.5751953125 635.625 57.4248046875 684.075195312 c 1
 152.6750838 678.974609375 229.401099044 677.275390625 333.474609375 677.275390625 c 0
 394.113484549 677.275390625 548.785123432 678.125 638.424804688 684.924804688 c 1
 636.762695312 661.231445312 628.224609375 515.805664062 628.224609375 512.375 c 1
 557.025390625 519.174804688 l 1
 551.075195312 569.325195312 529.825195312 626.275390625 493.275390625 659.424804688 c 1
 565.525390625 600.775390625 l 1
 489.875 627.125 405.969726562 622.875 333.474609375 622.875 c 0
 256.120117188 622.875 163.474609375 618.625 132.025390625 619.474609375 c 1
 177.924804688 650.924804688 l 1
 145.625 620.325195312 138.825195312 557.424804688 126.924804688 526.825195312 c 1
 46.375 517.474609375 l 1
218.075195312 649.224609375 m 1
 277.801468932 647.525390625 411.474609375 667.075195312 411.474609375 667.075195312 c 1
 388.501953125 489.362008607 379.629313727 257.739333329 391.674804688 109.84375 c 0
 396.008789062 57.0126953125 442.3125 53.685546875 465.025390625 55.3251953125 c 1
 474.375 0.0751953125 l 1
 240.174804688 0.0751953125 l 1
 178.974609375 0.0751953125 l 1
 174.724609375 51.9248046875 l 1
 234.454101562 48.78125 263.433145224 83.8379352616 267.483398438 124.534179688 c 0
 282.674804688 278.474730046 281.137875812 489.004402267 272.474609375 598.224609375 c 0
 269.489257812 635.543945312 249.525390625 638.174804688 224.025390625 638.174804688 c 1
 218.075195312 649.224609375 l 1
EndSplineSet
EndChar

StartChar: U.sc
Encoding: 250 -1 255
Width: 709
VWidth: 79
Flags: HW
LayerCount: 2
Back
SplineSet
9.875 679.025390625 m 1
 74.4365234375 673.924804688 92.044921875 671.375 162.474609375 672.224609375 c 0
 197.325195312 672.224609375 273.825195312 673.075195312 325.674804688 679.875 c 1
 325.674804688 679.875 329.924804688 640.775390625 332.474609375 624.625 c 1
 254.276367188 636.525390625 234.146484375 576.174804688 230.275390625 519.224609375 c 0
 222.625 410.424804688 220.924804688 252.325195312 224.325195312 215.775390625 c 0
 231.868211903 116.325195312 280.800478644 44.62109375 381.974609375 54.275390625 c 4
 462.655273438 61.1064453125 518.895507812 123.404296875 526.474609375 225.974609375 c 4
 534.125 329.498046875 526.852539062 437.088867188 529.875 543.875 c 5
 529.875 544.724609375 l 5
 529.025390625 622.075195312 481.424804688 626.325195312 421.924804688 617.825195312 c 5
 419.375 631.424804688 415.974609375 670.525390625 414.275390625 678.174804688 c 5
 473.923371156 673.075195312 517.303815028 670.525390625 582.375 671.375 c 0
 617.224609375 671.375 638.474609375 672.224609375 690.325195312 679.025390625 c 1
 690.325195312 679.025390625 694.575195312 639.924804688 697.125 623.775390625 c 1
 654.625 629.724609375 614.626953125 607.819335938 612.125 562.575195312 c 0
 604.426757812 423.369140625 611.216796875 293.657226562 603.625 203.025390625 c 0
 590.025390625 40.6748046875 462.525390625 -12.875 352.875 -12.875 c 0
 246.880859375 -12.875 95.724609375 24.525390625 95.724609375 198.775390625 c 0
 95.724609375 304.174804688 105.075195312 471.625 101.674804688 543.025390625 c 0
 98.275390625 603.375 88.0751953125 628.025390625 17.525390625 618.674804688 c 1
 14.974609375 632.275390625 11.5751953125 671.375 9.875 679.025390625 c 1
EndSplineSet
Fore
SplineSet
9.875 679.025390625 m 1
 74.4365234375 673.924804688 92.044921875 671.375 162.474609375 672.224609375 c 0
 197.325195312 672.224609375 273.825195312 673.075195312 325.674804688 679.875 c 1
 325.674804688 679.875 329.924804688 640.775390625 332.474609375 624.625 c 1
 254.276367188 636.525390625 234.146484375 576.174804688 230.275390625 519.224609375 c 0
 222.625 410.424804688 220.924804688 252.325195312 224.325195312 215.775390625 c 0
 231.868211903 116.325195312 280.800478644 44.62109375 381.974609375 54.275390625 c 4
 462.655273438 61.1064453125 518.895507812 123.404296875 526.474609375 225.974609375 c 4
 534.125 329.498046875 526.852539062 437.088867188 529.875 543.875 c 5
 529.875 544.724609375 l 5
 529.025390625 622.075195312 481.424804688 626.325195312 421.924804688 617.825195312 c 5
 419.375 631.424804688 415.974609375 670.525390625 414.275390625 678.174804688 c 5
 473.923371156 673.075195312 517.303815028 670.525390625 582.375 671.375 c 0
 617.224609375 671.375 638.474609375 672.224609375 690.325195312 679.025390625 c 1
 690.325195312 679.025390625 694.575195312 639.924804688 697.125 623.775390625 c 1
 654.625 629.724609375 614.626953125 607.819335938 612.125 562.575195312 c 0
 604.426757812 423.369140625 611.216796875 293.657226562 603.625 203.025390625 c 0
 590.025390625 40.6748046875 462.525390625 -12.875 352.875 -12.875 c 0
 246.880859375 -12.875 95.724609375 24.525390625 95.724609375 198.775390625 c 0
 95.724609375 304.174804688 105.075195312 471.625 101.674804688 543.025390625 c 0
 98.275390625 603.375 88.0751953125 628.025390625 17.525390625 618.674804688 c 1
 14.974609375 632.275390625 11.5751953125 671.375 9.875 679.025390625 c 1
EndSplineSet
EndChar

StartChar: V.sc
Encoding: 251 -1 256
Width: 776
VWidth: 79
Flags: HW
LayerCount: 2
Back
SplineSet
10.0751953125 677.349609375 m 1
 105.275390625 673.099609375 253.974609375 672.25 323.674804688 677.349609375 c 1
 332.174804688 622.950195312 l 1
 271.825195312 632.299804688 228.474609375 622.099609375 242.075195312 571.950195312 c 0
 270.974609375 470.799804688 331.325195312 324.599609375 367.875 206.450195312 c 0
 374.674804688 173.299804688 378.974609375 106.150390625 385.775390625 71.2998046875 c 1
 445.275390625 233.650390625 546.424804688 500.549804688 559.174804688 554.099609375 c 0
 577.025390625 635.700195312 507.325195312 634.849609375 466.525390625 634 c 1
 458.025390625 677.349609375 l 1
 552.375 673.950195312 656.875 669.700195312 744.424804688 677.349609375 c 1
 752.924804688 625.5 l 1
 684.075195312 633.150390625 665.375 604.25 649.224609375 561.75 c 0
 570.174804688 362.849609375 491.974609375 158 445.224609375 5 c 1
 412.075195312 -0.099609375 343.275390625 -10.2998046875 310.125 -21.349609375 c 1
 258.275390625 157.150390625 193.674804688 339.049804688 108.674804688 566.849609375 c 0
 94.224609375 597.450195312 76.375 639.099609375 18.5751953125 630.599609375 c 1
 10.0751953125 677.349609375 l 1
EndSplineSet
Fore
SplineSet
10.0751953125 677.349609375 m 1
 105.275390625 673.099609375 253.974609375 672.25 323.674804688 677.349609375 c 1
 332.174804688 622.950195312 l 1
 271.825195312 632.299804688 228.474609375 622.099609375 242.075195312 571.950195312 c 0
 270.974609375 470.799804688 331.325195312 324.599609375 367.875 206.450195312 c 0
 374.674804688 173.299804688 378.974609375 106.150390625 385.775390625 71.2998046875 c 1
 445.275390625 233.650390625 546.424804688 500.549804688 559.174804688 554.099609375 c 0
 577.025390625 635.700195312 507.325195312 634.849609375 466.525390625 634 c 1
 458.025390625 677.349609375 l 1
 552.375 673.950195312 656.875 669.700195312 744.424804688 677.349609375 c 1
 752.924804688 625.5 l 1
 684.075195312 633.150390625 665.375 604.25 649.224609375 561.75 c 0
 570.174804688 362.849609375 491.974609375 158 445.224609375 5 c 1
 412.075195312 -0.099609375 343.275390625 -10.2998046875 310.125 -21.349609375 c 1
 258.275390625 157.150390625 193.674804688 339.049804688 108.674804688 566.849609375 c 0
 94.224609375 597.450195312 76.375 639.099609375 18.5751953125 630.599609375 c 1
 10.0751953125 677.349609375 l 1
EndSplineSet
EndChar

StartChar: NameMe.263
Encoding: 263 -1 261
Width: 371
VWidth: 153
Flags: HW
LayerCount: 2
Back
SplineSet
42 372.889648438 m 5
 42 405 l 5
 275.169921875 410.00390625 147.98046875 560.740234375 160.28125 730 c 4
 167.00390625 822.501953125 244.8671875 856.951171875 308 863 c 5
 326 821 l 5
 265.498046875 817.588867188 231.064453125 786.01953125 229.833007812 722 c 4
 228.684570312 662.296875 259.8515625 598.77734375 259.958007812 520 c 4
 260.147460938 380.05859375 164.779296875 378.520507812 42 372.889648438 c 5
EndSplineSet
Fore
SplineSet
42 372.889648438 m 5
 42 405 l 5
 275.169921875 410.00390625 147.98046875 560.740234375 160.28125 730 c 4
 167.00390625 822.501953125 244.8671875 856.951171875 308 863 c 5
 326 821 l 5
 265.498046875 817.588867188 231.064453125 786.01953125 229.833007812 722 c 4
 228.684570312 662.296875 259.8515625 598.77734375 259.958007812 520 c 4
 260.147460938 380.05859375 164.779296875 378.520507812 42 372.889648438 c 5
EndSplineSet
EndChar
